<ttFont>
    <TTGlyph name=".notdef" xMin="0" yMin="0" xMax="500" yMax="700">
      <contour>
        <pt x="425" y="133" on="1"/>
        <pt x="386" y="101" on="1"/>
        <pt x="250" y="305" on="1"/>
        <pt x="113" y="100" on="1"/>
        <pt x="73" y="129" on="1"/>
        <pt x="220" y="350" on="1"/>
        <pt x="73" y="571" on="1"/>
        <pt x="113" y="600" on="1"/>
        <pt x="250" y="395" on="1"/>
        <pt x="386" y="599" on="1"/>
        <pt x="425" y="567" on="1"/>
        <pt x="280" y="350" on="1"/>
      </contour>
      <contour>
        <pt x="450" y="50" on="1"/>
        <pt x="450" y="650" on="1"/>
        <pt x="50" y="650" on="1"/>
        <pt x="50" y="50" on="1"/>
      </contour>
      <contour>
        <pt x="500" y="0" on="1"/>
        <pt x="0" y="0" on="1"/>
        <pt x="0" y="700" on="1"/>
        <pt x="500" y="700" on="1"/>
      </contour>
    </TTGlyph>
    <TTGlyph name="A" xMin="12" yMin="0" xMax="517" yMax="700">
      <contour>
        <pt x="391" y="300" on="1"/>
        <pt x="264" y="660" on="1"/>
        <pt x="137" y="300" on="1"/>
      </contour>
      <contour>
        <pt x="517" y="0" on="1"/>
        <pt x="496" y="0" on="1"/>
        <pt x="398" y="281" on="1"/>
        <pt x="130" y="281" on="1"/>
        <pt x="31" y="0" on="1"/>
        <pt x="12" y="0" on="1"/>
        <pt x="257" y="700" on="1"/>
        <pt x="271" y="700" on="1"/>
      </contour>
    </TTGlyph>
    <TTGlyph name="AE" xMin="78" yMin="0" xMax="779" yMax="700">
      <contour>
        <pt x="445" y="300" on="1"/>
        <pt x="445" y="664" on="1"/>
        <pt x="256" y="300" on="1"/>
      </contour>
      <contour>
        <pt x="777" y="0" on="1"/>
        <pt x="444" y="0" on="1"/>
        <pt x="445" y="281" on="1"/>
        <pt x="247" y="281" on="1"/>
        <pt x="100" y="0" on="1"/>
        <pt x="78" y="0" on="1"/>
        <pt x="444" y="700" on="1"/>
        <pt x="779" y="700" on="1"/>
        <pt x="779" y="681" on="1"/>
        <pt x="464" y="681" on="1"/>
        <pt x="464" y="413" on="1"/>
        <pt x="692" y="413" on="1"/>
        <pt x="685" y="394" on="1"/>
        <pt x="464" y="394" on="1"/>
        <pt x="464" y="20" on="1"/>
        <pt x="777" y="20" on="1"/>
      </contour>
    </TTGlyph>
    <TTGlyph name="Aacute" xMin="12" yMin="0" xMax="517" yMax="872">
      <contour>
        <pt x="261" y="731" on="1"/>
        <pt x="242" y="731" on="1"/>
        <pt x="297" y="859" on="1"/>
        <pt x="302" y="872" on="0"/>
        <pt x="312" y="872" on="1"/>
        <pt x="316" y="872" on="0"/>
        <pt x="320" y="870" on="1"/>
        <pt x="336" y="863" on="0"/>
        <pt x="324" y="844" on="1"/>
      </contour>
      <contour>
        <pt x="391" y="300" on="1"/>
        <pt x="264" y="660" on="1"/>
        <pt x="137" y="300" on="1"/>
      </contour>
      <contour>
        <pt x="517" y="0" on="1"/>
        <pt x="496" y="0" on="1"/>
        <pt x="398" y="281" on="1"/>
        <pt x="130" y="281" on="1"/>
        <pt x="31" y="0" on="1"/>
        <pt x="12" y="0" on="1"/>
        <pt x="257" y="700" on="1"/>
        <pt x="271" y="700" on="1"/>
      </contour>
    </TTGlyph>
    <TTGlyph name="Abreve" xMin="12" yMin="0" xMax="517" yMax="848">
      <contour>
        <pt x="378" y="848" on="1"/>
        <pt x="378" y="843" on="1"/>
        <pt x="378" y="796" on="0"/>
        <pt x="312" y="730" on="0"/>
        <pt x="218" y="730" on="0"/>
        <pt x="152" y="796" on="0"/>
        <pt x="152" y="843" on="1"/>
        <pt x="152" y="848" on="1"/>
        <pt x="173" y="848" on="1"/>
        <pt x="173" y="843" on="1"/>
        <pt x="173" y="810" on="0"/>
        <pt x="223" y="750" on="0"/>
        <pt x="305" y="750" on="0"/>
        <pt x="357" y="811" on="0"/>
        <pt x="357" y="843" on="1"/>
        <pt x="357" y="848" on="1"/>
      </contour>
      <contour>
        <pt x="391" y="300" on="1"/>
        <pt x="264" y="660" on="1"/>
        <pt x="137" y="300" on="1"/>
      </contour>
      <contour>
        <pt x="517" y="0" on="1"/>
        <pt x="496" y="0" on="1"/>
        <pt x="398" y="281" on="1"/>
        <pt x="130" y="281" on="1"/>
        <pt x="31" y="0" on="1"/>
        <pt x="12" y="0" on="1"/>
        <pt x="257" y="700" on="1"/>
        <pt x="271" y="700" on="1"/>
      </contour>
    </TTGlyph>
    <TTGlyph name="Acircumflex" xMin="12" yMin="0" xMax="517" yMax="913">
      <contour>
        <pt x="408" y="772" on="1"/>
        <pt x="391" y="756" on="1"/>
        <pt x="265" y="883" on="1"/>
        <pt x="134" y="756" on="1"/>
        <pt x="118" y="772" on="1"/>
        <pt x="266" y="913" on="1"/>
      </contour>
      <contour>
        <pt x="391" y="300" on="1"/>
        <pt x="264" y="660" on="1"/>
        <pt x="137" y="300" on="1"/>
      </contour>
      <contour>
        <pt x="517" y="0" on="1"/>
        <pt x="496" y="0" on="1"/>
        <pt x="398" y="281" on="1"/>
        <pt x="130" y="281" on="1"/>
        <pt x="31" y="0" on="1"/>
        <pt x="12" y="0" on="1"/>
        <pt x="257" y="700" on="1"/>
        <pt x="271" y="700" on="1"/>
      </contour>
    </TTGlyph>
    <TTGlyph name="Adieresis" xMin="12" yMin="0" xMax="517" yMax="700">
      <contour>
        <pt x="391" y="300" on="1"/>
        <pt x="264" y="660" on="1"/>
        <pt x="137" y="300" on="1"/>
      </contour>
      <contour>
        <pt x="517" y="0" on="1"/>
        <pt x="496" y="0" on="1"/>
        <pt x="398" y="281" on="1"/>
        <pt x="130" y="281" on="1"/>
        <pt x="31" y="0" on="1"/>
        <pt x="12" y="0" on="1"/>
        <pt x="257" y="700" on="1"/>
        <pt x="271" y="700" on="1"/>
      </contour>
    </TTGlyph>
    <TTGlyph name="Agrave" xMin="12" yMin="0" xMax="517" yMax="872">
      <contour>
        <pt x="276" y="731" on="1"/>
        <pt x="257" y="731" on="1"/>
        <pt x="194" y="844" on="1"/>
        <pt x="182" y="863" on="0"/>
        <pt x="198" y="870" on="1"/>
        <pt x="202" y="872" on="0"/>
        <pt x="206" y="872" on="1"/>
        <pt x="216" y="872" on="0"/>
        <pt x="221" y="859" on="1"/>
      </contour>
      <contour>
        <pt x="391" y="300" on="1"/>
        <pt x="264" y="660" on="1"/>
        <pt x="137" y="300" on="1"/>
      </contour>
      <contour>
        <pt x="517" y="0" on="1"/>
        <pt x="496" y="0" on="1"/>
        <pt x="398" y="281" on="1"/>
        <pt x="130" y="281" on="1"/>
        <pt x="31" y="0" on="1"/>
        <pt x="12" y="0" on="1"/>
        <pt x="257" y="700" on="1"/>
        <pt x="271" y="700" on="1"/>
      </contour>
    </TTGlyph>
    <TTGlyph name="Alpha" xMin="12" yMin="0" xMax="517" yMax="700">
      <contour>
        <pt x="391" y="300" on="1"/>
        <pt x="264" y="660" on="1"/>
        <pt x="137" y="300" on="1"/>
      </contour>
      <contour>
        <pt x="517" y="0" on="1"/>
        <pt x="496" y="0" on="1"/>
        <pt x="398" y="281" on="1"/>
        <pt x="130" y="281" on="1"/>
        <pt x="31" y="0" on="1"/>
        <pt x="12" y="0" on="1"/>
        <pt x="257" y="700" on="1"/>
        <pt x="271" y="700" on="1"/>
      </contour>
    </TTGlyph>
    <TTGlyph name="Alphatonos" xMin="78" yMin="0" xMax="583" yMax="709">
      <contour>
        <pt x="133" y="568" on="1"/>
        <pt x="114" y="568" on="1"/>
        <pt x="169" y="696" on="1"/>
        <pt x="174" y="709" on="0"/>
        <pt x="184" y="709" on="1"/>
        <pt x="188" y="709" on="0"/>
        <pt x="192" y="707" on="1"/>
        <pt x="208" y="700" on="0"/>
        <pt x="196" y="681" on="1"/>
      </contour>
      <contour>
        <pt x="457" y="300" on="1"/>
        <pt x="330" y="660" on="1"/>
        <pt x="203" y="300" on="1"/>
      </contour>
      <contour>
        <pt x="583" y="0" on="1"/>
        <pt x="562" y="0" on="1"/>
        <pt x="464" y="281" on="1"/>
        <pt x="196" y="281" on="1"/>
        <pt x="97" y="0" on="1"/>
        <pt x="78" y="0" on="1"/>
        <pt x="323" y="700" on="1"/>
        <pt x="337" y="700" on="1"/>
      </contour>
    </TTGlyph>
    <TTGlyph name="Amacron" xMin="12" yMin="0" xMax="517" yMax="788">
      <contour>
        <pt x="368" y="769" on="1"/>
        <pt x="151" y="769" on="1"/>
        <pt x="151" y="788" on="1"/>
        <pt x="368" y="788" on="1"/>
      </contour>
      <contour>
        <pt x="391" y="300" on="1"/>
        <pt x="264" y="660" on="1"/>
        <pt x="137" y="300" on="1"/>
      </contour>
      <contour>
        <pt x="517" y="0" on="1"/>
        <pt x="496" y="0" on="1"/>
        <pt x="398" y="281" on="1"/>
        <pt x="130" y="281" on="1"/>
        <pt x="31" y="0" on="1"/>
        <pt x="12" y="0" on="1"/>
        <pt x="257" y="700" on="1"/>
        <pt x="271" y="700" on="1"/>
      </contour>
    </TTGlyph>
    <TTGlyph name="Aogonek" xMin="78" yMin="-213" xMax="651" yMax="700">
      <contour>
        <pt x="457" y="300" on="1"/>
        <pt x="330" y="660" on="1"/>
        <pt x="203" y="300" on="1"/>
      </contour>
      <contour>
        <pt x="635" y="-147" on="1"/>
        <pt x="651" y="-163" on="1"/>
        <pt x="619" y="-213" on="0"/>
        <pt x="555" y="-213" on="1"/>
        <pt x="530" y="-213" on="0"/>
        <pt x="506" y="-202" on="1"/>
        <pt x="462" y="-181" on="0"/>
        <pt x="462" y="-128" on="1"/>
        <pt x="462" y="-65" on="0"/>
        <pt x="558" y="0" on="1"/>
        <pt x="562" y="0" on="1"/>
        <pt x="464" y="281" on="1"/>
        <pt x="196" y="281" on="1"/>
        <pt x="97" y="0" on="1"/>
        <pt x="78" y="0" on="1"/>
        <pt x="323" y="700" on="1"/>
        <pt x="337" y="700" on="1"/>
        <pt x="583" y="0" on="1"/>
        <pt x="582" y="0" on="1"/>
        <pt x="482" y="-68" on="0"/>
        <pt x="482" y="-130" on="1"/>
        <pt x="482" y="-157" on="0"/>
        <pt x="525" y="-193" on="0"/>
        <pt x="555" y="-193" on="1"/>
        <pt x="606" y="-193" on="0"/>
      </contour>
    </TTGlyph>
    <TTGlyph name="Aring" xMin="12" yMin="0" xMax="517" yMax="888">
      <contour>
        <pt x="271" y="700" on="1"/>
        <pt x="271" y="698" on="1"/>
        <pt x="303" y="702" on="0"/>
        <pt x="346" y="750" on="0"/>
        <pt x="346" y="819" on="0"/>
        <pt x="297" y="868" on="0"/>
        <pt x="226" y="868" on="0"/>
        <pt x="176" y="819" on="0"/>
        <pt x="176" y="749" on="0"/>
        <pt x="222" y="700" on="0"/>
        <pt x="256" y="698" on="1"/>
        <pt x="257" y="700" on="1"/>
      </contour>
      <contour>
        <pt x="391" y="300" on="1"/>
        <pt x="264" y="660" on="1"/>
        <pt x="137" y="300" on="1"/>
      </contour>
      <contour>
        <pt x="517" y="0" on="1"/>
        <pt x="496" y="0" on="1"/>
        <pt x="398" y="281" on="1"/>
        <pt x="130" y="281" on="1"/>
        <pt x="31" y="0" on="1"/>
        <pt x="12" y="0" on="1"/>
        <pt x="249" y="679" on="1"/>
        <pt x="210" y="684" on="0"/>
        <pt x="156" y="743" on="0"/>
        <pt x="156" y="826" on="0"/>
        <pt x="218" y="888" on="0"/>
        <pt x="304" y="888" on="0"/>
        <pt x="366" y="826" on="0"/>
        <pt x="366" y="744" on="0"/>
        <pt x="316" y="686" on="0"/>
        <pt x="278" y="679" on="1"/>
      </contour>
    </TTGlyph>
    <TTGlyph name="Atilde" xMin="12" yMin="0" xMax="517" yMax="825">
      <contour>
        <pt x="195" y="825" on="1"/>
        <pt x="222" y="825" on="0"/>
        <pt x="287" y="793" on="1"/>
        <pt x="312" y="781" on="0"/>
        <pt x="376" y="781" on="0"/>
        <pt x="407" y="813" on="1"/>
        <pt x="417" y="796" on="1"/>
        <pt x="379" y="761" on="0"/>
        <pt x="335" y="761" on="1"/>
        <pt x="309" y="761" on="0"/>
        <pt x="259" y="784" on="0"/>
        <pt x="212" y="804" on="0"/>
        <pt x="191" y="804" on="1"/>
        <pt x="145" y="804" on="0"/>
        <pt x="107" y="760" on="1"/>
        <pt x="96" y="776" on="1"/>
        <pt x="143" y="825" on="0"/>
      </contour>
      <contour>
        <pt x="391" y="300" on="1"/>
        <pt x="264" y="660" on="1"/>
        <pt x="137" y="300" on="1"/>
      </contour>
      <contour>
        <pt x="517" y="0" on="1"/>
        <pt x="496" y="0" on="1"/>
        <pt x="398" y="281" on="1"/>
        <pt x="130" y="281" on="1"/>
        <pt x="31" y="0" on="1"/>
        <pt x="12" y="0" on="1"/>
        <pt x="257" y="700" on="1"/>
        <pt x="271" y="700" on="1"/>
      </contour>
    </TTGlyph>
    <TTGlyph name="B" xMin="78" yMin="0" xMax="511" yMax="700">
      <contour>
        <pt x="97" y="19" on="1"/>
        <pt x="306" y="19" on="1"/>
        <pt x="396" y="19" on="0"/>
        <pt x="492" y="119" on="0"/>
        <pt x="492" y="291" on="0"/>
        <pt x="395" y="394" on="0"/>
        <pt x="309" y="394" on="1"/>
        <pt x="97" y="394" on="1"/>
      </contour>
      <contour>
        <pt x="97" y="413" on="1"/>
        <pt x="335" y="413" on="1"/>
        <pt x="380" y="413" on="0"/>
        <pt x="416" y="446" on="1"/>
        <pt x="456" y="481" on="0"/>
        <pt x="456" y="605" on="0"/>
        <pt x="376" y="681" on="0"/>
        <pt x="291" y="681" on="1"/>
        <pt x="97" y="681" on="1"/>
      </contour>
      <contour>
        <pt x="308" y="0" on="1"/>
        <pt x="78" y="0" on="1"/>
        <pt x="78" y="700" on="1"/>
        <pt x="299" y="700" on="1"/>
        <pt x="381" y="700" on="0"/>
        <pt x="475" y="617" on="0"/>
        <pt x="475" y="540" on="1"/>
        <pt x="475" y="496" on="0"/>
        <pt x="427" y="419" on="0"/>
        <pt x="388" y="404" on="1"/>
        <pt x="387" y="403" on="0"/>
        <pt x="387" y="402" on="1"/>
        <pt x="387" y="401" on="1"/>
        <pt x="511" y="352" on="0"/>
        <pt x="511" y="209" on="1"/>
        <pt x="511" y="129" on="0"/>
        <pt x="470" y="70" on="1"/>
        <pt x="449" y="38" on="0"/>
        <pt x="366" y="0" on="0"/>
      </contour>
    </TTGlyph>
    <TTGlyph name="Beta" xMin="78" yMin="0" xMax="511" yMax="700">
      <contour>
        <pt x="97" y="19" on="1"/>
        <pt x="306" y="19" on="1"/>
        <pt x="396" y="19" on="0"/>
        <pt x="492" y="119" on="0"/>
        <pt x="492" y="291" on="0"/>
        <pt x="395" y="394" on="0"/>
        <pt x="309" y="394" on="1"/>
        <pt x="97" y="394" on="1"/>
      </contour>
      <contour>
        <pt x="97" y="413" on="1"/>
        <pt x="335" y="413" on="1"/>
        <pt x="380" y="413" on="0"/>
        <pt x="416" y="446" on="1"/>
        <pt x="456" y="481" on="0"/>
        <pt x="456" y="605" on="0"/>
        <pt x="376" y="681" on="0"/>
        <pt x="291" y="681" on="1"/>
        <pt x="97" y="681" on="1"/>
      </contour>
      <contour>
        <pt x="308" y="0" on="1"/>
        <pt x="78" y="0" on="1"/>
        <pt x="78" y="700" on="1"/>
        <pt x="299" y="700" on="1"/>
        <pt x="381" y="700" on="0"/>
        <pt x="475" y="617" on="0"/>
        <pt x="475" y="540" on="1"/>
        <pt x="475" y="496" on="0"/>
        <pt x="427" y="419" on="0"/>
        <pt x="388" y="404" on="1"/>
        <pt x="387" y="403" on="0"/>
        <pt x="387" y="402" on="1"/>
        <pt x="387" y="401" on="1"/>
        <pt x="511" y="352" on="0"/>
        <pt x="511" y="209" on="1"/>
        <pt x="511" y="129" on="0"/>
        <pt x="470" y="70" on="1"/>
        <pt x="449" y="38" on="0"/>
        <pt x="366" y="0" on="0"/>
      </contour>
    </TTGlyph>
    <TTGlyph name="C" xMin="66" yMin="-10" xMax="427" yMax="710">
      <contour>
        <pt x="260" y="7" on="1"/>
        <pt x="333" y="7" on="0"/>
        <pt x="421" y="41" on="1"/>
        <pt x="427" y="23" on="1"/>
        <pt x="342" y="-10" on="0"/>
        <pt x="265" y="-10" on="1"/>
        <pt x="249" y="-10" on="0"/>
        <pt x="184" y="-4" on="0"/>
        <pt x="111" y="35" on="0"/>
        <pt x="66" y="120" on="0"/>
        <pt x="66" y="183" on="1"/>
        <pt x="66" y="504" on="1"/>
        <pt x="66" y="580" on="0"/>
        <pt x="109" y="658" on="0"/>
        <pt x="153" y="685" on="1"/>
        <pt x="197" y="710" on="0"/>
        <pt x="260" y="710" on="1"/>
        <pt x="341" y="710" on="0"/>
        <pt x="402" y="677" on="1"/>
        <pt x="394" y="660" on="1"/>
        <pt x="324" y="691" on="0"/>
        <pt x="263" y="691" on="1"/>
        <pt x="218" y="691" on="0"/>
        <pt x="150" y="664" on="0"/>
        <pt x="112" y="627" on="0"/>
        <pt x="85" y="559" on="0"/>
        <pt x="85" y="513" on="1"/>
        <pt x="85" y="185" on="1"/>
        <pt x="85" y="120" on="0"/>
        <pt x="138" y="35" on="0"/>
        <pt x="218" y="7" on="0"/>
      </contour>
    </TTGlyph>
    <TTGlyph name="Cacute" xMin="66" yMin="-10" xMax="427" yMax="875">
      <contour>
        <pt x="253" y="734" on="1"/>
        <pt x="234" y="734" on="1"/>
        <pt x="289" y="862" on="1"/>
        <pt x="294" y="875" on="0"/>
        <pt x="304" y="875" on="1"/>
        <pt x="308" y="875" on="0"/>
        <pt x="312" y="873" on="1"/>
        <pt x="328" y="866" on="0"/>
        <pt x="316" y="847" on="1"/>
      </contour>
      <contour>
        <pt x="260" y="7" on="1"/>
        <pt x="333" y="7" on="0"/>
        <pt x="421" y="41" on="1"/>
        <pt x="427" y="23" on="1"/>
        <pt x="342" y="-10" on="0"/>
        <pt x="265" y="-10" on="1"/>
        <pt x="249" y="-10" on="0"/>
        <pt x="184" y="-4" on="0"/>
        <pt x="111" y="35" on="0"/>
        <pt x="66" y="120" on="0"/>
        <pt x="66" y="183" on="1"/>
        <pt x="66" y="504" on="1"/>
        <pt x="66" y="580" on="0"/>
        <pt x="109" y="658" on="0"/>
        <pt x="153" y="685" on="1"/>
        <pt x="197" y="710" on="0"/>
        <pt x="260" y="710" on="1"/>
        <pt x="341" y="710" on="0"/>
        <pt x="402" y="677" on="1"/>
        <pt x="394" y="660" on="1"/>
        <pt x="324" y="691" on="0"/>
        <pt x="263" y="691" on="1"/>
        <pt x="218" y="691" on="0"/>
        <pt x="150" y="664" on="0"/>
        <pt x="112" y="627" on="0"/>
        <pt x="85" y="559" on="0"/>
        <pt x="85" y="513" on="1"/>
        <pt x="85" y="185" on="1"/>
        <pt x="85" y="120" on="0"/>
        <pt x="138" y="35" on="0"/>
        <pt x="218" y="7" on="0"/>
      </contour>
    </TTGlyph>
    <TTGlyph name="Ccaron" xMin="66" yMin="-10" xMax="427" yMax="889">
      <contour>
        <pt x="398" y="874" on="1"/>
        <pt x="256" y="733" on="1"/>
        <pt x="108" y="874" on="1"/>
        <pt x="123" y="889" on="1"/>
        <pt x="255" y="763" on="1"/>
        <pt x="383" y="889" on="1"/>
      </contour>
      <contour>
        <pt x="260" y="7" on="1"/>
        <pt x="333" y="7" on="0"/>
        <pt x="421" y="41" on="1"/>
        <pt x="427" y="23" on="1"/>
        <pt x="342" y="-10" on="0"/>
        <pt x="265" y="-10" on="1"/>
        <pt x="249" y="-10" on="0"/>
        <pt x="184" y="-4" on="0"/>
        <pt x="111" y="35" on="0"/>
        <pt x="66" y="120" on="0"/>
        <pt x="66" y="183" on="1"/>
        <pt x="66" y="504" on="1"/>
        <pt x="66" y="580" on="0"/>
        <pt x="109" y="658" on="0"/>
        <pt x="153" y="685" on="1"/>
        <pt x="197" y="710" on="0"/>
        <pt x="260" y="710" on="1"/>
        <pt x="341" y="710" on="0"/>
        <pt x="402" y="677" on="1"/>
        <pt x="394" y="660" on="1"/>
        <pt x="324" y="691" on="0"/>
        <pt x="263" y="691" on="1"/>
        <pt x="218" y="691" on="0"/>
        <pt x="150" y="664" on="0"/>
        <pt x="112" y="627" on="0"/>
        <pt x="85" y="559" on="0"/>
        <pt x="85" y="513" on="1"/>
        <pt x="85" y="185" on="1"/>
        <pt x="85" y="120" on="0"/>
        <pt x="138" y="35" on="0"/>
        <pt x="218" y="7" on="0"/>
      </contour>
    </TTGlyph>
    <TTGlyph name="Ccedilla" xMin="66" yMin="-210" xMax="427" yMax="710">
      <contour>
        <pt x="260" y="7" on="1"/>
        <pt x="333" y="7" on="0"/>
        <pt x="421" y="41" on="1"/>
        <pt x="427" y="23" on="1"/>
        <pt x="340" y="-10" on="0"/>
        <pt x="261" y="-10" on="1"/>
        <pt x="252" y="-10" on="0"/>
        <pt x="244" y="-10" on="1"/>
        <pt x="210" y="-56" on="1"/>
        <pt x="229" y="-46" on="0"/>
        <pt x="294" y="-46" on="0"/>
        <pt x="351" y="-78" on="0"/>
        <pt x="351" y="-169" on="0"/>
        <pt x="277" y="-210" on="0"/>
        <pt x="187" y="-210" on="0"/>
        <pt x="135" y="-191" on="1"/>
        <pt x="145" y="-170" on="1"/>
        <pt x="181" y="-193" on="0"/>
        <pt x="271" y="-193" on="0"/>
        <pt x="332" y="-156" on="0"/>
        <pt x="332" y="-84" on="0"/>
        <pt x="297" y="-70" on="1"/>
        <pt x="281" y="-64" on="0"/>
        <pt x="242" y="-64" on="0"/>
        <pt x="218" y="-73" on="1"/>
        <pt x="177" y="-88" on="1"/>
        <pt x="171" y="-78" on="1"/>
        <pt x="225" y="-8" on="1"/>
        <pt x="153" y="0" on="0"/>
        <pt x="66" y="92" on="0"/>
        <pt x="66" y="183" on="1"/>
        <pt x="66" y="504" on="1"/>
        <pt x="66" y="580" on="0"/>
        <pt x="109" y="658" on="0"/>
        <pt x="153" y="685" on="1"/>
        <pt x="197" y="710" on="0"/>
        <pt x="260" y="710" on="1"/>
        <pt x="341" y="710" on="0"/>
        <pt x="402" y="677" on="1"/>
        <pt x="394" y="660" on="1"/>
        <pt x="324" y="691" on="0"/>
        <pt x="263" y="691" on="1"/>
        <pt x="218" y="691" on="0"/>
        <pt x="150" y="664" on="0"/>
        <pt x="112" y="627" on="0"/>
        <pt x="85" y="559" on="0"/>
        <pt x="85" y="513" on="1"/>
        <pt x="85" y="185" on="1"/>
        <pt x="85" y="120" on="0"/>
        <pt x="138" y="35" on="0"/>
        <pt x="218" y="7" on="0"/>
      </contour>
    </TTGlyph>
    <TTGlyph name="Ccircumflex" xMin="66" yMin="-10" xMax="427" yMax="913">
      <contour>
        <pt x="260" y="7" on="1"/>
        <pt x="333" y="7" on="0"/>
        <pt x="421" y="41" on="1"/>
        <pt x="427" y="23" on="1"/>
        <pt x="342" y="-10" on="0"/>
        <pt x="265" y="-10" on="1"/>
        <pt x="249" y="-10" on="0"/>
        <pt x="184" y="-4" on="0"/>
        <pt x="111" y="35" on="0"/>
        <pt x="66" y="120" on="0"/>
        <pt x="66" y="183" on="1"/>
        <pt x="66" y="504" on="1"/>
        <pt x="66" y="580" on="0"/>
        <pt x="109" y="658" on="0"/>
        <pt x="153" y="685" on="1"/>
        <pt x="197" y="710" on="0"/>
        <pt x="260" y="710" on="1"/>
        <pt x="341" y="710" on="0"/>
        <pt x="402" y="677" on="1"/>
        <pt x="394" y="660" on="1"/>
        <pt x="324" y="691" on="0"/>
        <pt x="263" y="691" on="1"/>
        <pt x="218" y="691" on="0"/>
        <pt x="150" y="664" on="0"/>
        <pt x="112" y="627" on="0"/>
        <pt x="85" y="559" on="0"/>
        <pt x="85" y="513" on="1"/>
        <pt x="85" y="185" on="1"/>
        <pt x="85" y="120" on="0"/>
        <pt x="138" y="35" on="0"/>
        <pt x="218" y="7" on="0"/>
      </contour>
      <contour>
        <pt x="421" y="772" on="1"/>
        <pt x="404" y="756" on="1"/>
        <pt x="278" y="883" on="1"/>
        <pt x="147" y="756" on="1"/>
        <pt x="131" y="772" on="1"/>
        <pt x="279" y="913" on="1"/>
      </contour>
    </TTGlyph>
    <TTGlyph name="Cdotaccent" xMin="66" yMin="-10" xMax="427" yMax="797">
      <contour>
        <pt x="279" y="770" on="0"/>
        <pt x="252" y="770" on="0"/>
        <pt x="252" y="797" on="0"/>
        <pt x="279" y="797" on="0"/>
      </contour>
      <contour>
        <pt x="260" y="7" on="1"/>
        <pt x="333" y="7" on="0"/>
        <pt x="421" y="41" on="1"/>
        <pt x="427" y="23" on="1"/>
        <pt x="342" y="-10" on="0"/>
        <pt x="265" y="-10" on="1"/>
        <pt x="249" y="-10" on="0"/>
        <pt x="184" y="-4" on="0"/>
        <pt x="111" y="35" on="0"/>
        <pt x="66" y="120" on="0"/>
        <pt x="66" y="183" on="1"/>
        <pt x="66" y="504" on="1"/>
        <pt x="66" y="580" on="0"/>
        <pt x="109" y="658" on="0"/>
        <pt x="153" y="685" on="1"/>
        <pt x="197" y="710" on="0"/>
        <pt x="260" y="710" on="1"/>
        <pt x="341" y="710" on="0"/>
        <pt x="402" y="677" on="1"/>
        <pt x="394" y="660" on="1"/>
        <pt x="324" y="691" on="0"/>
        <pt x="263" y="691" on="1"/>
        <pt x="218" y="691" on="0"/>
        <pt x="150" y="664" on="0"/>
        <pt x="112" y="627" on="0"/>
        <pt x="85" y="559" on="0"/>
        <pt x="85" y="513" on="1"/>
        <pt x="85" y="185" on="1"/>
        <pt x="85" y="120" on="0"/>
        <pt x="138" y="35" on="0"/>
        <pt x="218" y="7" on="0"/>
      </contour>
    </TTGlyph>
    <TTGlyph name="Chi" xMin="78" yMin="0" xMax="585" yMax="700">
      <contour>
        <pt x="585" y="3" on="1"/>
        <pt x="563" y="0" on="1"/>
        <pt x="332" y="346" on="1"/>
        <pt x="103" y="0" on="1"/>
        <pt x="78" y="0" on="1"/>
        <pt x="321" y="364" on="1"/>
        <pt x="97" y="700" on="1"/>
        <pt x="119" y="700" on="1"/>
        <pt x="332" y="382" on="1"/>
        <pt x="545" y="700" on="1"/>
        <pt x="569" y="700" on="1"/>
        <pt x="345" y="364" on="1"/>
      </contour>
    </TTGlyph>
    <TTGlyph name="D" xMin="78" yMin="0" xMax="498" yMax="701">
      <contour>
        <pt x="479" y="214" on="1"/>
        <pt x="479" y="468" on="1"/>
        <pt x="479" y="575" on="0"/>
        <pt x="362" y="680" on="0"/>
        <pt x="276" y="680" on="1"/>
        <pt x="97" y="680" on="1"/>
        <pt x="97" y="20" on="1"/>
        <pt x="276" y="20" on="1"/>
        <pt x="305" y="20" on="0"/>
        <pt x="347" y="24" on="0"/>
        <pt x="410" y="45" on="0"/>
        <pt x="449" y="84" on="0"/>
        <pt x="479" y="161" on="0"/>
      </contour>
      <contour>
        <pt x="286" y="0" on="1"/>
        <pt x="78" y="0" on="1"/>
        <pt x="78" y="701" on="1"/>
        <pt x="266" y="701" on="1"/>
        <pt x="379" y="701" on="0"/>
        <pt x="498" y="577" on="0"/>
        <pt x="498" y="474" on="1"/>
        <pt x="498" y="200" on="1"/>
        <pt x="498" y="0" on="0"/>
      </contour>
    </TTGlyph>
    <TTGlyph name="Dcaron" xMin="78" yMin="0" xMax="498" yMax="890">
      <contour>
        <pt x="416" y="875" on="1"/>
        <pt x="274" y="734" on="1"/>
        <pt x="126" y="875" on="1"/>
        <pt x="141" y="890" on="1"/>
        <pt x="273" y="764" on="1"/>
        <pt x="401" y="890" on="1"/>
      </contour>
      <contour>
        <pt x="479" y="214" on="1"/>
        <pt x="479" y="468" on="1"/>
        <pt x="479" y="575" on="0"/>
        <pt x="362" y="680" on="0"/>
        <pt x="276" y="680" on="1"/>
        <pt x="97" y="680" on="1"/>
        <pt x="97" y="20" on="1"/>
        <pt x="276" y="20" on="1"/>
        <pt x="305" y="20" on="0"/>
        <pt x="347" y="24" on="0"/>
        <pt x="410" y="45" on="0"/>
        <pt x="449" y="84" on="0"/>
        <pt x="479" y="161" on="0"/>
      </contour>
      <contour>
        <pt x="286" y="0" on="1"/>
        <pt x="78" y="0" on="1"/>
        <pt x="78" y="701" on="1"/>
        <pt x="266" y="701" on="1"/>
        <pt x="379" y="701" on="0"/>
        <pt x="498" y="577" on="0"/>
        <pt x="498" y="474" on="1"/>
        <pt x="498" y="200" on="1"/>
        <pt x="498" y="0" on="0"/>
      </contour>
    </TTGlyph>
    <TTGlyph name="Dcroat" xMin="78" yMin="0" xMax="498" yMax="788">
      <contour>
        <pt x="392" y="769" on="1"/>
        <pt x="175" y="769" on="1"/>
        <pt x="175" y="788" on="1"/>
        <pt x="392" y="788" on="1"/>
      </contour>
      <contour>
        <pt x="479" y="214" on="1"/>
        <pt x="479" y="468" on="1"/>
        <pt x="479" y="575" on="0"/>
        <pt x="362" y="680" on="0"/>
        <pt x="276" y="680" on="1"/>
        <pt x="97" y="680" on="1"/>
        <pt x="97" y="20" on="1"/>
        <pt x="276" y="20" on="1"/>
        <pt x="305" y="20" on="0"/>
        <pt x="347" y="24" on="0"/>
        <pt x="410" y="45" on="0"/>
        <pt x="449" y="84" on="0"/>
        <pt x="479" y="161" on="0"/>
      </contour>
      <contour>
        <pt x="286" y="0" on="1"/>
        <pt x="78" y="0" on="1"/>
        <pt x="78" y="701" on="1"/>
        <pt x="266" y="701" on="1"/>
        <pt x="379" y="701" on="0"/>
        <pt x="498" y="577" on="0"/>
        <pt x="498" y="474" on="1"/>
        <pt x="498" y="200" on="1"/>
        <pt x="498" y="0" on="0"/>
      </contour>
    </TTGlyph>
    <TTGlyph name="Delta" xMin="78" yMin="0" xMax="583" yMax="700">
      <contour>
        <pt x="556" y="19" on="1"/>
        <pt x="328" y="674" on="1"/>
        <pt x="105" y="19" on="1"/>
      </contour>
      <contour>
        <pt x="583" y="0" on="1"/>
        <pt x="78" y="0" on="1"/>
        <pt x="318" y="700" on="1"/>
        <pt x="337" y="700" on="1"/>
      </contour>
    </TTGlyph>
    <TTGlyph name="E" xMin="78" yMin="0" xMax="412" yMax="700">
      <contour>
        <pt x="410" y="0" on="1"/>
        <pt x="78" y="0" on="1"/>
        <pt x="78" y="700" on="1"/>
        <pt x="412" y="700" on="1"/>
        <pt x="412" y="681" on="1"/>
        <pt x="97" y="681" on="1"/>
        <pt x="97" y="413" on="1"/>
        <pt x="325" y="413" on="1"/>
        <pt x="318" y="394" on="1"/>
        <pt x="97" y="394" on="1"/>
        <pt x="97" y="19" on="1"/>
        <pt x="410" y="19" on="1"/>
      </contour>
    </TTGlyph>
    <TTGlyph name="Eacute" xMin="78" yMin="0" xMax="412" yMax="871">
      <contour>
        <pt x="256" y="730" on="1"/>
        <pt x="237" y="730" on="1"/>
        <pt x="292" y="858" on="1"/>
        <pt x="297" y="871" on="0"/>
        <pt x="307" y="871" on="1"/>
        <pt x="311" y="871" on="0"/>
        <pt x="315" y="869" on="1"/>
        <pt x="331" y="862" on="0"/>
        <pt x="319" y="843" on="1"/>
      </contour>
      <contour>
        <pt x="410" y="0" on="1"/>
        <pt x="78" y="0" on="1"/>
        <pt x="78" y="700" on="1"/>
        <pt x="412" y="700" on="1"/>
        <pt x="412" y="681" on="1"/>
        <pt x="97" y="681" on="1"/>
        <pt x="97" y="413" on="1"/>
        <pt x="325" y="413" on="1"/>
        <pt x="318" y="394" on="1"/>
        <pt x="97" y="394" on="1"/>
        <pt x="97" y="19" on="1"/>
        <pt x="410" y="19" on="1"/>
      </contour>
    </TTGlyph>
    <TTGlyph name="Ecaron" xMin="78" yMin="0" xMax="412" yMax="890">
      <contour>
        <pt x="391" y="875" on="1"/>
        <pt x="249" y="734" on="1"/>
        <pt x="101" y="875" on="1"/>
        <pt x="116" y="890" on="1"/>
        <pt x="248" y="764" on="1"/>
        <pt x="376" y="890" on="1"/>
      </contour>
      <contour>
        <pt x="410" y="0" on="1"/>
        <pt x="78" y="0" on="1"/>
        <pt x="78" y="700" on="1"/>
        <pt x="412" y="700" on="1"/>
        <pt x="412" y="681" on="1"/>
        <pt x="97" y="681" on="1"/>
        <pt x="97" y="413" on="1"/>
        <pt x="325" y="413" on="1"/>
        <pt x="318" y="394" on="1"/>
        <pt x="97" y="394" on="1"/>
        <pt x="97" y="19" on="1"/>
        <pt x="410" y="19" on="1"/>
      </contour>
    </TTGlyph>
    <TTGlyph name="Ecircumflex" xMin="78" yMin="0" xMax="412" yMax="913">
      <contour>
        <pt x="384" y="772" on="1"/>
        <pt x="367" y="756" on="1"/>
        <pt x="241" y="883" on="1"/>
        <pt x="110" y="756" on="1"/>
        <pt x="94" y="772" on="1"/>
        <pt x="242" y="913" on="1"/>
      </contour>
      <contour>
        <pt x="410" y="0" on="1"/>
        <pt x="78" y="0" on="1"/>
        <pt x="78" y="700" on="1"/>
        <pt x="412" y="700" on="1"/>
        <pt x="412" y="681" on="1"/>
        <pt x="97" y="681" on="1"/>
        <pt x="97" y="413" on="1"/>
        <pt x="325" y="413" on="1"/>
        <pt x="318" y="394" on="1"/>
        <pt x="97" y="394" on="1"/>
        <pt x="97" y="19" on="1"/>
        <pt x="410" y="19" on="1"/>
      </contour>
    </TTGlyph>
    <TTGlyph name="Edieresis" xMin="78" yMin="0" xMax="412" yMax="700">
      <contour>
        <pt x="410" y="0" on="1"/>
        <pt x="78" y="0" on="1"/>
        <pt x="78" y="700" on="1"/>
        <pt x="412" y="700" on="1"/>
        <pt x="412" y="681" on="1"/>
        <pt x="97" y="681" on="1"/>
        <pt x="97" y="413" on="1"/>
        <pt x="325" y="413" on="1"/>
        <pt x="318" y="394" on="1"/>
        <pt x="97" y="394" on="1"/>
        <pt x="97" y="19" on="1"/>
        <pt x="410" y="19" on="1"/>
      </contour>
    </TTGlyph>
    <TTGlyph name="Edotaccent" xMin="78" yMin="0" xMax="412" yMax="797">
      <contour>
        <pt x="269" y="770" on="0"/>
        <pt x="242" y="770" on="0"/>
        <pt x="242" y="797" on="0"/>
        <pt x="269" y="797" on="0"/>
      </contour>
      <contour>
        <pt x="410" y="0" on="1"/>
        <pt x="78" y="0" on="1"/>
        <pt x="78" y="700" on="1"/>
        <pt x="412" y="700" on="1"/>
        <pt x="412" y="681" on="1"/>
        <pt x="97" y="681" on="1"/>
        <pt x="97" y="413" on="1"/>
        <pt x="325" y="413" on="1"/>
        <pt x="318" y="394" on="1"/>
        <pt x="97" y="394" on="1"/>
        <pt x="97" y="19" on="1"/>
        <pt x="410" y="19" on="1"/>
      </contour>
    </TTGlyph>
    <TTGlyph name="Egrave" xMin="78" yMin="0" xMax="412" yMax="871">
      <contour>
        <pt x="270" y="730" on="1"/>
        <pt x="251" y="730" on="1"/>
        <pt x="188" y="843" on="1"/>
        <pt x="176" y="862" on="0"/>
        <pt x="192" y="869" on="1"/>
        <pt x="196" y="871" on="0"/>
        <pt x="200" y="871" on="1"/>
        <pt x="210" y="871" on="0"/>
        <pt x="215" y="858" on="1"/>
      </contour>
      <contour>
        <pt x="410" y="0" on="1"/>
        <pt x="78" y="0" on="1"/>
        <pt x="78" y="700" on="1"/>
        <pt x="412" y="700" on="1"/>
        <pt x="412" y="681" on="1"/>
        <pt x="97" y="681" on="1"/>
        <pt x="97" y="413" on="1"/>
        <pt x="325" y="413" on="1"/>
        <pt x="318" y="394" on="1"/>
        <pt x="97" y="394" on="1"/>
        <pt x="97" y="19" on="1"/>
        <pt x="410" y="19" on="1"/>
      </contour>
    </TTGlyph>
    <TTGlyph name="Emacron" xMin="78" yMin="0" xMax="412" yMax="788">
      <contour>
        <pt x="352" y="769" on="1"/>
        <pt x="135" y="769" on="1"/>
        <pt x="135" y="788" on="1"/>
        <pt x="352" y="788" on="1"/>
      </contour>
      <contour>
        <pt x="410" y="0" on="1"/>
        <pt x="78" y="0" on="1"/>
        <pt x="78" y="700" on="1"/>
        <pt x="412" y="700" on="1"/>
        <pt x="412" y="681" on="1"/>
        <pt x="97" y="681" on="1"/>
        <pt x="97" y="413" on="1"/>
        <pt x="325" y="413" on="1"/>
        <pt x="318" y="394" on="1"/>
        <pt x="97" y="394" on="1"/>
        <pt x="97" y="19" on="1"/>
        <pt x="410" y="19" on="1"/>
      </contour>
    </TTGlyph>
    <TTGlyph name="Eng" xMin="78" yMin="-37" xMax="570" yMax="700">
      <contour>
        <pt x="466" y="-37" on="1"/>
        <pt x="460" y="-19" on="1"/>
        <pt x="510" y="-11" on="0"/>
        <pt x="533" y="28" on="1"/>
        <pt x="460" y="135" on="0"/>
        <pt x="169" y="563" on="0"/>
        <pt x="96" y="670" on="1"/>
        <pt x="96" y="0" on="1"/>
        <pt x="78" y="0" on="1"/>
        <pt x="78" y="700" on="1"/>
        <pt x="96" y="700" on="1"/>
        <pt x="171" y="592" on="0"/>
        <pt x="469" y="154" on="0"/>
        <pt x="543" y="46" on="1"/>
        <pt x="552" y="73" on="0"/>
        <pt x="552" y="122" on="1"/>
        <pt x="552" y="679" on="1"/>
        <pt x="468" y="681" on="1"/>
        <pt x="468" y="700" on="1"/>
        <pt x="570" y="700" on="1"/>
        <pt x="570" y="122" on="1"/>
        <pt x="570" y="47" on="0"/>
        <pt x="522" y="-27" on="0"/>
      </contour>
    </TTGlyph>
    <TTGlyph name="Eogonek" xMin="78" yMin="-213" xMax="479" yMax="700">
      <contour>
        <pt x="463" y="-147" on="1"/>
        <pt x="479" y="-163" on="1"/>
        <pt x="447" y="-213" on="0"/>
        <pt x="383" y="-213" on="1"/>
        <pt x="358" y="-213" on="0"/>
        <pt x="334" y="-202" on="1"/>
        <pt x="290" y="-181" on="0"/>
        <pt x="290" y="-128" on="1"/>
        <pt x="290" y="-65" on="0"/>
        <pt x="386" y="0" on="1"/>
        <pt x="78" y="0" on="1"/>
        <pt x="78" y="700" on="1"/>
        <pt x="412" y="700" on="1"/>
        <pt x="412" y="681" on="1"/>
        <pt x="97" y="681" on="1"/>
        <pt x="97" y="413" on="1"/>
        <pt x="325" y="413" on="1"/>
        <pt x="318" y="394" on="1"/>
        <pt x="97" y="394" on="1"/>
        <pt x="97" y="19" on="1"/>
        <pt x="410" y="19" on="1"/>
        <pt x="410" y="0" on="1"/>
        <pt x="310" y="-68" on="0"/>
        <pt x="310" y="-130" on="1"/>
        <pt x="310" y="-157" on="0"/>
        <pt x="353" y="-193" on="0"/>
        <pt x="383" y="-193" on="1"/>
        <pt x="434" y="-193" on="0"/>
      </contour>
    </TTGlyph>
    <TTGlyph name="Epsilon" xMin="78" yMin="0" xMax="412" yMax="700">
      <contour>
        <pt x="410" y="0" on="1"/>
        <pt x="78" y="0" on="1"/>
        <pt x="78" y="700" on="1"/>
        <pt x="412" y="700" on="1"/>
        <pt x="412" y="681" on="1"/>
        <pt x="97" y="681" on="1"/>
        <pt x="97" y="413" on="1"/>
        <pt x="325" y="413" on="1"/>
        <pt x="318" y="394" on="1"/>
        <pt x="97" y="394" on="1"/>
        <pt x="97" y="19" on="1"/>
        <pt x="410" y="19" on="1"/>
      </contour>
    </TTGlyph>
    <TTGlyph name="Epsilontonos" xMin="78" yMin="0" xMax="579" yMax="709">
      <contour>
        <pt x="577" y="0" on="1"/>
        <pt x="245" y="0" on="1"/>
        <pt x="245" y="700" on="1"/>
        <pt x="579" y="700" on="1"/>
        <pt x="579" y="681" on="1"/>
        <pt x="264" y="681" on="1"/>
        <pt x="264" y="413" on="1"/>
        <pt x="492" y="413" on="1"/>
        <pt x="485" y="394" on="1"/>
        <pt x="264" y="394" on="1"/>
        <pt x="264" y="19" on="1"/>
        <pt x="577" y="19" on="1"/>
      </contour>
      <contour>
        <pt x="97" y="568" on="1"/>
        <pt x="78" y="568" on="1"/>
        <pt x="133" y="696" on="1"/>
        <pt x="138" y="709" on="0"/>
        <pt x="148" y="709" on="1"/>
        <pt x="165" y="709" on="0"/>
        <pt x="165" y="695" on="1"/>
        <pt x="165" y="689" on="0"/>
        <pt x="160" y="681" on="1"/>
      </contour>
    </TTGlyph>
    <TTGlyph name="Eta" xMin="80" yMin="0" xMax="510" yMax="700">
      <contour>
        <pt x="510" y="0" on="1"/>
        <pt x="491" y="0" on="1"/>
        <pt x="491" y="394" on="1"/>
        <pt x="99" y="394" on="1"/>
        <pt x="99" y="0" on="1"/>
        <pt x="80" y="0" on="1"/>
        <pt x="80" y="700" on="1"/>
        <pt x="99" y="700" on="1"/>
        <pt x="99" y="413" on="1"/>
        <pt x="491" y="413" on="1"/>
        <pt x="491" y="700" on="1"/>
        <pt x="510" y="700" on="1"/>
      </contour>
    </TTGlyph>
    <TTGlyph name="Etatonos" xMin="78" yMin="0" xMax="677" yMax="709">
      <contour>
        <pt x="677" y="0" on="1"/>
        <pt x="658" y="0" on="1"/>
        <pt x="658" y="394" on="1"/>
        <pt x="266" y="394" on="1"/>
        <pt x="266" y="0" on="1"/>
        <pt x="247" y="0" on="1"/>
        <pt x="247" y="700" on="1"/>
        <pt x="266" y="700" on="1"/>
        <pt x="266" y="413" on="1"/>
        <pt x="658" y="413" on="1"/>
        <pt x="658" y="700" on="1"/>
        <pt x="677" y="700" on="1"/>
      </contour>
      <contour>
        <pt x="97" y="568" on="1"/>
        <pt x="78" y="568" on="1"/>
        <pt x="133" y="696" on="1"/>
        <pt x="138" y="709" on="0"/>
        <pt x="148" y="709" on="1"/>
        <pt x="165" y="709" on="0"/>
        <pt x="165" y="695" on="1"/>
        <pt x="165" y="689" on="0"/>
        <pt x="160" y="681" on="1"/>
      </contour>
    </TTGlyph>
    <TTGlyph name="Eth" xMin="78" yMin="0" xMax="605" yMax="701">
      <contour>
        <pt x="325" y="680" on="1"/>
        <pt x="146" y="680" on="1"/>
        <pt x="146" y="538" on="1"/>
        <pt x="520" y="538" on="1"/>
        <pt x="502" y="610" on="0"/>
        <pt x="395" y="680" on="0"/>
      </contour>
      <contour>
        <pt x="528" y="214" on="1"/>
        <pt x="528" y="468" on="1"/>
        <pt x="528" y="487" on="0"/>
        <pt x="524" y="519" on="1"/>
        <pt x="146" y="519" on="1"/>
        <pt x="146" y="20" on="1"/>
        <pt x="325" y="20" on="1"/>
        <pt x="354" y="20" on="0"/>
        <pt x="396" y="24" on="0"/>
        <pt x="459" y="45" on="0"/>
        <pt x="498" y="84" on="0"/>
        <pt x="528" y="161" on="0"/>
      </contour>
      <contour>
        <pt x="335" y="0" on="1"/>
        <pt x="127" y="0" on="1"/>
        <pt x="127" y="519" on="1"/>
        <pt x="78" y="519" on="1"/>
        <pt x="78" y="538" on="1"/>
        <pt x="127" y="538" on="1"/>
        <pt x="127" y="701" on="1"/>
        <pt x="315" y="701" on="1"/>
        <pt x="408" y="701" on="0"/>
        <pt x="523" y="613" on="0"/>
        <pt x="540" y="538" on="1"/>
        <pt x="605" y="538" on="1"/>
        <pt x="605" y="519" on="1"/>
        <pt x="544" y="519" on="1"/>
        <pt x="547" y="496" on="0"/>
        <pt x="547" y="474" on="1"/>
        <pt x="547" y="200" on="1"/>
        <pt x="547" y="0" on="0"/>
      </contour>
    </TTGlyph>
    <TTGlyph name="Euro" xMin="78" yMin="-10" xMax="494" yMax="710">
      <contour>
        <pt x="327" y="7" on="1"/>
        <pt x="400" y="7" on="0"/>
        <pt x="488" y="41" on="1"/>
        <pt x="494" y="23" on="1"/>
        <pt x="409" y="-10" on="0"/>
        <pt x="332" y="-10" on="1"/>
        <pt x="316" y="-10" on="0"/>
        <pt x="251" y="-4" on="0"/>
        <pt x="178" y="35" on="0"/>
        <pt x="133" y="120" on="0"/>
        <pt x="133" y="183" on="1"/>
        <pt x="133" y="289" on="1"/>
        <pt x="78" y="289" on="1"/>
        <pt x="78" y="308" on="1"/>
        <pt x="133" y="308" on="1"/>
        <pt x="133" y="394" on="1"/>
        <pt x="78" y="394" on="1"/>
        <pt x="78" y="413" on="1"/>
        <pt x="133" y="413" on="1"/>
        <pt x="133" y="504" on="1"/>
        <pt x="133" y="580" on="0"/>
        <pt x="176" y="658" on="0"/>
        <pt x="220" y="685" on="1"/>
        <pt x="264" y="710" on="0"/>
        <pt x="327" y="710" on="1"/>
        <pt x="408" y="710" on="0"/>
        <pt x="469" y="677" on="1"/>
        <pt x="461" y="660" on="1"/>
        <pt x="391" y="691" on="0"/>
        <pt x="330" y="691" on="1"/>
        <pt x="285" y="691" on="0"/>
        <pt x="217" y="664" on="0"/>
        <pt x="179" y="627" on="0"/>
        <pt x="152" y="559" on="0"/>
        <pt x="152" y="513" on="1"/>
        <pt x="152" y="413" on="1"/>
        <pt x="398" y="413" on="1"/>
        <pt x="398" y="394" on="1"/>
        <pt x="152" y="394" on="1"/>
        <pt x="152" y="308" on="1"/>
        <pt x="398" y="308" on="1"/>
        <pt x="398" y="289" on="1"/>
        <pt x="152" y="289" on="1"/>
        <pt x="152" y="185" on="1"/>
        <pt x="152" y="120" on="0"/>
        <pt x="205" y="35" on="0"/>
        <pt x="285" y="7" on="0"/>
      </contour>
    </TTGlyph>
    <TTGlyph name="F" xMin="78" yMin="0" xMax="412" yMax="700">
      <contour>
        <pt x="98" y="0" on="1"/>
        <pt x="78" y="0" on="1"/>
        <pt x="78" y="700" on="1"/>
        <pt x="412" y="700" on="1"/>
        <pt x="412" y="680" on="1"/>
        <pt x="98" y="680" on="1"/>
        <pt x="98" y="413" on="1"/>
        <pt x="305" y="413" on="1"/>
        <pt x="297" y="394" on="1"/>
        <pt x="98" y="394" on="1"/>
      </contour>
    </TTGlyph>
    <TTGlyph name="G" xMin="65" yMin="-10" xMax="476" yMax="709">
      <contour>
        <pt x="394" y="659" on="1"/>
        <pt x="320" y="691" on="0"/>
        <pt x="262" y="691" on="1"/>
        <pt x="180" y="691" on="0"/>
        <pt x="133" y="646" on="1"/>
        <pt x="113" y="626" on="0"/>
        <pt x="84" y="549" on="0"/>
        <pt x="84" y="497" on="1"/>
        <pt x="84" y="187" on="1"/>
        <pt x="84" y="109" on="0"/>
        <pt x="188" y="9" on="0"/>
        <pt x="373" y="9" on="0"/>
        <pt x="457" y="109" on="0"/>
        <pt x="457" y="182" on="1"/>
        <pt x="457" y="281" on="1"/>
        <pt x="346" y="281" on="1"/>
        <pt x="338" y="300" on="1"/>
        <pt x="476" y="300" on="1"/>
        <pt x="476" y="0" on="1"/>
        <pt x="457" y="0" on="1"/>
        <pt x="457" y="88" on="1"/>
        <pt x="411" y="-10" on="0"/>
        <pt x="276" y="-10" on="1"/>
        <pt x="188" y="-10" on="0"/>
        <pt x="65" y="90" on="0"/>
        <pt x="65" y="189" on="1"/>
        <pt x="65" y="503" on="1"/>
        <pt x="65" y="631" on="0"/>
        <pt x="152" y="684" on="1"/>
        <pt x="197" y="709" on="0"/>
        <pt x="259" y="709" on="1"/>
        <pt x="336" y="709" on="0"/>
        <pt x="401" y="676" on="1"/>
      </contour>
    </TTGlyph>
    <TTGlyph name="Gamma" xMin="78" yMin="0" xMax="412" yMax="700">
      <contour>
        <pt x="97" y="0" on="1"/>
        <pt x="78" y="0" on="1"/>
        <pt x="78" y="700" on="1"/>
        <pt x="412" y="700" on="1"/>
        <pt x="412" y="680" on="1"/>
        <pt x="97" y="680" on="1"/>
      </contour>
    </TTGlyph>
    <TTGlyph name="Gbreve" xMin="65" yMin="-10" xMax="476" yMax="846">
      <contour>
        <pt x="389" y="846" on="1"/>
        <pt x="389" y="841" on="1"/>
        <pt x="389" y="794" on="0"/>
        <pt x="322" y="728" on="0"/>
        <pt x="230" y="728" on="0"/>
        <pt x="163" y="794" on="0"/>
        <pt x="163" y="841" on="1"/>
        <pt x="163" y="846" on="1"/>
        <pt x="184" y="846" on="1"/>
        <pt x="184" y="841" on="1"/>
        <pt x="184" y="808" on="0"/>
        <pt x="234" y="748" on="0"/>
        <pt x="316" y="748" on="0"/>
        <pt x="368" y="809" on="0"/>
        <pt x="368" y="841" on="1"/>
        <pt x="368" y="846" on="1"/>
      </contour>
      <contour>
        <pt x="394" y="659" on="1"/>
        <pt x="320" y="691" on="0"/>
        <pt x="262" y="691" on="1"/>
        <pt x="180" y="691" on="0"/>
        <pt x="133" y="646" on="1"/>
        <pt x="113" y="626" on="0"/>
        <pt x="84" y="549" on="0"/>
        <pt x="84" y="497" on="1"/>
        <pt x="84" y="187" on="1"/>
        <pt x="84" y="109" on="0"/>
        <pt x="188" y="9" on="0"/>
        <pt x="373" y="9" on="0"/>
        <pt x="457" y="109" on="0"/>
        <pt x="457" y="182" on="1"/>
        <pt x="457" y="281" on="1"/>
        <pt x="346" y="281" on="1"/>
        <pt x="338" y="300" on="1"/>
        <pt x="476" y="300" on="1"/>
        <pt x="476" y="0" on="1"/>
        <pt x="457" y="0" on="1"/>
        <pt x="457" y="88" on="1"/>
        <pt x="411" y="-10" on="0"/>
        <pt x="276" y="-10" on="1"/>
        <pt x="188" y="-10" on="0"/>
        <pt x="65" y="90" on="0"/>
        <pt x="65" y="189" on="1"/>
        <pt x="65" y="503" on="1"/>
        <pt x="65" y="631" on="0"/>
        <pt x="152" y="684" on="1"/>
        <pt x="197" y="709" on="0"/>
        <pt x="259" y="709" on="1"/>
        <pt x="336" y="709" on="0"/>
        <pt x="401" y="676" on="1"/>
      </contour>
    </TTGlyph>
    <TTGlyph name="Gcircumflex" xMin="65" yMin="-10" xMax="476" yMax="913">
      <contour>
        <pt x="425" y="772" on="1"/>
        <pt x="408" y="756" on="1"/>
        <pt x="282" y="883" on="1"/>
        <pt x="151" y="756" on="1"/>
        <pt x="135" y="772" on="1"/>
        <pt x="283" y="913" on="1"/>
      </contour>
      <contour>
        <pt x="394" y="659" on="1"/>
        <pt x="320" y="691" on="0"/>
        <pt x="262" y="691" on="1"/>
        <pt x="180" y="691" on="0"/>
        <pt x="133" y="646" on="1"/>
        <pt x="113" y="626" on="0"/>
        <pt x="84" y="549" on="0"/>
        <pt x="84" y="497" on="1"/>
        <pt x="84" y="187" on="1"/>
        <pt x="84" y="109" on="0"/>
        <pt x="188" y="9" on="0"/>
        <pt x="373" y="9" on="0"/>
        <pt x="457" y="109" on="0"/>
        <pt x="457" y="182" on="1"/>
        <pt x="457" y="281" on="1"/>
        <pt x="346" y="281" on="1"/>
        <pt x="338" y="300" on="1"/>
        <pt x="476" y="300" on="1"/>
        <pt x="476" y="0" on="1"/>
        <pt x="457" y="0" on="1"/>
        <pt x="457" y="88" on="1"/>
        <pt x="411" y="-10" on="0"/>
        <pt x="276" y="-10" on="1"/>
        <pt x="188" y="-10" on="0"/>
        <pt x="65" y="90" on="0"/>
        <pt x="65" y="189" on="1"/>
        <pt x="65" y="503" on="1"/>
        <pt x="65" y="631" on="0"/>
        <pt x="152" y="684" on="1"/>
        <pt x="197" y="709" on="0"/>
        <pt x="259" y="709" on="1"/>
        <pt x="336" y="709" on="0"/>
        <pt x="401" y="676" on="1"/>
      </contour>
    </TTGlyph>
    <TTGlyph name="Gcommaaccent" xMin="65" yMin="-184" xMax="476" yMax="709">
      <contour>
        <pt x="236" y="-184" on="1"/>
        <pt x="220" y="-173" on="1"/>
        <pt x="245" y="-159" on="0"/>
        <pt x="276" y="-123" on="0"/>
        <pt x="279" y="-112" on="1"/>
        <pt x="282" y="-101" on="1"/>
        <pt x="280" y="-101" on="1"/>
        <pt x="267" y="-98" on="0"/>
        <pt x="267" y="-71" on="0"/>
        <pt x="297" y="-71" on="0"/>
        <pt x="297" y="-86" on="1"/>
        <pt x="297" y="-134" on="0"/>
      </contour>
      <contour>
        <pt x="394" y="659" on="1"/>
        <pt x="320" y="691" on="0"/>
        <pt x="262" y="691" on="1"/>
        <pt x="180" y="691" on="0"/>
        <pt x="133" y="646" on="1"/>
        <pt x="113" y="626" on="0"/>
        <pt x="84" y="549" on="0"/>
        <pt x="84" y="497" on="1"/>
        <pt x="84" y="187" on="1"/>
        <pt x="84" y="109" on="0"/>
        <pt x="188" y="9" on="0"/>
        <pt x="373" y="9" on="0"/>
        <pt x="457" y="109" on="0"/>
        <pt x="457" y="182" on="1"/>
        <pt x="457" y="281" on="1"/>
        <pt x="346" y="281" on="1"/>
        <pt x="338" y="300" on="1"/>
        <pt x="476" y="300" on="1"/>
        <pt x="476" y="0" on="1"/>
        <pt x="457" y="0" on="1"/>
        <pt x="457" y="88" on="1"/>
        <pt x="411" y="-10" on="0"/>
        <pt x="276" y="-10" on="1"/>
        <pt x="188" y="-10" on="0"/>
        <pt x="65" y="90" on="0"/>
        <pt x="65" y="189" on="1"/>
        <pt x="65" y="503" on="1"/>
        <pt x="65" y="631" on="0"/>
        <pt x="152" y="684" on="1"/>
        <pt x="197" y="709" on="0"/>
        <pt x="259" y="709" on="1"/>
        <pt x="336" y="709" on="0"/>
        <pt x="401" y="676" on="1"/>
      </contour>
    </TTGlyph>
    <TTGlyph name="Gdotaccent" xMin="65" yMin="-10" xMax="476" yMax="796">
      <contour>
        <pt x="286" y="769" on="0"/>
        <pt x="259" y="769" on="0"/>
        <pt x="259" y="796" on="0"/>
        <pt x="286" y="796" on="0"/>
      </contour>
      <contour>
        <pt x="394" y="659" on="1"/>
        <pt x="320" y="691" on="0"/>
        <pt x="262" y="691" on="1"/>
        <pt x="180" y="691" on="0"/>
        <pt x="133" y="646" on="1"/>
        <pt x="113" y="626" on="0"/>
        <pt x="84" y="549" on="0"/>
        <pt x="84" y="497" on="1"/>
        <pt x="84" y="187" on="1"/>
        <pt x="84" y="109" on="0"/>
        <pt x="188" y="9" on="0"/>
        <pt x="373" y="9" on="0"/>
        <pt x="457" y="109" on="0"/>
        <pt x="457" y="182" on="1"/>
        <pt x="457" y="281" on="1"/>
        <pt x="346" y="281" on="1"/>
        <pt x="338" y="300" on="1"/>
        <pt x="476" y="300" on="1"/>
        <pt x="476" y="0" on="1"/>
        <pt x="457" y="0" on="1"/>
        <pt x="457" y="88" on="1"/>
        <pt x="411" y="-10" on="0"/>
        <pt x="276" y="-10" on="1"/>
        <pt x="188" y="-10" on="0"/>
        <pt x="65" y="90" on="0"/>
        <pt x="65" y="189" on="1"/>
        <pt x="65" y="503" on="1"/>
        <pt x="65" y="631" on="0"/>
        <pt x="152" y="684" on="1"/>
        <pt x="197" y="709" on="0"/>
        <pt x="259" y="709" on="1"/>
        <pt x="336" y="709" on="0"/>
        <pt x="401" y="676" on="1"/>
      </contour>
    </TTGlyph>
    <TTGlyph name="H" xMin="78" yMin="0" xMax="508" yMax="700">
      <contour>
        <pt x="508" y="0" on="1"/>
        <pt x="489" y="0" on="1"/>
        <pt x="489" y="394" on="1"/>
        <pt x="97" y="394" on="1"/>
        <pt x="97" y="0" on="1"/>
        <pt x="78" y="0" on="1"/>
        <pt x="78" y="700" on="1"/>
        <pt x="97" y="700" on="1"/>
        <pt x="97" y="413" on="1"/>
        <pt x="489" y="413" on="1"/>
        <pt x="489" y="700" on="1"/>
        <pt x="508" y="700" on="1"/>
      </contour>
    </TTGlyph>
    <TTGlyph name="Hbar" xMin="78" yMin="0" xMax="605" yMax="700">
      <contour>
        <pt x="538" y="413" on="1"/>
        <pt x="538" y="519" on="1"/>
        <pt x="146" y="519" on="1"/>
        <pt x="146" y="413" on="1"/>
      </contour>
      <contour>
        <pt x="557" y="0" on="1"/>
        <pt x="538" y="0" on="1"/>
        <pt x="538" y="394" on="1"/>
        <pt x="146" y="394" on="1"/>
        <pt x="146" y="0" on="1"/>
        <pt x="127" y="0" on="1"/>
        <pt x="127" y="519" on="1"/>
        <pt x="78" y="519" on="1"/>
        <pt x="78" y="538" on="1"/>
        <pt x="127" y="538" on="1"/>
        <pt x="127" y="700" on="1"/>
        <pt x="146" y="700" on="1"/>
        <pt x="146" y="538" on="1"/>
        <pt x="538" y="538" on="1"/>
        <pt x="538" y="700" on="1"/>
        <pt x="557" y="700" on="1"/>
        <pt x="557" y="538" on="1"/>
        <pt x="605" y="538" on="1"/>
        <pt x="605" y="519" on="1"/>
        <pt x="557" y="519" on="1"/>
      </contour>
    </TTGlyph>
    <TTGlyph name="Hcircumflex" xMin="78" yMin="0" xMax="508" yMax="913">
      <contour>
        <pt x="440" y="772" on="1"/>
        <pt x="423" y="756" on="1"/>
        <pt x="297" y="883" on="1"/>
        <pt x="166" y="756" on="1"/>
        <pt x="150" y="772" on="1"/>
        <pt x="298" y="913" on="1"/>
      </contour>
      <contour>
        <pt x="508" y="0" on="1"/>
        <pt x="489" y="0" on="1"/>
        <pt x="489" y="394" on="1"/>
        <pt x="97" y="394" on="1"/>
        <pt x="97" y="0" on="1"/>
        <pt x="78" y="0" on="1"/>
        <pt x="78" y="700" on="1"/>
        <pt x="97" y="700" on="1"/>
        <pt x="97" y="413" on="1"/>
        <pt x="489" y="413" on="1"/>
        <pt x="489" y="700" on="1"/>
        <pt x="508" y="700" on="1"/>
      </contour>
    </TTGlyph>
    <TTGlyph name="I" xMin="30" yMin="0" xMax="135" yMax="700">
      <contour>
        <pt x="135" y="0" on="1"/>
        <pt x="116" y="0" on="1"/>
        <pt x="116" y="679" on="1"/>
        <pt x="30" y="681" on="1"/>
        <pt x="30" y="700" on="1"/>
        <pt x="135" y="700" on="1"/>
      </contour>
    </TTGlyph>
    <TTGlyph name="Iacute" xMin="78" yMin="0" xMax="251" yMax="871">
      <contour>
        <pt x="183" y="730" on="1"/>
        <pt x="164" y="730" on="1"/>
        <pt x="219" y="858" on="1"/>
        <pt x="224" y="871" on="0"/>
        <pt x="234" y="871" on="1"/>
        <pt x="251" y="871" on="0"/>
        <pt x="251" y="857" on="1"/>
        <pt x="251" y="851" on="0"/>
        <pt x="246" y="843" on="1"/>
      </contour>
      <contour>
        <pt x="183" y="0" on="1"/>
        <pt x="164" y="0" on="1"/>
        <pt x="164" y="679" on="1"/>
        <pt x="78" y="681" on="1"/>
        <pt x="78" y="700" on="1"/>
        <pt x="183" y="700" on="1"/>
      </contour>
    </TTGlyph>
    <TTGlyph name="Icircumflex" xMin="78" yMin="0" xMax="368" yMax="913">
      <contour>
        <pt x="368" y="772" on="1"/>
        <pt x="351" y="756" on="1"/>
        <pt x="225" y="883" on="1"/>
        <pt x="94" y="756" on="1"/>
        <pt x="78" y="772" on="1"/>
        <pt x="226" y="913" on="1"/>
      </contour>
      <contour>
        <pt x="252" y="0" on="1"/>
        <pt x="233" y="0" on="1"/>
        <pt x="233" y="679" on="1"/>
        <pt x="147" y="681" on="1"/>
        <pt x="147" y="700" on="1"/>
        <pt x="252" y="700" on="1"/>
      </contour>
    </TTGlyph>
    <TTGlyph name="Idieresis" xMin="78" yMin="0" xMax="183" yMax="700">
      <contour>
        <pt x="183" y="0" on="1"/>
        <pt x="164" y="0" on="1"/>
        <pt x="164" y="679" on="1"/>
        <pt x="78" y="681" on="1"/>
        <pt x="78" y="700" on="1"/>
        <pt x="183" y="700" on="1"/>
      </contour>
    </TTGlyph>
    <TTGlyph name="Idotaccent" xMin="78" yMin="0" xMax="187" yMax="797">
      <contour>
        <pt x="187" y="770" on="0"/>
        <pt x="160" y="770" on="0"/>
        <pt x="160" y="797" on="0"/>
        <pt x="187" y="797" on="0"/>
      </contour>
      <contour>
        <pt x="183" y="0" on="1"/>
        <pt x="164" y="0" on="1"/>
        <pt x="164" y="679" on="1"/>
        <pt x="78" y="681" on="1"/>
        <pt x="78" y="700" on="1"/>
        <pt x="183" y="700" on="1"/>
      </contour>
    </TTGlyph>
    <TTGlyph name="Igrave" xMin="78" yMin="0" xMax="183" yMax="871">
      <contour>
        <pt x="182" y="730" on="1"/>
        <pt x="163" y="730" on="1"/>
        <pt x="100" y="843" on="1"/>
        <pt x="88" y="862" on="0"/>
        <pt x="104" y="869" on="1"/>
        <pt x="108" y="871" on="0"/>
        <pt x="112" y="871" on="1"/>
        <pt x="122" y="871" on="0"/>
        <pt x="127" y="858" on="1"/>
      </contour>
      <contour>
        <pt x="183" y="0" on="1"/>
        <pt x="164" y="0" on="1"/>
        <pt x="164" y="679" on="1"/>
        <pt x="78" y="681" on="1"/>
        <pt x="78" y="700" on="1"/>
        <pt x="183" y="700" on="1"/>
      </contour>
    </TTGlyph>
    <TTGlyph name="Imacron" xMin="78" yMin="0" xMax="294" yMax="788">
      <contour>
        <pt x="294" y="769" on="1"/>
        <pt x="78" y="769" on="1"/>
        <pt x="78" y="788" on="1"/>
        <pt x="294" y="788" on="1"/>
      </contour>
      <contour>
        <pt x="227" y="0" on="1"/>
        <pt x="208" y="0" on="1"/>
        <pt x="208" y="679" on="1"/>
        <pt x="122" y="681" on="1"/>
        <pt x="122" y="700" on="1"/>
        <pt x="227" y="700" on="1"/>
      </contour>
    </TTGlyph>
    <TTGlyph name="Iogonek" xMin="78" yMin="-213" xMax="267" yMax="700">
      <contour>
        <pt x="251" y="-147" on="1"/>
        <pt x="267" y="-163" on="1"/>
        <pt x="235" y="-213" on="0"/>
        <pt x="171" y="-213" on="1"/>
        <pt x="146" y="-213" on="0"/>
        <pt x="122" y="-202" on="1"/>
        <pt x="78" y="-181" on="0"/>
        <pt x="78" y="-128" on="1"/>
        <pt x="78" y="-65" on="0"/>
        <pt x="174" y="0" on="1"/>
        <pt x="177" y="0" on="1"/>
        <pt x="177" y="679" on="1"/>
        <pt x="91" y="681" on="1"/>
        <pt x="91" y="700" on="1"/>
        <pt x="196" y="700" on="1"/>
        <pt x="196" y="0" on="1"/>
        <pt x="198" y="0" on="1"/>
        <pt x="98" y="-68" on="0"/>
        <pt x="98" y="-130" on="1"/>
        <pt x="98" y="-157" on="0"/>
        <pt x="141" y="-193" on="0"/>
        <pt x="171" y="-193" on="1"/>
        <pt x="222" y="-193" on="0"/>
      </contour>
    </TTGlyph>
    <TTGlyph name="Iota" xMin="80" yMin="0" xMax="185" yMax="700">
      <contour>
        <pt x="185" y="0" on="1"/>
        <pt x="166" y="0" on="1"/>
        <pt x="166" y="679" on="1"/>
        <pt x="80" y="681" on="1"/>
        <pt x="80" y="700" on="1"/>
        <pt x="185" y="700" on="1"/>
      </contour>
    </TTGlyph>
    <TTGlyph name="Iotadieresis" xMin="56" yMin="0" xMax="249" yMax="797">
      <contour>
        <pt x="240" y="767" on="0"/>
        <pt x="228" y="767" on="0"/>
        <pt x="219" y="776" on="0"/>
        <pt x="219" y="788" on="0"/>
        <pt x="228" y="797" on="0"/>
        <pt x="240" y="797" on="0"/>
        <pt x="249" y="788" on="0"/>
        <pt x="249" y="776" on="0"/>
      </contour>
      <contour>
        <pt x="81" y="766" on="0"/>
        <pt x="69" y="766" on="0"/>
        <pt x="60" y="775" on="0"/>
        <pt x="60" y="787" on="0"/>
        <pt x="69" y="796" on="0"/>
        <pt x="81" y="796" on="0"/>
        <pt x="90" y="787" on="0"/>
        <pt x="90" y="775" on="0"/>
      </contour>
      <contour>
        <pt x="161" y="0" on="1"/>
        <pt x="142" y="0" on="1"/>
        <pt x="142" y="679" on="1"/>
        <pt x="56" y="681" on="1"/>
        <pt x="56" y="700" on="1"/>
        <pt x="161" y="700" on="1"/>
      </contour>
    </TTGlyph>
    <TTGlyph name="Iotatonos" xMin="78" yMin="0" xMax="339" yMax="709">
      <contour>
        <pt x="97" y="568" on="1"/>
        <pt x="78" y="568" on="1"/>
        <pt x="133" y="696" on="1"/>
        <pt x="138" y="709" on="0"/>
        <pt x="148" y="709" on="1"/>
        <pt x="152" y="709" on="0"/>
        <pt x="156" y="707" on="1"/>
        <pt x="172" y="700" on="0"/>
        <pt x="160" y="681" on="1"/>
      </contour>
      <contour>
        <pt x="339" y="0" on="1"/>
        <pt x="320" y="0" on="1"/>
        <pt x="320" y="679" on="1"/>
        <pt x="234" y="681" on="1"/>
        <pt x="234" y="700" on="1"/>
        <pt x="339" y="700" on="1"/>
      </contour>
    </TTGlyph>
    <TTGlyph name="Itilde" xMin="78" yMin="0" xMax="399" yMax="826">
      <contour>
        <pt x="177" y="826" on="1"/>
        <pt x="204" y="826" on="0"/>
        <pt x="269" y="794" on="1"/>
        <pt x="294" y="782" on="0"/>
        <pt x="358" y="782" on="0"/>
        <pt x="389" y="814" on="1"/>
        <pt x="399" y="797" on="1"/>
        <pt x="361" y="762" on="0"/>
        <pt x="317" y="762" on="1"/>
        <pt x="291" y="762" on="0"/>
        <pt x="241" y="785" on="0"/>
        <pt x="194" y="805" on="0"/>
        <pt x="173" y="805" on="1"/>
        <pt x="127" y="805" on="0"/>
        <pt x="89" y="761" on="1"/>
        <pt x="78" y="777" on="1"/>
        <pt x="125" y="826" on="0"/>
      </contour>
      <contour>
        <pt x="268" y="0" on="1"/>
        <pt x="249" y="0" on="1"/>
        <pt x="249" y="679" on="1"/>
        <pt x="163" y="681" on="1"/>
        <pt x="163" y="700" on="1"/>
        <pt x="268" y="700" on="1"/>
      </contour>
    </TTGlyph>
    <TTGlyph name="J" xMin="3" yMin="-37" xMax="113" yMax="700">
      <contour>
        <pt x="9" y="-37" on="1"/>
        <pt x="3" y="-19" on="1"/>
        <pt x="95" y="-6" on="0"/>
        <pt x="95" y="118" on="1"/>
        <pt x="95" y="679" on="1"/>
        <pt x="11" y="681" on="1"/>
        <pt x="11" y="700" on="1"/>
        <pt x="113" y="700" on="1"/>
        <pt x="113" y="122" on="1"/>
        <pt x="113" y="47" on="0"/>
        <pt x="65" y="-27" on="0"/>
      </contour>
    </TTGlyph>
    <TTGlyph name="Jcircumflex" xMin="3" yMin="-37" xMax="229" yMax="846">
      <contour>
        <pt x="229" y="846" on="1"/>
        <pt x="229" y="841" on="1"/>
        <pt x="229" y="794" on="0"/>
        <pt x="162" y="728" on="0"/>
        <pt x="70" y="728" on="0"/>
        <pt x="3" y="794" on="0"/>
        <pt x="3" y="841" on="1"/>
        <pt x="3" y="846" on="1"/>
        <pt x="24" y="846" on="1"/>
        <pt x="24" y="841" on="1"/>
        <pt x="24" y="808" on="0"/>
        <pt x="74" y="748" on="0"/>
        <pt x="156" y="748" on="0"/>
        <pt x="208" y="809" on="0"/>
        <pt x="208" y="841" on="1"/>
        <pt x="208" y="846" on="1"/>
      </contour>
      <contour>
        <pt x="24" y="-37" on="1"/>
        <pt x="18" y="-19" on="1"/>
        <pt x="110" y="-6" on="0"/>
        <pt x="110" y="118" on="1"/>
        <pt x="110" y="679" on="1"/>
        <pt x="26" y="681" on="1"/>
        <pt x="26" y="700" on="1"/>
        <pt x="128" y="700" on="1"/>
        <pt x="128" y="122" on="1"/>
        <pt x="128" y="47" on="0"/>
        <pt x="80" y="-27" on="0"/>
      </contour>
    </TTGlyph>
    <TTGlyph name="K" xMin="79" yMin="0" xMax="476" yMax="701">
      <contour>
        <pt x="476" y="0" on="1"/>
        <pt x="455" y="0" on="1"/>
        <pt x="195" y="403" on="1"/>
        <pt x="98" y="280" on="1"/>
        <pt x="98" y="0" on="1"/>
        <pt x="79" y="0" on="1"/>
        <pt x="79" y="701" on="1"/>
        <pt x="98" y="701" on="1"/>
        <pt x="98" y="308" on="1"/>
        <pt x="402" y="701" on="1"/>
        <pt x="424" y="701" on="1"/>
        <pt x="207" y="418" on="1"/>
      </contour>
    </TTGlyph>
    <TTGlyph name="Kappa" xMin="78" yMin="0" xMax="475" yMax="701">
      <contour>
        <pt x="475" y="0" on="1"/>
        <pt x="454" y="0" on="1"/>
        <pt x="194" y="403" on="1"/>
        <pt x="97" y="280" on="1"/>
        <pt x="97" y="0" on="1"/>
        <pt x="78" y="0" on="1"/>
        <pt x="78" y="701" on="1"/>
        <pt x="97" y="701" on="1"/>
        <pt x="97" y="308" on="1"/>
        <pt x="401" y="701" on="1"/>
        <pt x="423" y="701" on="1"/>
        <pt x="206" y="418" on="1"/>
      </contour>
    </TTGlyph>
    <TTGlyph name="Kcommaaccent" xMin="79" yMin="-184" xMax="476" yMax="701">
      <contour>
        <pt x="225" y="-184" on="1"/>
        <pt x="209" y="-173" on="1"/>
        <pt x="234" y="-159" on="0"/>
        <pt x="265" y="-123" on="0"/>
        <pt x="268" y="-112" on="1"/>
        <pt x="271" y="-101" on="1"/>
        <pt x="269" y="-101" on="1"/>
        <pt x="256" y="-98" on="0"/>
        <pt x="256" y="-71" on="0"/>
        <pt x="286" y="-71" on="0"/>
        <pt x="286" y="-86" on="1"/>
        <pt x="286" y="-134" on="0"/>
      </contour>
      <contour>
        <pt x="476" y="0" on="1"/>
        <pt x="455" y="0" on="1"/>
        <pt x="195" y="403" on="1"/>
        <pt x="98" y="280" on="1"/>
        <pt x="98" y="0" on="1"/>
        <pt x="79" y="0" on="1"/>
        <pt x="79" y="701" on="1"/>
        <pt x="98" y="701" on="1"/>
        <pt x="98" y="308" on="1"/>
        <pt x="402" y="701" on="1"/>
        <pt x="424" y="701" on="1"/>
        <pt x="207" y="418" on="1"/>
      </contour>
    </TTGlyph>
    <TTGlyph name="L" xMin="78" yMin="0" xMax="439" yMax="700">
      <contour>
        <pt x="439" y="0" on="1"/>
        <pt x="78" y="0" on="1"/>
        <pt x="78" y="700" on="1"/>
        <pt x="97" y="700" on="1"/>
        <pt x="97" y="20" on="1"/>
        <pt x="439" y="20" on="1"/>
      </contour>
    </TTGlyph>
    <TTGlyph name="Lacute" xMin="78" yMin="0" xMax="439" yMax="871">
      <contour>
        <pt x="101" y="730" on="1"/>
        <pt x="82" y="730" on="1"/>
        <pt x="137" y="858" on="1"/>
        <pt x="142" y="871" on="0"/>
        <pt x="152" y="871" on="1"/>
        <pt x="156" y="871" on="0"/>
        <pt x="160" y="869" on="1"/>
        <pt x="176" y="862" on="0"/>
        <pt x="164" y="843" on="1"/>
      </contour>
      <contour>
        <pt x="439" y="0" on="1"/>
        <pt x="78" y="0" on="1"/>
        <pt x="78" y="700" on="1"/>
        <pt x="97" y="700" on="1"/>
        <pt x="97" y="20" on="1"/>
        <pt x="439" y="20" on="1"/>
      </contour>
    </TTGlyph>
    <TTGlyph name="Lambda" xMin="12" yMin="0" xMax="517" yMax="700">
      <contour>
        <pt x="517" y="0" on="1"/>
        <pt x="497" y="0" on="1"/>
        <pt x="262" y="670" on="1"/>
        <pt x="31" y="0" on="1"/>
        <pt x="12" y="0" on="1"/>
        <pt x="253" y="700" on="1"/>
        <pt x="272" y="700" on="1"/>
      </contour>
    </TTGlyph>
    <TTGlyph name="Lcaron" xMin="-62" yMin="0" xMax="437" yMax="890">
      <contour>
        <pt x="228" y="875" on="1"/>
        <pt x="86" y="734" on="1"/>
        <pt x="-62" y="875" on="1"/>
        <pt x="-47" y="890" on="1"/>
        <pt x="85" y="764" on="1"/>
        <pt x="213" y="890" on="1"/>
      </contour>
      <contour>
        <pt x="437" y="0" on="1"/>
        <pt x="76" y="0" on="1"/>
        <pt x="76" y="700" on="1"/>
        <pt x="95" y="700" on="1"/>
        <pt x="95" y="20" on="1"/>
        <pt x="437" y="20" on="1"/>
      </contour>
    </TTGlyph>
    <TTGlyph name="Lcommaaccent" xMin="78" yMin="-184" xMax="439" yMax="700">
      <contour>
        <pt x="236" y="-184" on="1"/>
        <pt x="220" y="-173" on="1"/>
        <pt x="245" y="-159" on="0"/>
        <pt x="276" y="-123" on="0"/>
        <pt x="279" y="-112" on="1"/>
        <pt x="282" y="-101" on="1"/>
        <pt x="280" y="-101" on="1"/>
        <pt x="267" y="-98" on="0"/>
        <pt x="267" y="-71" on="0"/>
        <pt x="297" y="-71" on="0"/>
        <pt x="297" y="-86" on="1"/>
        <pt x="297" y="-134" on="0"/>
      </contour>
      <contour>
        <pt x="439" y="0" on="1"/>
        <pt x="78" y="0" on="1"/>
        <pt x="78" y="700" on="1"/>
        <pt x="97" y="700" on="1"/>
        <pt x="97" y="20" on="1"/>
        <pt x="439" y="20" on="1"/>
      </contour>
    </TTGlyph>
    <TTGlyph name="Lslash" xMin="78" yMin="0" xMax="562" yMax="700">
      <contour>
        <pt x="562" y="0" on="1"/>
        <pt x="201" y="0" on="1"/>
        <pt x="201" y="393" on="1"/>
        <pt x="85" y="341" on="1"/>
        <pt x="78" y="358" on="1"/>
        <pt x="201" y="413" on="1"/>
        <pt x="201" y="700" on="1"/>
        <pt x="220" y="700" on="1"/>
        <pt x="220" y="422" on="1"/>
        <pt x="369" y="489" on="1"/>
        <pt x="377" y="472" on="1"/>
        <pt x="220" y="401" on="1"/>
        <pt x="220" y="20" on="1"/>
        <pt x="562" y="20" on="1"/>
      </contour>
    </TTGlyph>
    <TTGlyph name="M" xMin="78" yMin="0" xMax="614" yMax="700">
      <contour>
        <pt x="614" y="0" on="1"/>
        <pt x="596" y="0" on="1"/>
        <pt x="596" y="648" on="1"/>
        <pt x="354" y="0" on="1"/>
        <pt x="336" y="0" on="1"/>
        <pt x="96" y="648" on="1"/>
        <pt x="96" y="0" on="1"/>
        <pt x="78" y="0" on="1"/>
        <pt x="78" y="700" on="1"/>
        <pt x="96" y="700" on="1"/>
        <pt x="346" y="30" on="1"/>
        <pt x="596" y="700" on="1"/>
        <pt x="614" y="700" on="1"/>
      </contour>
    </TTGlyph>
    <TTGlyph name="Mu" xMin="80" yMin="0" xMax="616" yMax="700">
      <contour>
        <pt x="616" y="0" on="1"/>
        <pt x="598" y="0" on="1"/>
        <pt x="598" y="648" on="1"/>
        <pt x="356" y="0" on="1"/>
        <pt x="338" y="0" on="1"/>
        <pt x="98" y="648" on="1"/>
        <pt x="98" y="0" on="1"/>
        <pt x="80" y="0" on="1"/>
        <pt x="80" y="700" on="1"/>
        <pt x="98" y="700" on="1"/>
        <pt x="348" y="30" on="1"/>
        <pt x="598" y="700" on="1"/>
        <pt x="616" y="700" on="1"/>
      </contour>
    </TTGlyph>
    <TTGlyph name="N" xMin="78" yMin="0" xMax="570" yMax="700">
      <contour>
        <pt x="570" y="0" on="1"/>
        <pt x="553" y="0" on="1"/>
        <pt x="96" y="670" on="1"/>
        <pt x="96" y="0" on="1"/>
        <pt x="78" y="0" on="1"/>
        <pt x="78" y="700" on="1"/>
        <pt x="96" y="700" on="1"/>
        <pt x="553" y="32" on="1"/>
        <pt x="553" y="700" on="1"/>
        <pt x="570" y="700" on="1"/>
      </contour>
    </TTGlyph>
    <TTGlyph name="Nacute" xMin="78" yMin="0" xMax="570" yMax="871">
      <contour>
        <pt x="297" y="730" on="1"/>
        <pt x="278" y="730" on="1"/>
        <pt x="333" y="858" on="1"/>
        <pt x="338" y="871" on="0"/>
        <pt x="348" y="871" on="1"/>
        <pt x="352" y="871" on="0"/>
        <pt x="356" y="869" on="1"/>
        <pt x="372" y="862" on="0"/>
        <pt x="360" y="843" on="1"/>
      </contour>
      <contour>
        <pt x="570" y="0" on="1"/>
        <pt x="553" y="0" on="1"/>
        <pt x="96" y="670" on="1"/>
        <pt x="96" y="0" on="1"/>
        <pt x="78" y="0" on="1"/>
        <pt x="78" y="700" on="1"/>
        <pt x="96" y="700" on="1"/>
        <pt x="553" y="32" on="1"/>
        <pt x="553" y="700" on="1"/>
        <pt x="570" y="700" on="1"/>
      </contour>
    </TTGlyph>
    <TTGlyph name="Ncaron" xMin="78" yMin="0" xMax="570" yMax="890">
      <contour>
        <pt x="474" y="875" on="1"/>
        <pt x="332" y="734" on="1"/>
        <pt x="184" y="875" on="1"/>
        <pt x="199" y="890" on="1"/>
        <pt x="331" y="764" on="1"/>
        <pt x="459" y="890" on="1"/>
      </contour>
      <contour>
        <pt x="570" y="0" on="1"/>
        <pt x="553" y="0" on="1"/>
        <pt x="96" y="670" on="1"/>
        <pt x="96" y="0" on="1"/>
        <pt x="78" y="0" on="1"/>
        <pt x="78" y="700" on="1"/>
        <pt x="96" y="700" on="1"/>
        <pt x="553" y="32" on="1"/>
        <pt x="553" y="700" on="1"/>
        <pt x="570" y="700" on="1"/>
      </contour>
    </TTGlyph>
    <TTGlyph name="Ncommaaccent" xMin="78" yMin="-184" xMax="570" yMax="700">
      <contour>
        <pt x="309" y="-184" on="1"/>
        <pt x="293" y="-173" on="1"/>
        <pt x="318" y="-159" on="0"/>
        <pt x="349" y="-123" on="0"/>
        <pt x="352" y="-112" on="1"/>
        <pt x="355" y="-101" on="1"/>
        <pt x="353" y="-101" on="1"/>
        <pt x="340" y="-98" on="0"/>
        <pt x="340" y="-71" on="0"/>
        <pt x="370" y="-71" on="0"/>
        <pt x="370" y="-86" on="1"/>
        <pt x="370" y="-134" on="0"/>
      </contour>
      <contour>
        <pt x="570" y="0" on="1"/>
        <pt x="553" y="0" on="1"/>
        <pt x="96" y="670" on="1"/>
        <pt x="96" y="0" on="1"/>
        <pt x="78" y="0" on="1"/>
        <pt x="78" y="700" on="1"/>
        <pt x="96" y="700" on="1"/>
        <pt x="553" y="32" on="1"/>
        <pt x="553" y="700" on="1"/>
        <pt x="570" y="700" on="1"/>
      </contour>
    </TTGlyph>
    <TTGlyph name="Ntilde" xMin="78" yMin="0" xMax="570" yMax="825">
      <contour>
        <pt x="257" y="825" on="1"/>
        <pt x="284" y="825" on="0"/>
        <pt x="349" y="793" on="1"/>
        <pt x="374" y="781" on="0"/>
        <pt x="438" y="781" on="0"/>
        <pt x="469" y="813" on="1"/>
        <pt x="479" y="796" on="1"/>
        <pt x="441" y="761" on="0"/>
        <pt x="397" y="761" on="1"/>
        <pt x="371" y="761" on="0"/>
        <pt x="321" y="784" on="0"/>
        <pt x="274" y="804" on="0"/>
        <pt x="253" y="804" on="1"/>
        <pt x="207" y="804" on="0"/>
        <pt x="169" y="760" on="1"/>
        <pt x="158" y="776" on="1"/>
        <pt x="205" y="825" on="0"/>
      </contour>
      <contour>
        <pt x="570" y="0" on="1"/>
        <pt x="553" y="0" on="1"/>
        <pt x="96" y="670" on="1"/>
        <pt x="96" y="0" on="1"/>
        <pt x="78" y="0" on="1"/>
        <pt x="78" y="700" on="1"/>
        <pt x="96" y="700" on="1"/>
        <pt x="553" y="32" on="1"/>
        <pt x="553" y="700" on="1"/>
        <pt x="570" y="700" on="1"/>
      </contour>
    </TTGlyph>
    <TTGlyph name="Nu" xMin="80" yMin="0" xMax="572" yMax="700">
      <contour>
        <pt x="572" y="0" on="1"/>
        <pt x="555" y="0" on="1"/>
        <pt x="98" y="670" on="1"/>
        <pt x="98" y="0" on="1"/>
        <pt x="80" y="0" on="1"/>
        <pt x="80" y="700" on="1"/>
        <pt x="98" y="700" on="1"/>
        <pt x="555" y="32" on="1"/>
        <pt x="555" y="700" on="1"/>
        <pt x="572" y="700" on="1"/>
      </contour>
    </TTGlyph>
    <TTGlyph name="O" xMin="63" yMin="-11" xMax="483" yMax="716">
      <contour>
        <pt x="464" y="184" on="1"/>
        <pt x="464" y="510" on="1"/>
        <pt x="464" y="596" on="0"/>
        <pt x="368" y="695" on="0"/>
        <pt x="178" y="695" on="0"/>
        <pt x="82" y="594" on="0"/>
        <pt x="82" y="508" on="1"/>
        <pt x="82" y="184" on="1"/>
        <pt x="82" y="97" on="0"/>
        <pt x="194" y="8" on="0"/>
        <pt x="354" y="8" on="0"/>
        <pt x="464" y="92" on="0"/>
      </contour>
      <contour>
        <pt x="483" y="506" on="1"/>
        <pt x="483" y="185" on="1"/>
        <pt x="483" y="84" on="0"/>
        <pt x="360" y="-11" on="0"/>
        <pt x="188" y="-11" on="0"/>
        <pt x="63" y="84" on="0"/>
        <pt x="63" y="185" on="1"/>
        <pt x="63" y="507" on="1"/>
        <pt x="63" y="610" on="0"/>
        <pt x="176" y="716" on="0"/>
        <pt x="374" y="716" on="0"/>
        <pt x="483" y="604" on="0"/>
      </contour>
    </TTGlyph>
    <TTGlyph name="OE" xMin="78" yMin="-11" xMax="815" yMax="716">
      <contour>
        <pt x="479" y="184" on="1"/>
        <pt x="479" y="510" on="1"/>
        <pt x="479" y="596" on="0"/>
        <pt x="383" y="695" on="0"/>
        <pt x="193" y="695" on="0"/>
        <pt x="97" y="594" on="0"/>
        <pt x="97" y="508" on="1"/>
        <pt x="97" y="184" on="1"/>
        <pt x="97" y="97" on="0"/>
        <pt x="209" y="8" on="0"/>
        <pt x="369" y="8" on="0"/>
        <pt x="479" y="92" on="0"/>
      </contour>
      <contour>
        <pt x="813" y="0" on="1"/>
        <pt x="481" y="0" on="1"/>
        <pt x="481" y="96" on="1"/>
        <pt x="457" y="41" on="0"/>
        <pt x="352" y="-11" on="0"/>
        <pt x="289" y="-11" on="1"/>
        <pt x="203" y="-11" on="0"/>
        <pt x="78" y="84" on="0"/>
        <pt x="78" y="185" on="1"/>
        <pt x="78" y="507" on="1"/>
        <pt x="78" y="610" on="0"/>
        <pt x="191" y="716" on="0"/>
        <pt x="290" y="716" on="1"/>
        <pt x="435" y="716" on="0"/>
        <pt x="481" y="602" on="1"/>
        <pt x="481" y="700" on="1"/>
        <pt x="815" y="700" on="1"/>
        <pt x="815" y="681" on="1"/>
        <pt x="500" y="681" on="1"/>
        <pt x="500" y="413" on="1"/>
        <pt x="728" y="413" on="1"/>
        <pt x="721" y="394" on="1"/>
        <pt x="500" y="394" on="1"/>
        <pt x="500" y="19" on="1"/>
        <pt x="813" y="19" on="1"/>
      </contour>
    </TTGlyph>
    <TTGlyph name="Oacute" xMin="63" yMin="-11" xMax="483" yMax="871">
      <contour>
        <pt x="276" y="730" on="1"/>
        <pt x="257" y="730" on="1"/>
        <pt x="312" y="858" on="1"/>
        <pt x="317" y="871" on="0"/>
        <pt x="327" y="871" on="1"/>
        <pt x="331" y="871" on="0"/>
        <pt x="335" y="869" on="1"/>
        <pt x="351" y="862" on="0"/>
        <pt x="339" y="843" on="1"/>
      </contour>
      <contour>
        <pt x="464" y="184" on="1"/>
        <pt x="464" y="510" on="1"/>
        <pt x="464" y="596" on="0"/>
        <pt x="368" y="695" on="0"/>
        <pt x="178" y="695" on="0"/>
        <pt x="82" y="594" on="0"/>
        <pt x="82" y="508" on="1"/>
        <pt x="82" y="184" on="1"/>
        <pt x="82" y="97" on="0"/>
        <pt x="194" y="8" on="0"/>
        <pt x="354" y="8" on="0"/>
        <pt x="464" y="92" on="0"/>
      </contour>
      <contour>
        <pt x="483" y="506" on="1"/>
        <pt x="483" y="185" on="1"/>
        <pt x="483" y="84" on="0"/>
        <pt x="360" y="-11" on="0"/>
        <pt x="188" y="-11" on="0"/>
        <pt x="63" y="84" on="0"/>
        <pt x="63" y="185" on="1"/>
        <pt x="63" y="507" on="1"/>
        <pt x="63" y="610" on="0"/>
        <pt x="176" y="716" on="0"/>
        <pt x="374" y="716" on="0"/>
        <pt x="483" y="604" on="0"/>
      </contour>
    </TTGlyph>
    <TTGlyph name="Ocircumflex" xMin="63" yMin="-11" xMax="483" yMax="913">
      <contour>
        <pt x="416" y="772" on="1"/>
        <pt x="399" y="756" on="1"/>
        <pt x="273" y="883" on="1"/>
        <pt x="142" y="756" on="1"/>
        <pt x="126" y="772" on="1"/>
        <pt x="274" y="913" on="1"/>
      </contour>
      <contour>
        <pt x="464" y="184" on="1"/>
        <pt x="464" y="510" on="1"/>
        <pt x="464" y="596" on="0"/>
        <pt x="368" y="695" on="0"/>
        <pt x="178" y="695" on="0"/>
        <pt x="82" y="594" on="0"/>
        <pt x="82" y="508" on="1"/>
        <pt x="82" y="184" on="1"/>
        <pt x="82" y="97" on="0"/>
        <pt x="194" y="8" on="0"/>
        <pt x="354" y="8" on="0"/>
        <pt x="464" y="92" on="0"/>
      </contour>
      <contour>
        <pt x="483" y="506" on="1"/>
        <pt x="483" y="185" on="1"/>
        <pt x="483" y="84" on="0"/>
        <pt x="360" y="-11" on="0"/>
        <pt x="188" y="-11" on="0"/>
        <pt x="63" y="84" on="0"/>
        <pt x="63" y="185" on="1"/>
        <pt x="63" y="507" on="1"/>
        <pt x="63" y="610" on="0"/>
        <pt x="176" y="716" on="0"/>
        <pt x="374" y="716" on="0"/>
        <pt x="483" y="604" on="0"/>
      </contour>
    </TTGlyph>
    <TTGlyph name="Odieresis" xMin="63" yMin="-11" xMax="483" yMax="716">
      <contour>
        <pt x="464" y="184" on="1"/>
        <pt x="464" y="510" on="1"/>
        <pt x="464" y="596" on="0"/>
        <pt x="368" y="695" on="0"/>
        <pt x="178" y="695" on="0"/>
        <pt x="82" y="594" on="0"/>
        <pt x="82" y="508" on="1"/>
        <pt x="82" y="184" on="1"/>
        <pt x="82" y="97" on="0"/>
        <pt x="194" y="8" on="0"/>
        <pt x="354" y="8" on="0"/>
        <pt x="464" y="92" on="0"/>
      </contour>
      <contour>
        <pt x="483" y="506" on="1"/>
        <pt x="483" y="185" on="1"/>
        <pt x="483" y="84" on="0"/>
        <pt x="360" y="-11" on="0"/>
        <pt x="188" y="-11" on="0"/>
        <pt x="63" y="84" on="0"/>
        <pt x="63" y="185" on="1"/>
        <pt x="63" y="507" on="1"/>
        <pt x="63" y="610" on="0"/>
        <pt x="176" y="716" on="0"/>
        <pt x="374" y="716" on="0"/>
        <pt x="483" y="604" on="0"/>
      </contour>
    </TTGlyph>
    <TTGlyph name="Ograve" xMin="63" yMin="-11" xMax="483" yMax="871">
      <contour>
        <pt x="292" y="730" on="1"/>
        <pt x="273" y="730" on="1"/>
        <pt x="210" y="843" on="1"/>
        <pt x="198" y="862" on="0"/>
        <pt x="214" y="869" on="1"/>
        <pt x="218" y="871" on="0"/>
        <pt x="222" y="871" on="1"/>
        <pt x="232" y="871" on="0"/>
        <pt x="237" y="858" on="1"/>
      </contour>
      <contour>
        <pt x="464" y="184" on="1"/>
        <pt x="464" y="510" on="1"/>
        <pt x="464" y="596" on="0"/>
        <pt x="368" y="695" on="0"/>
        <pt x="178" y="695" on="0"/>
        <pt x="82" y="594" on="0"/>
        <pt x="82" y="508" on="1"/>
        <pt x="82" y="184" on="1"/>
        <pt x="82" y="97" on="0"/>
        <pt x="194" y="8" on="0"/>
        <pt x="354" y="8" on="0"/>
        <pt x="464" y="92" on="0"/>
      </contour>
      <contour>
        <pt x="483" y="506" on="1"/>
        <pt x="483" y="185" on="1"/>
        <pt x="483" y="84" on="0"/>
        <pt x="360" y="-11" on="0"/>
        <pt x="188" y="-11" on="0"/>
        <pt x="63" y="84" on="0"/>
        <pt x="63" y="185" on="1"/>
        <pt x="63" y="507" on="1"/>
        <pt x="63" y="610" on="0"/>
        <pt x="176" y="716" on="0"/>
        <pt x="374" y="716" on="0"/>
        <pt x="483" y="604" on="0"/>
      </contour>
    </TTGlyph>
    <TTGlyph name="Ohungarumlaut" xMin="63" yMin="-11" xMax="483" yMax="872">
      <contour>
        <pt x="208" y="731" on="1"/>
        <pt x="189" y="731" on="1"/>
        <pt x="244" y="859" on="1"/>
        <pt x="249" y="872" on="0"/>
        <pt x="259" y="872" on="1"/>
        <pt x="263" y="872" on="0"/>
        <pt x="267" y="870" on="1"/>
        <pt x="283" y="863" on="0"/>
        <pt x="271" y="844" on="1"/>
      </contour>
      <contour>
        <pt x="320" y="731" on="1"/>
        <pt x="301" y="731" on="1"/>
        <pt x="356" y="859" on="1"/>
        <pt x="361" y="872" on="0"/>
        <pt x="371" y="872" on="1"/>
        <pt x="375" y="872" on="0"/>
        <pt x="379" y="870" on="1"/>
        <pt x="395" y="863" on="0"/>
        <pt x="383" y="844" on="1"/>
      </contour>
      <contour>
        <pt x="464" y="184" on="1"/>
        <pt x="464" y="510" on="1"/>
        <pt x="464" y="596" on="0"/>
        <pt x="368" y="695" on="0"/>
        <pt x="178" y="695" on="0"/>
        <pt x="82" y="594" on="0"/>
        <pt x="82" y="508" on="1"/>
        <pt x="82" y="184" on="1"/>
        <pt x="82" y="97" on="0"/>
        <pt x="194" y="8" on="0"/>
        <pt x="354" y="8" on="0"/>
        <pt x="464" y="92" on="0"/>
      </contour>
      <contour>
        <pt x="483" y="506" on="1"/>
        <pt x="483" y="185" on="1"/>
        <pt x="483" y="84" on="0"/>
        <pt x="360" y="-11" on="0"/>
        <pt x="188" y="-11" on="0"/>
        <pt x="63" y="84" on="0"/>
        <pt x="63" y="185" on="1"/>
        <pt x="63" y="507" on="1"/>
        <pt x="63" y="610" on="0"/>
        <pt x="176" y="716" on="0"/>
        <pt x="374" y="716" on="0"/>
        <pt x="483" y="604" on="0"/>
      </contour>
    </TTGlyph>
    <TTGlyph name="Omacron" xMin="63" yMin="-11" xMax="483" yMax="788">
      <contour>
        <pt x="377" y="769" on="1"/>
        <pt x="160" y="769" on="1"/>
        <pt x="160" y="788" on="1"/>
        <pt x="377" y="788" on="1"/>
      </contour>
      <contour>
        <pt x="464" y="184" on="1"/>
        <pt x="464" y="510" on="1"/>
        <pt x="464" y="596" on="0"/>
        <pt x="368" y="695" on="0"/>
        <pt x="178" y="695" on="0"/>
        <pt x="82" y="594" on="0"/>
        <pt x="82" y="508" on="1"/>
        <pt x="82" y="184" on="1"/>
        <pt x="82" y="97" on="0"/>
        <pt x="194" y="8" on="0"/>
        <pt x="354" y="8" on="0"/>
        <pt x="464" y="92" on="0"/>
      </contour>
      <contour>
        <pt x="483" y="506" on="1"/>
        <pt x="483" y="185" on="1"/>
        <pt x="483" y="84" on="0"/>
        <pt x="360" y="-11" on="0"/>
        <pt x="188" y="-11" on="0"/>
        <pt x="63" y="84" on="0"/>
        <pt x="63" y="185" on="1"/>
        <pt x="63" y="507" on="1"/>
        <pt x="63" y="610" on="0"/>
        <pt x="176" y="716" on="0"/>
        <pt x="374" y="716" on="0"/>
        <pt x="483" y="604" on="0"/>
      </contour>
    </TTGlyph>
    <TTGlyph name="Omega" xMin="78" yMin="0" xMax="592" yMax="707">
      <contour>
        <pt x="592" y="0" on="1"/>
        <pt x="364" y="0" on="1"/>
        <pt x="364" y="20" on="1"/>
        <pt x="431" y="20" on="0"/>
        <pt x="563" y="114" on="0"/>
        <pt x="563" y="196" on="1"/>
        <pt x="563" y="502" on="1"/>
        <pt x="563" y="597" on="0"/>
        <pt x="469" y="688" on="0"/>
        <pt x="391" y="688" on="1"/>
        <pt x="279" y="688" on="1"/>
        <pt x="201" y="688" on="0"/>
        <pt x="109" y="596" on="0"/>
        <pt x="109" y="503" on="1"/>
        <pt x="109" y="196" on="1"/>
        <pt x="109" y="113" on="0"/>
        <pt x="239" y="20" on="0"/>
        <pt x="306" y="20" on="1"/>
        <pt x="306" y="0" on="1"/>
        <pt x="78" y="0" on="1"/>
        <pt x="85" y="20" on="1"/>
        <pt x="215" y="20" on="1"/>
        <pt x="146" y="53" on="0"/>
        <pt x="91" y="138" on="0"/>
        <pt x="91" y="196" on="1"/>
        <pt x="91" y="503" on="1"/>
        <pt x="91" y="595" on="0"/>
        <pt x="185" y="707" on="0"/>
        <pt x="279" y="707" on="1"/>
        <pt x="391" y="707" on="1"/>
        <pt x="485" y="707" on="0"/>
        <pt x="579" y="595" on="0"/>
        <pt x="579" y="503" on="1"/>
        <pt x="579" y="196" on="1"/>
        <pt x="579" y="134" on="0"/>
        <pt x="523" y="55" on="0"/>
        <pt x="455" y="20" on="1"/>
        <pt x="583" y="20" on="1"/>
      </contour>
    </TTGlyph>
    <TTGlyph name="Omegatonos" xMin="78" yMin="0" xMax="686" yMax="709">
      <contour>
        <pt x="97" y="568" on="1"/>
        <pt x="78" y="568" on="1"/>
        <pt x="133" y="696" on="1"/>
        <pt x="138" y="709" on="0"/>
        <pt x="148" y="709" on="1"/>
        <pt x="152" y="709" on="0"/>
        <pt x="156" y="707" on="1"/>
        <pt x="172" y="700" on="0"/>
        <pt x="160" y="681" on="1"/>
      </contour>
      <contour>
        <pt x="686" y="0" on="1"/>
        <pt x="458" y="0" on="1"/>
        <pt x="458" y="20" on="1"/>
        <pt x="525" y="20" on="0"/>
        <pt x="657" y="114" on="0"/>
        <pt x="657" y="196" on="1"/>
        <pt x="657" y="502" on="1"/>
        <pt x="657" y="597" on="0"/>
        <pt x="563" y="688" on="0"/>
        <pt x="485" y="688" on="1"/>
        <pt x="373" y="688" on="1"/>
        <pt x="295" y="688" on="0"/>
        <pt x="203" y="596" on="0"/>
        <pt x="203" y="503" on="1"/>
        <pt x="203" y="196" on="1"/>
        <pt x="203" y="113" on="0"/>
        <pt x="333" y="20" on="0"/>
        <pt x="400" y="20" on="1"/>
        <pt x="400" y="0" on="1"/>
        <pt x="172" y="0" on="1"/>
        <pt x="179" y="20" on="1"/>
        <pt x="309" y="20" on="1"/>
        <pt x="240" y="53" on="0"/>
        <pt x="185" y="138" on="0"/>
        <pt x="185" y="196" on="1"/>
        <pt x="185" y="503" on="1"/>
        <pt x="185" y="595" on="0"/>
        <pt x="279" y="707" on="0"/>
        <pt x="373" y="707" on="1"/>
        <pt x="485" y="707" on="1"/>
        <pt x="579" y="707" on="0"/>
        <pt x="673" y="595" on="0"/>
        <pt x="673" y="503" on="1"/>
        <pt x="673" y="196" on="1"/>
        <pt x="673" y="134" on="0"/>
        <pt x="617" y="55" on="0"/>
        <pt x="549" y="20" on="1"/>
        <pt x="677" y="20" on="1"/>
      </contour>
    </TTGlyph>
    <TTGlyph name="Omicron" xMin="62" yMin="-11" xMax="482" yMax="716">
      <contour>
        <pt x="463" y="184" on="1"/>
        <pt x="463" y="510" on="1"/>
        <pt x="463" y="596" on="0"/>
        <pt x="367" y="695" on="0"/>
        <pt x="177" y="695" on="0"/>
        <pt x="81" y="594" on="0"/>
        <pt x="81" y="508" on="1"/>
        <pt x="81" y="184" on="1"/>
        <pt x="81" y="97" on="0"/>
        <pt x="193" y="8" on="0"/>
        <pt x="353" y="8" on="0"/>
        <pt x="463" y="92" on="0"/>
      </contour>
      <contour>
        <pt x="482" y="506" on="1"/>
        <pt x="482" y="185" on="1"/>
        <pt x="482" y="84" on="0"/>
        <pt x="359" y="-11" on="0"/>
        <pt x="187" y="-11" on="0"/>
        <pt x="62" y="84" on="0"/>
        <pt x="62" y="185" on="1"/>
        <pt x="62" y="507" on="1"/>
        <pt x="62" y="610" on="0"/>
        <pt x="175" y="716" on="0"/>
        <pt x="373" y="716" on="0"/>
        <pt x="482" y="604" on="0"/>
      </contour>
    </TTGlyph>
    <TTGlyph name="Omicrontonos" xMin="78" yMin="-11" xMax="615" yMax="716">
      <contour>
        <pt x="97" y="568" on="1"/>
        <pt x="78" y="568" on="1"/>
        <pt x="133" y="696" on="1"/>
        <pt x="140" y="713" on="0"/>
        <pt x="172" y="700" on="0"/>
        <pt x="160" y="681" on="1"/>
      </contour>
      <contour>
        <pt x="596" y="184" on="1"/>
        <pt x="596" y="510" on="1"/>
        <pt x="596" y="596" on="0"/>
        <pt x="500" y="695" on="0"/>
        <pt x="310" y="695" on="0"/>
        <pt x="214" y="594" on="0"/>
        <pt x="214" y="508" on="1"/>
        <pt x="214" y="184" on="1"/>
        <pt x="214" y="97" on="0"/>
        <pt x="326" y="8" on="0"/>
        <pt x="486" y="8" on="0"/>
        <pt x="596" y="92" on="0"/>
      </contour>
      <contour>
        <pt x="615" y="506" on="1"/>
        <pt x="615" y="185" on="1"/>
        <pt x="615" y="84" on="0"/>
        <pt x="492" y="-11" on="0"/>
        <pt x="320" y="-11" on="0"/>
        <pt x="195" y="84" on="0"/>
        <pt x="195" y="185" on="1"/>
        <pt x="195" y="507" on="1"/>
        <pt x="195" y="610" on="0"/>
        <pt x="308" y="716" on="0"/>
        <pt x="506" y="716" on="0"/>
        <pt x="615" y="604" on="0"/>
      </contour>
    </TTGlyph>
    <TTGlyph name="Oslash" xMin="78" yMin="-114" xMax="498" yMax="817">
      <contour>
        <pt x="157" y="49" on="1"/>
        <pt x="376" y="680" on="1"/>
        <pt x="334" y="695" on="0"/>
        <pt x="288" y="695" on="1"/>
        <pt x="193" y="695" on="0"/>
        <pt x="97" y="594" on="0"/>
        <pt x="97" y="508" on="1"/>
        <pt x="97" y="184" on="1"/>
        <pt x="97" y="97" on="0"/>
      </contour>
      <contour>
        <pt x="479" y="184" on="1"/>
        <pt x="479" y="510" on="1"/>
        <pt x="479" y="628" on="0"/>
        <pt x="393" y="672" on="1"/>
        <pt x="172" y="38" on="1"/>
        <pt x="221" y="8" on="0"/>
        <pt x="369" y="8" on="0"/>
        <pt x="479" y="92" on="0"/>
      </contour>
      <contour>
        <pt x="120" y="-114" on="1"/>
        <pt x="100" y="-114" on="1"/>
        <pt x="150" y="29" on="1"/>
        <pt x="78" y="82" on="0"/>
        <pt x="78" y="185" on="1"/>
        <pt x="78" y="507" on="1"/>
        <pt x="78" y="610" on="0"/>
        <pt x="191" y="716" on="0"/>
        <pt x="290" y="716" on="1"/>
        <pt x="340" y="716" on="0"/>
        <pt x="383" y="700" on="1"/>
        <pt x="424" y="817" on="1"/>
        <pt x="444" y="817" on="1"/>
        <pt x="400" y="692" on="1"/>
        <pt x="498" y="641" on="0"/>
        <pt x="498" y="506" on="1"/>
        <pt x="498" y="185" on="1"/>
        <pt x="498" y="84" on="0"/>
        <pt x="375" y="-11" on="0"/>
        <pt x="219" y="-11" on="0"/>
        <pt x="166" y="19" on="1"/>
      </contour>
    </TTGlyph>
    <TTGlyph name="Otilde" xMin="63" yMin="-11" xMax="483" yMax="825">
      <contour>
        <pt x="210" y="825" on="1"/>
        <pt x="237" y="825" on="0"/>
        <pt x="302" y="793" on="1"/>
        <pt x="327" y="781" on="0"/>
        <pt x="391" y="781" on="0"/>
        <pt x="422" y="813" on="1"/>
        <pt x="432" y="796" on="1"/>
        <pt x="394" y="761" on="0"/>
        <pt x="350" y="761" on="1"/>
        <pt x="324" y="761" on="0"/>
        <pt x="274" y="784" on="0"/>
        <pt x="226" y="804" on="0"/>
        <pt x="206" y="804" on="1"/>
        <pt x="160" y="804" on="0"/>
        <pt x="122" y="760" on="1"/>
        <pt x="111" y="776" on="1"/>
        <pt x="158" y="825" on="0"/>
      </contour>
      <contour>
        <pt x="464" y="184" on="1"/>
        <pt x="464" y="510" on="1"/>
        <pt x="464" y="596" on="0"/>
        <pt x="368" y="695" on="0"/>
        <pt x="178" y="695" on="0"/>
        <pt x="82" y="594" on="0"/>
        <pt x="82" y="508" on="1"/>
        <pt x="82" y="184" on="1"/>
        <pt x="82" y="97" on="0"/>
        <pt x="194" y="8" on="0"/>
        <pt x="354" y="8" on="0"/>
        <pt x="464" y="92" on="0"/>
      </contour>
      <contour>
        <pt x="483" y="506" on="1"/>
        <pt x="483" y="185" on="1"/>
        <pt x="483" y="84" on="0"/>
        <pt x="360" y="-11" on="0"/>
        <pt x="188" y="-11" on="0"/>
        <pt x="63" y="84" on="0"/>
        <pt x="63" y="185" on="1"/>
        <pt x="63" y="507" on="1"/>
        <pt x="63" y="610" on="0"/>
        <pt x="176" y="716" on="0"/>
        <pt x="374" y="716" on="0"/>
        <pt x="483" y="604" on="0"/>
      </contour>
    </TTGlyph>
    <TTGlyph name="P" xMin="78" yMin="0" xMax="512" yMax="700">
      <contour>
        <pt x="97" y="0" on="1"/>
        <pt x="78" y="0" on="1"/>
        <pt x="78" y="700" on="1"/>
        <pt x="324" y="700" on="1"/>
        <pt x="419" y="700" on="0"/>
        <pt x="512" y="584" on="0"/>
        <pt x="512" y="486" on="1"/>
        <pt x="512" y="281" on="0"/>
        <pt x="311" y="281" on="1"/>
        <pt x="97" y="281" on="1"/>
      </contour>
      <contour>
        <pt x="97" y="300" on="1"/>
        <pt x="309" y="300" on="1"/>
        <pt x="493" y="300" on="0"/>
        <pt x="493" y="486" on="1"/>
        <pt x="493" y="575" on="0"/>
        <pt x="412" y="680" on="0"/>
        <pt x="325" y="680" on="1"/>
        <pt x="97" y="680" on="1"/>
      </contour>
    </TTGlyph>
    <TTGlyph name="Phi" xMin="78" yMin="-30" xMax="605" yMax="711">
      <contour>
        <pt x="586" y="215" on="1"/>
        <pt x="586" y="521" on="1"/>
        <pt x="586" y="567" on="0"/>
        <pt x="570" y="603" on="1"/>
        <pt x="542" y="664" on="0"/>
        <pt x="477" y="686" on="1"/>
        <pt x="454" y="694" on="0"/>
        <pt x="442" y="694" on="1"/>
        <pt x="391" y="694" on="0"/>
        <pt x="349" y="646" on="0"/>
        <pt x="349" y="596" on="1"/>
        <pt x="349" y="48" on="1"/>
        <pt x="423" y="48" on="1"/>
        <pt x="502" y="48" on="0"/>
        <pt x="586" y="139" on="0"/>
      </contour>
      <contour>
        <pt x="417" y="30" on="1"/>
        <pt x="349" y="30" on="1"/>
        <pt x="349" y="-30" on="1"/>
        <pt x="330" y="-26" on="1"/>
        <pt x="330" y="30" on="1"/>
        <pt x="266" y="30" on="1"/>
        <pt x="171" y="30" on="0"/>
        <pt x="78" y="134" on="0"/>
        <pt x="78" y="225" on="1"/>
        <pt x="78" y="517" on="1"/>
        <pt x="78" y="669" on="0"/>
        <pt x="194" y="706" on="1"/>
        <pt x="202" y="691" on="1"/>
        <pt x="97" y="656" on="0"/>
        <pt x="97" y="517" on="1"/>
        <pt x="97" y="215" on="1"/>
        <pt x="97" y="132" on="0"/>
        <pt x="186" y="48" on="0"/>
        <pt x="266" y="48" on="1"/>
        <pt x="330" y="48" on="1"/>
        <pt x="330" y="605" on="1"/>
        <pt x="330" y="655" on="0"/>
        <pt x="382" y="711" on="0"/>
        <pt x="428" y="711" on="1"/>
        <pt x="507" y="711" on="0"/>
        <pt x="605" y="601" on="0"/>
        <pt x="605" y="511" on="1"/>
        <pt x="605" y="225" on="1"/>
        <pt x="605" y="134" on="0"/>
        <pt x="512" y="30" on="0"/>
      </contour>
    </TTGlyph>
    <TTGlyph name="Pi" xMin="80" yMin="0" xMax="510" yMax="700">
      <contour>
        <pt x="510" y="0" on="1"/>
        <pt x="491" y="0" on="1"/>
        <pt x="491" y="680" on="1"/>
        <pt x="99" y="680" on="1"/>
        <pt x="99" y="0" on="1"/>
        <pt x="80" y="0" on="1"/>
        <pt x="80" y="700" on="1"/>
        <pt x="510" y="700" on="1"/>
      </contour>
    </TTGlyph>
    <TTGlyph name="Psi" xMin="44" yMin="0" xMax="571" yMax="709">
      <contour>
        <pt x="314" y="0" on="1"/>
        <pt x="295" y="0" on="1"/>
        <pt x="295" y="212" on="1"/>
        <pt x="232" y="212" on="1"/>
        <pt x="137" y="212" on="0"/>
        <pt x="44" y="315" on="0"/>
        <pt x="44" y="406" on="1"/>
        <pt x="44" y="700" on="1"/>
        <pt x="63" y="700" on="1"/>
        <pt x="63" y="406" on="1"/>
        <pt x="63" y="315" on="0"/>
        <pt x="155" y="231" on="0"/>
        <pt x="232" y="231" on="1"/>
        <pt x="295" y="231" on="1"/>
        <pt x="295" y="700" on="1"/>
        <pt x="314" y="700" on="1"/>
        <pt x="314" y="231" on="1"/>
        <pt x="383" y="231" on="1"/>
        <pt x="467" y="231" on="0"/>
        <pt x="552" y="322" on="0"/>
        <pt x="552" y="406" on="1"/>
        <pt x="552" y="564" on="1"/>
        <pt x="552" y="644" on="0"/>
        <pt x="530" y="672" on="1"/>
        <pt x="520" y="683" on="0"/>
        <pt x="500" y="700" on="0"/>
        <pt x="498" y="702" on="1"/>
        <pt x="515" y="709" on="1"/>
        <pt x="542" y="692" on="0"/>
        <pt x="568" y="633" on="0"/>
        <pt x="571" y="591" on="0"/>
        <pt x="571" y="549" on="1"/>
        <pt x="571" y="406" on="1"/>
        <pt x="571" y="315" on="0"/>
        <pt x="478" y="212" on="0"/>
        <pt x="383" y="212" on="1"/>
        <pt x="314" y="212" on="1"/>
      </contour>
    </TTGlyph>
    <TTGlyph name="Q" xMin="63" yMin="-94" xMax="483" yMax="716">
      <contour>
        <pt x="463" y="186" on="1"/>
        <pt x="463" y="516" on="1"/>
        <pt x="463" y="605" on="0"/>
        <pt x="356" y="696" on="0"/>
        <pt x="193" y="696" on="0"/>
        <pt x="84" y="610" on="0"/>
        <pt x="84" y="516" on="1"/>
        <pt x="84" y="184" on="1"/>
        <pt x="84" y="136" on="0"/>
        <pt x="102" y="100" on="1"/>
        <pt x="132" y="38" on="0"/>
        <pt x="210" y="16" on="1"/>
        <pt x="239" y="8" on="0"/>
        <pt x="271" y="8" on="0"/>
        <pt x="274" y="8" on="1"/>
        <pt x="270" y="32" on="0"/>
        <pt x="270" y="81" on="1"/>
        <pt x="270" y="174" on="1"/>
        <pt x="290" y="174" on="1"/>
        <pt x="291" y="81" on="1"/>
        <pt x="291" y="37" on="0"/>
        <pt x="296" y="9" on="1"/>
        <pt x="375" y="13" on="0"/>
        <pt x="463" y="112" on="0"/>
      </contour>
      <contour>
        <pt x="428" y="-75" on="1"/>
        <pt x="428" y="-94" on="1"/>
        <pt x="304" y="-94" on="0"/>
        <pt x="277" y="-11" on="1"/>
        <pt x="187" y="-11" on="0"/>
        <pt x="63" y="85" on="0"/>
        <pt x="63" y="185" on="1"/>
        <pt x="63" y="507" on="1"/>
        <pt x="63" y="610" on="0"/>
        <pt x="176" y="716" on="0"/>
        <pt x="374" y="716" on="0"/>
        <pt x="483" y="604" on="0"/>
        <pt x="483" y="506" on="1"/>
        <pt x="483" y="185" on="1"/>
        <pt x="483" y="96" on="0"/>
        <pt x="384" y="-1" on="0"/>
        <pt x="300" y="-11" on="1"/>
        <pt x="314" y="-74" on="0"/>
      </contour>
    </TTGlyph>
    <TTGlyph name="R" xMin="78" yMin="0" xMax="513" yMax="700">
      <contour>
        <pt x="98" y="300" on="1"/>
        <pt x="316" y="300" on="1"/>
        <pt x="407" y="300" on="0"/>
        <pt x="492" y="410" on="0"/>
        <pt x="492" y="578" on="0"/>
        <pt x="403" y="680" on="0"/>
        <pt x="316" y="680" on="1"/>
        <pt x="98" y="680" on="1"/>
      </contour>
      <contour>
        <pt x="513" y="0" on="1"/>
        <pt x="492" y="0" on="1"/>
        <pt x="357" y="283" on="1"/>
        <pt x="339" y="281" on="0"/>
        <pt x="332" y="281" on="1"/>
        <pt x="98" y="281" on="1"/>
        <pt x="98" y="0" on="1"/>
        <pt x="78" y="0" on="1"/>
        <pt x="78" y="700" on="1"/>
        <pt x="317" y="700" on="1"/>
        <pt x="416" y="700" on="0"/>
        <pt x="512" y="584" on="0"/>
        <pt x="512" y="486" on="1"/>
        <pt x="512" y="434" on="0"/>
        <pt x="488" y="378" on="1"/>
        <pt x="475" y="347" on="0"/>
        <pt x="417" y="299" on="0"/>
        <pt x="376" y="287" on="1"/>
      </contour>
    </TTGlyph>
    <TTGlyph name="Racute" xMin="78" yMin="0" xMax="513" yMax="871">
      <contour>
        <pt x="246" y="730" on="1"/>
        <pt x="227" y="730" on="1"/>
        <pt x="282" y="858" on="1"/>
        <pt x="287" y="871" on="0"/>
        <pt x="297" y="871" on="1"/>
        <pt x="301" y="871" on="0"/>
        <pt x="305" y="869" on="1"/>
        <pt x="321" y="862" on="0"/>
        <pt x="309" y="843" on="1"/>
      </contour>
      <contour>
        <pt x="98" y="300" on="1"/>
        <pt x="316" y="300" on="1"/>
        <pt x="407" y="300" on="0"/>
        <pt x="492" y="410" on="0"/>
        <pt x="492" y="578" on="0"/>
        <pt x="403" y="680" on="0"/>
        <pt x="316" y="680" on="1"/>
        <pt x="98" y="680" on="1"/>
      </contour>
      <contour>
        <pt x="513" y="0" on="1"/>
        <pt x="492" y="0" on="1"/>
        <pt x="357" y="283" on="1"/>
        <pt x="339" y="281" on="0"/>
        <pt x="332" y="281" on="1"/>
        <pt x="98" y="281" on="1"/>
        <pt x="98" y="0" on="1"/>
        <pt x="78" y="0" on="1"/>
        <pt x="78" y="700" on="1"/>
        <pt x="317" y="700" on="1"/>
        <pt x="416" y="700" on="0"/>
        <pt x="512" y="584" on="0"/>
        <pt x="512" y="486" on="1"/>
        <pt x="512" y="434" on="0"/>
        <pt x="488" y="378" on="1"/>
        <pt x="475" y="347" on="0"/>
        <pt x="417" y="299" on="0"/>
        <pt x="376" y="287" on="1"/>
      </contour>
    </TTGlyph>
    <TTGlyph name="Rcaron" xMin="78" yMin="0" xMax="513" yMax="890">
      <contour>
        <pt x="427" y="875" on="1"/>
        <pt x="285" y="734" on="1"/>
        <pt x="137" y="875" on="1"/>
        <pt x="152" y="890" on="1"/>
        <pt x="284" y="764" on="1"/>
        <pt x="412" y="890" on="1"/>
      </contour>
      <contour>
        <pt x="98" y="300" on="1"/>
        <pt x="316" y="300" on="1"/>
        <pt x="407" y="300" on="0"/>
        <pt x="492" y="410" on="0"/>
        <pt x="492" y="578" on="0"/>
        <pt x="403" y="680" on="0"/>
        <pt x="316" y="680" on="1"/>
        <pt x="98" y="680" on="1"/>
      </contour>
      <contour>
        <pt x="513" y="0" on="1"/>
        <pt x="492" y="0" on="1"/>
        <pt x="357" y="283" on="1"/>
        <pt x="339" y="281" on="0"/>
        <pt x="332" y="281" on="1"/>
        <pt x="98" y="281" on="1"/>
        <pt x="98" y="0" on="1"/>
        <pt x="78" y="0" on="1"/>
        <pt x="78" y="700" on="1"/>
        <pt x="317" y="700" on="1"/>
        <pt x="416" y="700" on="0"/>
        <pt x="512" y="584" on="0"/>
        <pt x="512" y="486" on="1"/>
        <pt x="512" y="434" on="0"/>
        <pt x="488" y="378" on="1"/>
        <pt x="475" y="347" on="0"/>
        <pt x="417" y="299" on="0"/>
        <pt x="376" y="287" on="1"/>
      </contour>
    </TTGlyph>
    <TTGlyph name="Rcommaaccent" xMin="78" yMin="-184" xMax="513" yMax="700">
      <contour>
        <pt x="246" y="-184" on="1"/>
        <pt x="230" y="-173" on="1"/>
        <pt x="255" y="-159" on="0"/>
        <pt x="286" y="-123" on="0"/>
        <pt x="289" y="-112" on="1"/>
        <pt x="292" y="-101" on="1"/>
        <pt x="290" y="-101" on="1"/>
        <pt x="277" y="-98" on="0"/>
        <pt x="277" y="-71" on="0"/>
        <pt x="307" y="-71" on="0"/>
        <pt x="307" y="-86" on="1"/>
        <pt x="307" y="-134" on="0"/>
      </contour>
      <contour>
        <pt x="98" y="300" on="1"/>
        <pt x="316" y="300" on="1"/>
        <pt x="407" y="300" on="0"/>
        <pt x="492" y="410" on="0"/>
        <pt x="492" y="578" on="0"/>
        <pt x="403" y="680" on="0"/>
        <pt x="316" y="680" on="1"/>
        <pt x="98" y="680" on="1"/>
      </contour>
      <contour>
        <pt x="513" y="0" on="1"/>
        <pt x="492" y="0" on="1"/>
        <pt x="357" y="283" on="1"/>
        <pt x="339" y="281" on="0"/>
        <pt x="332" y="281" on="1"/>
        <pt x="98" y="281" on="1"/>
        <pt x="98" y="0" on="1"/>
        <pt x="78" y="0" on="1"/>
        <pt x="78" y="700" on="1"/>
        <pt x="317" y="700" on="1"/>
        <pt x="416" y="700" on="0"/>
        <pt x="512" y="584" on="0"/>
        <pt x="512" y="486" on="1"/>
        <pt x="512" y="434" on="0"/>
        <pt x="488" y="378" on="1"/>
        <pt x="475" y="347" on="0"/>
        <pt x="417" y="299" on="0"/>
        <pt x="376" y="287" on="1"/>
      </contour>
    </TTGlyph>
    <TTGlyph name="Rho" xMin="78" yMin="0" xMax="512" yMax="700">
      <contour>
        <pt x="97" y="0" on="1"/>
        <pt x="78" y="0" on="1"/>
        <pt x="78" y="700" on="1"/>
        <pt x="324" y="700" on="1"/>
        <pt x="419" y="700" on="0"/>
        <pt x="512" y="584" on="0"/>
        <pt x="512" y="486" on="1"/>
        <pt x="512" y="281" on="0"/>
        <pt x="311" y="281" on="1"/>
        <pt x="97" y="281" on="1"/>
      </contour>
      <contour>
        <pt x="97" y="300" on="1"/>
        <pt x="309" y="300" on="1"/>
        <pt x="493" y="300" on="0"/>
        <pt x="493" y="486" on="1"/>
        <pt x="493" y="575" on="0"/>
        <pt x="412" y="680" on="0"/>
        <pt x="325" y="680" on="1"/>
        <pt x="97" y="680" on="1"/>
      </contour>
    </TTGlyph>
    <TTGlyph name="S" xMin="37" yMin="-11" xMax="512" yMax="710">
      <contour>
        <pt x="37" y="178" on="1"/>
        <pt x="59" y="178" on="1"/>
        <pt x="59" y="116" on="0"/>
        <pt x="170" y="7" on="0"/>
        <pt x="370" y="7" on="0"/>
        <pt x="491" y="93" on="0"/>
        <pt x="491" y="187" on="1"/>
        <pt x="491" y="236" on="0"/>
        <pt x="426" y="307" on="0"/>
        <pt x="330" y="343" on="0"/>
        <pt x="216" y="383" on="0"/>
        <pt x="120" y="419" on="0"/>
        <pt x="55" y="489" on="0"/>
        <pt x="55" y="538" on="1"/>
        <pt x="55" y="608" on="0"/>
        <pt x="171" y="710" on="0"/>
        <pt x="280" y="710" on="1"/>
        <pt x="363" y="710" on="0"/>
        <pt x="426" y="680" on="1"/>
        <pt x="418" y="660" on="1"/>
        <pt x="358" y="691" on="0"/>
        <pt x="194" y="691" on="0"/>
        <pt x="76" y="609" on="0"/>
        <pt x="76" y="535" on="1"/>
        <pt x="76" y="485" on="0"/>
        <pt x="166" y="417" on="0"/>
        <pt x="294" y="377" on="0"/>
        <pt x="422" y="332" on="0"/>
        <pt x="512" y="249" on="0"/>
        <pt x="512" y="187" on="1"/>
        <pt x="512" y="96" on="0"/>
        <pt x="396" y="-11" on="0"/>
        <pt x="164" y="-11" on="0"/>
        <pt x="39" y="104" on="0"/>
      </contour>
    </TTGlyph>
    <TTGlyph name="Sacute" xMin="37" yMin="-11" xMax="512" yMax="876">
      <contour>
        <pt x="259" y="735" on="1"/>
        <pt x="240" y="735" on="1"/>
        <pt x="295" y="863" on="1"/>
        <pt x="300" y="876" on="0"/>
        <pt x="310" y="876" on="1"/>
        <pt x="314" y="876" on="0"/>
        <pt x="318" y="874" on="1"/>
        <pt x="334" y="867" on="0"/>
        <pt x="322" y="848" on="1"/>
      </contour>
      <contour>
        <pt x="37" y="178" on="1"/>
        <pt x="59" y="178" on="1"/>
        <pt x="59" y="116" on="0"/>
        <pt x="170" y="7" on="0"/>
        <pt x="370" y="7" on="0"/>
        <pt x="491" y="93" on="0"/>
        <pt x="491" y="187" on="1"/>
        <pt x="491" y="236" on="0"/>
        <pt x="426" y="307" on="0"/>
        <pt x="330" y="343" on="0"/>
        <pt x="216" y="383" on="0"/>
        <pt x="120" y="419" on="0"/>
        <pt x="55" y="489" on="0"/>
        <pt x="55" y="538" on="1"/>
        <pt x="55" y="608" on="0"/>
        <pt x="171" y="710" on="0"/>
        <pt x="280" y="710" on="1"/>
        <pt x="363" y="710" on="0"/>
        <pt x="426" y="680" on="1"/>
        <pt x="418" y="660" on="1"/>
        <pt x="358" y="691" on="0"/>
        <pt x="194" y="691" on="0"/>
        <pt x="76" y="609" on="0"/>
        <pt x="76" y="535" on="1"/>
        <pt x="76" y="485" on="0"/>
        <pt x="166" y="417" on="0"/>
        <pt x="294" y="377" on="0"/>
        <pt x="422" y="332" on="0"/>
        <pt x="512" y="249" on="0"/>
        <pt x="512" y="187" on="1"/>
        <pt x="512" y="96" on="0"/>
        <pt x="396" y="-11" on="0"/>
        <pt x="164" y="-11" on="0"/>
        <pt x="39" y="104" on="0"/>
      </contour>
    </TTGlyph>
    <TTGlyph name="Scaron" xMin="37" yMin="-11" xMax="512" yMax="940">
      <contour>
        <pt x="444" y="925" on="1"/>
        <pt x="302" y="784" on="1"/>
        <pt x="154" y="925" on="1"/>
        <pt x="169" y="940" on="1"/>
        <pt x="301" y="814" on="1"/>
        <pt x="429" y="940" on="1"/>
      </contour>
      <contour>
        <pt x="37" y="178" on="1"/>
        <pt x="59" y="178" on="1"/>
        <pt x="59" y="116" on="0"/>
        <pt x="170" y="7" on="0"/>
        <pt x="370" y="7" on="0"/>
        <pt x="491" y="93" on="0"/>
        <pt x="491" y="187" on="1"/>
        <pt x="491" y="236" on="0"/>
        <pt x="426" y="307" on="0"/>
        <pt x="330" y="343" on="0"/>
        <pt x="216" y="383" on="0"/>
        <pt x="120" y="419" on="0"/>
        <pt x="55" y="489" on="0"/>
        <pt x="55" y="538" on="1"/>
        <pt x="55" y="608" on="0"/>
        <pt x="171" y="710" on="0"/>
        <pt x="280" y="710" on="1"/>
        <pt x="363" y="710" on="0"/>
        <pt x="426" y="680" on="1"/>
        <pt x="418" y="660" on="1"/>
        <pt x="358" y="691" on="0"/>
        <pt x="194" y="691" on="0"/>
        <pt x="76" y="609" on="0"/>
        <pt x="76" y="535" on="1"/>
        <pt x="76" y="485" on="0"/>
        <pt x="166" y="417" on="0"/>
        <pt x="294" y="377" on="0"/>
        <pt x="422" y="332" on="0"/>
        <pt x="512" y="249" on="0"/>
        <pt x="512" y="187" on="1"/>
        <pt x="512" y="96" on="0"/>
        <pt x="396" y="-11" on="0"/>
        <pt x="164" y="-11" on="0"/>
        <pt x="39" y="104" on="0"/>
      </contour>
    </TTGlyph>
    <TTGlyph name="Scircumflex" xMin="37" yMin="-11" xMax="512" yMax="913">
      <contour>
        <pt x="436" y="772" on="1"/>
        <pt x="419" y="756" on="1"/>
        <pt x="293" y="883" on="1"/>
        <pt x="162" y="756" on="1"/>
        <pt x="146" y="772" on="1"/>
        <pt x="294" y="913" on="1"/>
      </contour>
      <contour>
        <pt x="37" y="178" on="1"/>
        <pt x="59" y="178" on="1"/>
        <pt x="59" y="116" on="0"/>
        <pt x="170" y="7" on="0"/>
        <pt x="370" y="7" on="0"/>
        <pt x="491" y="93" on="0"/>
        <pt x="491" y="187" on="1"/>
        <pt x="491" y="236" on="0"/>
        <pt x="426" y="307" on="0"/>
        <pt x="330" y="343" on="0"/>
        <pt x="216" y="383" on="0"/>
        <pt x="120" y="419" on="0"/>
        <pt x="55" y="489" on="0"/>
        <pt x="55" y="538" on="1"/>
        <pt x="55" y="608" on="0"/>
        <pt x="171" y="710" on="0"/>
        <pt x="280" y="710" on="1"/>
        <pt x="363" y="710" on="0"/>
        <pt x="426" y="680" on="1"/>
        <pt x="418" y="660" on="1"/>
        <pt x="358" y="691" on="0"/>
        <pt x="194" y="691" on="0"/>
        <pt x="76" y="609" on="0"/>
        <pt x="76" y="535" on="1"/>
        <pt x="76" y="485" on="0"/>
        <pt x="166" y="417" on="0"/>
        <pt x="294" y="377" on="0"/>
        <pt x="422" y="332" on="0"/>
        <pt x="512" y="249" on="0"/>
        <pt x="512" y="187" on="1"/>
        <pt x="512" y="96" on="0"/>
        <pt x="396" y="-11" on="0"/>
        <pt x="164" y="-11" on="0"/>
        <pt x="39" y="104" on="0"/>
      </contour>
    </TTGlyph>
    <TTGlyph name="Scommaaccent" xMin="37" yMin="-184" xMax="512" yMax="710">
      <contour>
        <pt x="240" y="-184" on="1"/>
        <pt x="224" y="-173" on="1"/>
        <pt x="249" y="-159" on="0"/>
        <pt x="280" y="-123" on="0"/>
        <pt x="283" y="-112" on="1"/>
        <pt x="286" y="-101" on="1"/>
        <pt x="284" y="-101" on="1"/>
        <pt x="271" y="-98" on="0"/>
        <pt x="271" y="-71" on="0"/>
        <pt x="301" y="-71" on="0"/>
        <pt x="301" y="-86" on="1"/>
        <pt x="301" y="-134" on="0"/>
      </contour>
      <contour>
        <pt x="37" y="178" on="1"/>
        <pt x="59" y="178" on="1"/>
        <pt x="59" y="116" on="0"/>
        <pt x="170" y="7" on="0"/>
        <pt x="370" y="7" on="0"/>
        <pt x="491" y="93" on="0"/>
        <pt x="491" y="187" on="1"/>
        <pt x="491" y="236" on="0"/>
        <pt x="426" y="307" on="0"/>
        <pt x="330" y="343" on="0"/>
        <pt x="216" y="383" on="0"/>
        <pt x="120" y="419" on="0"/>
        <pt x="55" y="489" on="0"/>
        <pt x="55" y="538" on="1"/>
        <pt x="55" y="608" on="0"/>
        <pt x="171" y="710" on="0"/>
        <pt x="280" y="710" on="1"/>
        <pt x="363" y="710" on="0"/>
        <pt x="426" y="680" on="1"/>
        <pt x="418" y="660" on="1"/>
        <pt x="358" y="691" on="0"/>
        <pt x="194" y="691" on="0"/>
        <pt x="76" y="609" on="0"/>
        <pt x="76" y="535" on="1"/>
        <pt x="76" y="485" on="0"/>
        <pt x="166" y="417" on="0"/>
        <pt x="294" y="377" on="0"/>
        <pt x="422" y="332" on="0"/>
        <pt x="512" y="249" on="0"/>
        <pt x="512" y="187" on="1"/>
        <pt x="512" y="96" on="0"/>
        <pt x="396" y="-11" on="0"/>
        <pt x="164" y="-11" on="0"/>
        <pt x="39" y="104" on="0"/>
      </contour>
    </TTGlyph>
    <TTGlyph name="Sigma" xMin="78" yMin="0" xMax="546" yMax="700">
      <contour>
        <pt x="526" y="113" on="1"/>
        <pt x="546" y="106" on="1"/>
        <pt x="530" y="50" on="0"/>
        <pt x="460" y="0" on="0"/>
        <pt x="401" y="0" on="1"/>
        <pt x="78" y="0" on="1"/>
        <pt x="304" y="384" on="1"/>
        <pt x="94" y="700" on="1"/>
        <pt x="522" y="700" on="1"/>
        <pt x="514" y="678" on="1"/>
        <pt x="132" y="678" on="1"/>
        <pt x="327" y="384" on="1"/>
        <pt x="112" y="20" on="1"/>
        <pt x="385" y="20" on="1"/>
        <pt x="444" y="20" on="0"/>
        <pt x="510" y="57" on="0"/>
      </contour>
    </TTGlyph>
    <TTGlyph name="T" xMin="0" yMin="0" xMax="402" yMax="700">
      <contour>
        <pt x="208" y="0" on="1"/>
        <pt x="190" y="0" on="1"/>
        <pt x="189" y="680" on="1"/>
        <pt x="0" y="680" on="1"/>
        <pt x="0" y="700" on="1"/>
        <pt x="402" y="700" on="1"/>
        <pt x="402" y="680" on="1"/>
        <pt x="208" y="680" on="1"/>
      </contour>
    </TTGlyph>
    <TTGlyph name="Tau" xMin="78" yMin="0" xMax="480" yMax="700">
      <contour>
        <pt x="286" y="0" on="1"/>
        <pt x="268" y="0" on="1"/>
        <pt x="267" y="680" on="1"/>
        <pt x="78" y="680" on="1"/>
        <pt x="78" y="700" on="1"/>
        <pt x="480" y="700" on="1"/>
        <pt x="480" y="680" on="1"/>
        <pt x="286" y="680" on="1"/>
      </contour>
    </TTGlyph>
    <TTGlyph name="Tbar" xMin="0" yMin="0" xMax="402" yMax="788">
      <contour>
        <pt x="307" y="769" on="1"/>
        <pt x="90" y="769" on="1"/>
        <pt x="90" y="788" on="1"/>
        <pt x="307" y="788" on="1"/>
      </contour>
      <contour>
        <pt x="208" y="0" on="1"/>
        <pt x="190" y="0" on="1"/>
        <pt x="189" y="680" on="1"/>
        <pt x="0" y="680" on="1"/>
        <pt x="0" y="700" on="1"/>
        <pt x="402" y="700" on="1"/>
        <pt x="402" y="680" on="1"/>
        <pt x="208" y="680" on="1"/>
      </contour>
    </TTGlyph>
    <TTGlyph name="Tcaron" xMin="0" yMin="0" xMax="402" yMax="890">
      <contour>
        <pt x="344" y="875" on="1"/>
        <pt x="202" y="734" on="1"/>
        <pt x="54" y="875" on="1"/>
        <pt x="69" y="890" on="1"/>
        <pt x="201" y="764" on="1"/>
        <pt x="329" y="890" on="1"/>
      </contour>
      <contour>
        <pt x="208" y="0" on="1"/>
        <pt x="190" y="0" on="1"/>
        <pt x="189" y="680" on="1"/>
        <pt x="0" y="680" on="1"/>
        <pt x="0" y="700" on="1"/>
        <pt x="402" y="700" on="1"/>
        <pt x="402" y="680" on="1"/>
        <pt x="208" y="680" on="1"/>
      </contour>
    </TTGlyph>
    <TTGlyph name="Tcommaaccent" xMin="0" yMin="-184" xMax="402" yMax="700">
      <contour>
        <pt x="166" y="-184" on="1"/>
        <pt x="150" y="-173" on="1"/>
        <pt x="175" y="-159" on="0"/>
        <pt x="206" y="-123" on="0"/>
        <pt x="209" y="-112" on="1"/>
        <pt x="212" y="-101" on="1"/>
        <pt x="210" y="-101" on="1"/>
        <pt x="197" y="-98" on="0"/>
        <pt x="197" y="-71" on="0"/>
        <pt x="227" y="-71" on="0"/>
        <pt x="227" y="-86" on="1"/>
        <pt x="227" y="-134" on="0"/>
      </contour>
      <contour>
        <pt x="208" y="0" on="1"/>
        <pt x="190" y="0" on="1"/>
        <pt x="189" y="680" on="1"/>
        <pt x="0" y="680" on="1"/>
        <pt x="0" y="700" on="1"/>
        <pt x="402" y="700" on="1"/>
        <pt x="402" y="680" on="1"/>
        <pt x="208" y="680" on="1"/>
      </contour>
    </TTGlyph>
    <TTGlyph name="Theta" xMin="78" yMin="-11" xMax="498" yMax="716">
      <contour>
        <pt x="498" y="506" on="1"/>
        <pt x="498" y="185" on="1"/>
        <pt x="498" y="84" on="0"/>
        <pt x="375" y="-11" on="0"/>
        <pt x="203" y="-11" on="0"/>
        <pt x="78" y="84" on="0"/>
        <pt x="78" y="185" on="1"/>
        <pt x="78" y="507" on="1"/>
        <pt x="78" y="610" on="0"/>
        <pt x="191" y="716" on="0"/>
        <pt x="389" y="716" on="0"/>
        <pt x="498" y="604" on="0"/>
      </contour>
      <contour>
        <pt x="479" y="360" on="1"/>
        <pt x="479" y="510" on="1"/>
        <pt x="479" y="596" on="0"/>
        <pt x="383" y="695" on="0"/>
        <pt x="193" y="695" on="0"/>
        <pt x="97" y="594" on="0"/>
        <pt x="97" y="508" on="1"/>
        <pt x="97" y="360" on="1"/>
      </contour>
      <contour>
        <pt x="479" y="184" on="1"/>
        <pt x="479" y="341" on="1"/>
        <pt x="97" y="341" on="1"/>
        <pt x="97" y="184" on="1"/>
        <pt x="97" y="97" on="0"/>
        <pt x="209" y="8" on="0"/>
        <pt x="369" y="8" on="0"/>
        <pt x="479" y="92" on="0"/>
      </contour>
    </TTGlyph>
    <TTGlyph name="Thorn" xMin="78" yMin="0" xMax="456" yMax="700">
      <contour>
        <pt x="99" y="237" on="0"/>
        <pt x="195" y="134" on="0"/>
        <pt x="338" y="134" on="0"/>
        <pt x="437" y="228" on="0"/>
        <pt x="437" y="402" on="0"/>
        <pt x="334" y="494" on="0"/>
        <pt x="205" y="494" on="0"/>
        <pt x="99" y="404" on="0"/>
      </contour>
      <contour>
        <pt x="97" y="0" on="1"/>
        <pt x="78" y="0" on="1"/>
        <pt x="78" y="700" on="1"/>
        <pt x="97" y="700" on="1"/>
        <pt x="97" y="410" on="1"/>
        <pt x="157" y="510" on="0"/>
        <pt x="266" y="510" on="1"/>
        <pt x="358" y="510" on="0"/>
        <pt x="456" y="398" on="0"/>
        <pt x="456" y="222" on="0"/>
        <pt x="346" y="116" on="0"/>
        <pt x="268" y="116" on="1"/>
        <pt x="237" y="116" on="0"/>
        <pt x="179" y="133" on="0"/>
        <pt x="115" y="190" on="0"/>
        <pt x="97" y="235" on="1"/>
      </contour>
    </TTGlyph>
    <TTGlyph name="U" xMin="74" yMin="-7" xMax="495" yMax="701">
      <contour>
        <pt x="476" y="184" on="1"/>
        <pt x="476" y="701" on="1"/>
        <pt x="495" y="701" on="1"/>
        <pt x="495" y="186" on="1"/>
        <pt x="495" y="133" on="0"/>
        <pt x="458" y="55" on="0"/>
        <pt x="395" y="13" on="0"/>
        <pt x="325" y="-7" on="0"/>
        <pt x="245" y="-7" on="0"/>
        <pt x="174" y="13" on="0"/>
        <pt x="111" y="55" on="0"/>
        <pt x="74" y="133" on="0"/>
        <pt x="74" y="186" on="1"/>
        <pt x="74" y="701" on="1"/>
        <pt x="93" y="701" on="1"/>
        <pt x="93" y="184" on="1"/>
        <pt x="93" y="136" on="0"/>
        <pt x="129" y="66" on="0"/>
        <pt x="189" y="29" on="0"/>
        <pt x="253" y="12" on="0"/>
        <pt x="321" y="12" on="0"/>
        <pt x="383" y="29" on="0"/>
        <pt x="441" y="66" on="0"/>
        <pt x="476" y="137" on="0"/>
      </contour>
    </TTGlyph>
    <TTGlyph name="Uacute" xMin="74" yMin="-7" xMax="495" yMax="872">
      <contour>
        <pt x="281" y="731" on="1"/>
        <pt x="262" y="731" on="1"/>
        <pt x="317" y="859" on="1"/>
        <pt x="322" y="872" on="0"/>
        <pt x="332" y="872" on="1"/>
        <pt x="336" y="872" on="0"/>
        <pt x="340" y="870" on="1"/>
        <pt x="356" y="863" on="0"/>
        <pt x="344" y="844" on="1"/>
      </contour>
      <contour>
        <pt x="476" y="184" on="1"/>
        <pt x="476" y="701" on="1"/>
        <pt x="495" y="701" on="1"/>
        <pt x="495" y="186" on="1"/>
        <pt x="495" y="133" on="0"/>
        <pt x="458" y="55" on="0"/>
        <pt x="395" y="13" on="0"/>
        <pt x="325" y="-7" on="0"/>
        <pt x="245" y="-7" on="0"/>
        <pt x="174" y="13" on="0"/>
        <pt x="111" y="55" on="0"/>
        <pt x="74" y="133" on="0"/>
        <pt x="74" y="186" on="1"/>
        <pt x="74" y="701" on="1"/>
        <pt x="93" y="701" on="1"/>
        <pt x="93" y="184" on="1"/>
        <pt x="93" y="136" on="0"/>
        <pt x="129" y="66" on="0"/>
        <pt x="189" y="29" on="0"/>
        <pt x="253" y="12" on="0"/>
        <pt x="321" y="12" on="0"/>
        <pt x="383" y="29" on="0"/>
        <pt x="441" y="66" on="0"/>
        <pt x="476" y="137" on="0"/>
      </contour>
    </TTGlyph>
    <TTGlyph name="Ubreve" xMin="74" yMin="-7" xMax="495" yMax="842">
      <contour>
        <pt x="397" y="842" on="1"/>
        <pt x="397" y="837" on="1"/>
        <pt x="397" y="790" on="0"/>
        <pt x="330" y="724" on="0"/>
        <pt x="238" y="724" on="0"/>
        <pt x="171" y="790" on="0"/>
        <pt x="171" y="837" on="1"/>
        <pt x="171" y="842" on="1"/>
        <pt x="192" y="842" on="1"/>
        <pt x="192" y="837" on="1"/>
        <pt x="192" y="804" on="0"/>
        <pt x="242" y="744" on="0"/>
        <pt x="324" y="744" on="0"/>
        <pt x="376" y="805" on="0"/>
        <pt x="376" y="837" on="1"/>
        <pt x="376" y="842" on="1"/>
      </contour>
      <contour>
        <pt x="476" y="184" on="1"/>
        <pt x="476" y="701" on="1"/>
        <pt x="495" y="701" on="1"/>
        <pt x="495" y="186" on="1"/>
        <pt x="495" y="133" on="0"/>
        <pt x="458" y="55" on="0"/>
        <pt x="395" y="13" on="0"/>
        <pt x="325" y="-7" on="0"/>
        <pt x="245" y="-7" on="0"/>
        <pt x="174" y="13" on="0"/>
        <pt x="111" y="55" on="0"/>
        <pt x="74" y="133" on="0"/>
        <pt x="74" y="186" on="1"/>
        <pt x="74" y="701" on="1"/>
        <pt x="93" y="701" on="1"/>
        <pt x="93" y="184" on="1"/>
        <pt x="93" y="136" on="0"/>
        <pt x="129" y="66" on="0"/>
        <pt x="189" y="29" on="0"/>
        <pt x="253" y="12" on="0"/>
        <pt x="321" y="12" on="0"/>
        <pt x="383" y="29" on="0"/>
        <pt x="441" y="66" on="0"/>
        <pt x="476" y="137" on="0"/>
      </contour>
    </TTGlyph>
    <TTGlyph name="Ucircumflex" xMin="74" yMin="-7" xMax="495" yMax="913">
      <contour>
        <pt x="433" y="772" on="1"/>
        <pt x="416" y="756" on="1"/>
        <pt x="290" y="883" on="1"/>
        <pt x="159" y="756" on="1"/>
        <pt x="143" y="772" on="1"/>
        <pt x="291" y="913" on="1"/>
      </contour>
      <contour>
        <pt x="476" y="184" on="1"/>
        <pt x="476" y="701" on="1"/>
        <pt x="495" y="701" on="1"/>
        <pt x="495" y="186" on="1"/>
        <pt x="495" y="133" on="0"/>
        <pt x="458" y="55" on="0"/>
        <pt x="395" y="13" on="0"/>
        <pt x="325" y="-7" on="0"/>
        <pt x="245" y="-7" on="0"/>
        <pt x="174" y="13" on="0"/>
        <pt x="111" y="55" on="0"/>
        <pt x="74" y="133" on="0"/>
        <pt x="74" y="186" on="1"/>
        <pt x="74" y="701" on="1"/>
        <pt x="93" y="701" on="1"/>
        <pt x="93" y="184" on="1"/>
        <pt x="93" y="136" on="0"/>
        <pt x="129" y="66" on="0"/>
        <pt x="189" y="29" on="0"/>
        <pt x="253" y="12" on="0"/>
        <pt x="321" y="12" on="0"/>
        <pt x="383" y="29" on="0"/>
        <pt x="441" y="66" on="0"/>
        <pt x="476" y="137" on="0"/>
      </contour>
    </TTGlyph>
    <TTGlyph name="Udieresis" xMin="74" yMin="-7" xMax="495" yMax="701">
      <contour>
        <pt x="476" y="184" on="1"/>
        <pt x="476" y="701" on="1"/>
        <pt x="495" y="701" on="1"/>
        <pt x="495" y="186" on="1"/>
        <pt x="495" y="133" on="0"/>
        <pt x="458" y="55" on="0"/>
        <pt x="395" y="13" on="0"/>
        <pt x="325" y="-7" on="0"/>
        <pt x="245" y="-7" on="0"/>
        <pt x="174" y="13" on="0"/>
        <pt x="111" y="55" on="0"/>
        <pt x="74" y="133" on="0"/>
        <pt x="74" y="186" on="1"/>
        <pt x="74" y="701" on="1"/>
        <pt x="93" y="701" on="1"/>
        <pt x="93" y="184" on="1"/>
        <pt x="93" y="136" on="0"/>
        <pt x="129" y="66" on="0"/>
        <pt x="189" y="29" on="0"/>
        <pt x="253" y="12" on="0"/>
        <pt x="321" y="12" on="0"/>
        <pt x="383" y="29" on="0"/>
        <pt x="441" y="66" on="0"/>
        <pt x="476" y="137" on="0"/>
      </contour>
    </TTGlyph>
    <TTGlyph name="Ugrave" xMin="74" yMin="-7" xMax="495" yMax="871">
      <contour>
        <pt x="301" y="730" on="1"/>
        <pt x="282" y="730" on="1"/>
        <pt x="219" y="843" on="1"/>
        <pt x="207" y="862" on="0"/>
        <pt x="223" y="869" on="1"/>
        <pt x="227" y="871" on="0"/>
        <pt x="231" y="871" on="1"/>
        <pt x="241" y="871" on="0"/>
        <pt x="246" y="858" on="1"/>
      </contour>
      <contour>
        <pt x="476" y="184" on="1"/>
        <pt x="476" y="701" on="1"/>
        <pt x="495" y="701" on="1"/>
        <pt x="495" y="186" on="1"/>
        <pt x="495" y="133" on="0"/>
        <pt x="458" y="55" on="0"/>
        <pt x="395" y="13" on="0"/>
        <pt x="325" y="-7" on="0"/>
        <pt x="245" y="-7" on="0"/>
        <pt x="174" y="13" on="0"/>
        <pt x="111" y="55" on="0"/>
        <pt x="74" y="133" on="0"/>
        <pt x="74" y="186" on="1"/>
        <pt x="74" y="701" on="1"/>
        <pt x="93" y="701" on="1"/>
        <pt x="93" y="184" on="1"/>
        <pt x="93" y="136" on="0"/>
        <pt x="129" y="66" on="0"/>
        <pt x="189" y="29" on="0"/>
        <pt x="253" y="12" on="0"/>
        <pt x="321" y="12" on="0"/>
        <pt x="383" y="29" on="0"/>
        <pt x="441" y="66" on="0"/>
        <pt x="476" y="137" on="0"/>
      </contour>
    </TTGlyph>
    <TTGlyph name="Uhungarumlaut" xMin="74" yMin="-7" xMax="495" yMax="872">
      <contour>
        <pt x="220" y="731" on="1"/>
        <pt x="201" y="731" on="1"/>
        <pt x="256" y="859" on="1"/>
        <pt x="261" y="872" on="0"/>
        <pt x="271" y="872" on="1"/>
        <pt x="275" y="872" on="0"/>
        <pt x="279" y="870" on="1"/>
        <pt x="295" y="863" on="0"/>
        <pt x="283" y="844" on="1"/>
      </contour>
      <contour>
        <pt x="332" y="731" on="1"/>
        <pt x="313" y="731" on="1"/>
        <pt x="368" y="859" on="1"/>
        <pt x="373" y="872" on="0"/>
        <pt x="383" y="872" on="1"/>
        <pt x="387" y="872" on="0"/>
        <pt x="391" y="870" on="1"/>
        <pt x="407" y="863" on="0"/>
        <pt x="395" y="844" on="1"/>
      </contour>
      <contour>
        <pt x="476" y="184" on="1"/>
        <pt x="476" y="701" on="1"/>
        <pt x="495" y="701" on="1"/>
        <pt x="495" y="186" on="1"/>
        <pt x="495" y="133" on="0"/>
        <pt x="458" y="55" on="0"/>
        <pt x="395" y="13" on="0"/>
        <pt x="325" y="-7" on="0"/>
        <pt x="245" y="-7" on="0"/>
        <pt x="174" y="13" on="0"/>
        <pt x="111" y="55" on="0"/>
        <pt x="74" y="133" on="0"/>
        <pt x="74" y="186" on="1"/>
        <pt x="74" y="701" on="1"/>
        <pt x="93" y="701" on="1"/>
        <pt x="93" y="184" on="1"/>
        <pt x="93" y="136" on="0"/>
        <pt x="129" y="66" on="0"/>
        <pt x="189" y="29" on="0"/>
        <pt x="253" y="12" on="0"/>
        <pt x="321" y="12" on="0"/>
        <pt x="383" y="29" on="0"/>
        <pt x="441" y="66" on="0"/>
        <pt x="476" y="137" on="0"/>
      </contour>
    </TTGlyph>
    <TTGlyph name="Umacron" xMin="74" yMin="-7" xMax="495" yMax="788">
      <contour>
        <pt x="391" y="769" on="1"/>
        <pt x="174" y="769" on="1"/>
        <pt x="174" y="788" on="1"/>
        <pt x="391" y="788" on="1"/>
      </contour>
      <contour>
        <pt x="476" y="184" on="1"/>
        <pt x="476" y="701" on="1"/>
        <pt x="495" y="701" on="1"/>
        <pt x="495" y="186" on="1"/>
        <pt x="495" y="133" on="0"/>
        <pt x="458" y="55" on="0"/>
        <pt x="395" y="13" on="0"/>
        <pt x="325" y="-7" on="0"/>
        <pt x="245" y="-7" on="0"/>
        <pt x="174" y="13" on="0"/>
        <pt x="111" y="55" on="0"/>
        <pt x="74" y="133" on="0"/>
        <pt x="74" y="186" on="1"/>
        <pt x="74" y="701" on="1"/>
        <pt x="93" y="701" on="1"/>
        <pt x="93" y="184" on="1"/>
        <pt x="93" y="136" on="0"/>
        <pt x="129" y="66" on="0"/>
        <pt x="189" y="29" on="0"/>
        <pt x="253" y="12" on="0"/>
        <pt x="321" y="12" on="0"/>
        <pt x="383" y="29" on="0"/>
        <pt x="441" y="66" on="0"/>
        <pt x="476" y="137" on="0"/>
      </contour>
    </TTGlyph>
    <TTGlyph name="Uogonek" xMin="74" yMin="-213" xMax="495" yMax="701">
      <contour>
        <pt x="363" y="-147" on="1"/>
        <pt x="379" y="-163" on="1"/>
        <pt x="347" y="-213" on="0"/>
        <pt x="283" y="-213" on="1"/>
        <pt x="258" y="-213" on="0"/>
        <pt x="234" y="-202" on="1"/>
        <pt x="190" y="-181" on="0"/>
        <pt x="190" y="-68" on="0"/>
        <pt x="276" y="-7" on="1"/>
        <pt x="192" y="-4" on="0"/>
        <pt x="74" y="88" on="0"/>
        <pt x="74" y="186" on="1"/>
        <pt x="74" y="701" on="1"/>
        <pt x="93" y="701" on="1"/>
        <pt x="93" y="184" on="1"/>
        <pt x="93" y="136" on="0"/>
        <pt x="129" y="66" on="0"/>
        <pt x="189" y="29" on="0"/>
        <pt x="253" y="12" on="0"/>
        <pt x="321" y="12" on="0"/>
        <pt x="383" y="29" on="0"/>
        <pt x="441" y="66" on="0"/>
        <pt x="476" y="137" on="0"/>
        <pt x="476" y="184" on="1"/>
        <pt x="476" y="701" on="1"/>
        <pt x="495" y="701" on="1"/>
        <pt x="495" y="186" on="1"/>
        <pt x="495" y="120" on="0"/>
        <pt x="435" y="32" on="0"/>
        <pt x="352" y="-3" on="0"/>
        <pt x="301" y="-6" on="1"/>
        <pt x="210" y="-71" on="0"/>
        <pt x="210" y="-130" on="1"/>
        <pt x="210" y="-157" on="0"/>
        <pt x="253" y="-193" on="0"/>
        <pt x="283" y="-193" on="1"/>
        <pt x="334" y="-193" on="0"/>
      </contour>
    </TTGlyph>
    <TTGlyph name="Upsilon" xMin="60" yMin="-7" xMax="503" yMax="700">
      <contour>
        <pt x="399" y="-7" on="1"/>
        <pt x="393" y="11" on="1"/>
        <pt x="402" y="11" on="0"/>
        <pt x="419" y="21" on="0"/>
        <pt x="437" y="30" on="0"/>
        <pt x="447" y="39" on="0"/>
        <pt x="462" y="55" on="0"/>
        <pt x="471" y="74" on="0"/>
        <pt x="476" y="86" on="1"/>
        <pt x="484" y="110" on="0"/>
        <pt x="484" y="152" on="1"/>
        <pt x="484" y="342" on="1"/>
        <pt x="454" y="289" on="0"/>
        <pt x="340" y="245" on="0"/>
        <pt x="289" y="245" on="1"/>
        <pt x="183" y="245" on="0"/>
        <pt x="60" y="350" on="0"/>
        <pt x="60" y="453" on="1"/>
        <pt x="60" y="700" on="1"/>
        <pt x="79" y="700" on="1"/>
        <pt x="79" y="458" on="1"/>
        <pt x="79" y="365" on="0"/>
        <pt x="183" y="264" on="0"/>
        <pt x="289" y="264" on="1"/>
        <pt x="369" y="264" on="0"/>
        <pt x="475" y="345" on="0"/>
        <pt x="484" y="405" on="1"/>
        <pt x="484" y="700" on="1"/>
        <pt x="503" y="700" on="1"/>
        <pt x="503" y="146" on="1"/>
        <pt x="503" y="19" on="0"/>
      </contour>
    </TTGlyph>
    <TTGlyph name="Upsilon_alt" xMin="17" yMin="0" xMax="489" yMax="700">
      <contour>
        <pt x="261" y="0" on="1"/>
        <pt x="243" y="0" on="1"/>
        <pt x="243" y="342" on="1"/>
        <pt x="17" y="700" on="1"/>
        <pt x="40" y="700" on="1"/>
        <pt x="252" y="362" on="1"/>
        <pt x="466" y="700" on="1"/>
        <pt x="489" y="700" on="1"/>
        <pt x="261" y="342" on="1"/>
      </contour>
    </TTGlyph>
    <TTGlyph name="Upsilondieresis" xMin="78" yMin="-7" xMax="521" yMax="795">
      <contour>
        <pt x="383" y="765" on="0"/>
        <pt x="371" y="765" on="0"/>
        <pt x="362" y="774" on="0"/>
        <pt x="362" y="786" on="0"/>
        <pt x="371" y="795" on="0"/>
        <pt x="383" y="795" on="0"/>
        <pt x="392" y="786" on="0"/>
        <pt x="392" y="774" on="0"/>
      </contour>
      <contour>
        <pt x="224" y="764" on="0"/>
        <pt x="212" y="764" on="0"/>
        <pt x="203" y="773" on="0"/>
        <pt x="203" y="785" on="0"/>
        <pt x="212" y="794" on="0"/>
        <pt x="224" y="794" on="0"/>
        <pt x="233" y="785" on="0"/>
        <pt x="233" y="773" on="0"/>
      </contour>
      <contour>
        <pt x="417" y="-7" on="1"/>
        <pt x="411" y="11" on="1"/>
        <pt x="419" y="11" on="0"/>
        <pt x="437" y="21" on="0"/>
        <pt x="455" y="30" on="0"/>
        <pt x="465" y="39" on="0"/>
        <pt x="480" y="55" on="0"/>
        <pt x="489" y="74" on="0"/>
        <pt x="494" y="86" on="1"/>
        <pt x="502" y="110" on="0"/>
        <pt x="502" y="152" on="1"/>
        <pt x="502" y="342" on="1"/>
        <pt x="472" y="289" on="0"/>
        <pt x="358" y="245" on="0"/>
        <pt x="307" y="245" on="1"/>
        <pt x="201" y="245" on="0"/>
        <pt x="78" y="350" on="0"/>
        <pt x="78" y="453" on="1"/>
        <pt x="78" y="700" on="1"/>
        <pt x="97" y="700" on="1"/>
        <pt x="97" y="458" on="1"/>
        <pt x="97" y="365" on="0"/>
        <pt x="201" y="264" on="0"/>
        <pt x="307" y="264" on="1"/>
        <pt x="387" y="264" on="0"/>
        <pt x="493" y="345" on="0"/>
        <pt x="502" y="405" on="1"/>
        <pt x="502" y="700" on="1"/>
        <pt x="521" y="700" on="1"/>
        <pt x="521" y="146" on="1"/>
        <pt x="521" y="19" on="0"/>
      </contour>
    </TTGlyph>
    <TTGlyph name="Upsilondieresis_alt" xMin="-6" yMin="0" xMax="466" yMax="795">
      <contour>
        <pt x="310" y="765" on="0"/>
        <pt x="298" y="765" on="0"/>
        <pt x="289" y="774" on="0"/>
        <pt x="289" y="786" on="0"/>
        <pt x="298" y="795" on="0"/>
        <pt x="310" y="795" on="0"/>
        <pt x="319" y="786" on="0"/>
        <pt x="319" y="774" on="0"/>
      </contour>
      <contour>
        <pt x="151" y="764" on="0"/>
        <pt x="139" y="764" on="0"/>
        <pt x="130" y="773" on="0"/>
        <pt x="130" y="785" on="0"/>
        <pt x="139" y="794" on="0"/>
        <pt x="151" y="794" on="0"/>
        <pt x="160" y="785" on="0"/>
        <pt x="160" y="773" on="0"/>
      </contour>
      <contour>
        <pt x="238" y="0" on="1"/>
        <pt x="220" y="0" on="1"/>
        <pt x="220" y="342" on="1"/>
        <pt x="-6" y="700" on="1"/>
        <pt x="17" y="700" on="1"/>
        <pt x="229" y="362" on="1"/>
        <pt x="443" y="700" on="1"/>
        <pt x="466" y="700" on="1"/>
        <pt x="238" y="342" on="1"/>
      </contour>
    </TTGlyph>
    <TTGlyph name="Upsilontonos" xMin="78" yMin="-7" xMax="692" yMax="709">
      <contour>
        <pt x="588" y="-7" on="1"/>
        <pt x="582" y="11" on="1"/>
        <pt x="590" y="11" on="0"/>
        <pt x="608" y="21" on="0"/>
        <pt x="626" y="30" on="0"/>
        <pt x="636" y="39" on="0"/>
        <pt x="651" y="55" on="0"/>
        <pt x="660" y="74" on="0"/>
        <pt x="664" y="86" on="1"/>
        <pt x="673" y="110" on="0"/>
        <pt x="673" y="152" on="1"/>
        <pt x="673" y="342" on="1"/>
        <pt x="643" y="289" on="0"/>
        <pt x="529" y="245" on="0"/>
        <pt x="478" y="245" on="1"/>
        <pt x="372" y="245" on="0"/>
        <pt x="249" y="350" on="0"/>
        <pt x="249" y="453" on="1"/>
        <pt x="249" y="700" on="1"/>
        <pt x="268" y="700" on="1"/>
        <pt x="268" y="458" on="1"/>
        <pt x="268" y="365" on="0"/>
        <pt x="372" y="264" on="0"/>
        <pt x="478" y="264" on="1"/>
        <pt x="558" y="264" on="0"/>
        <pt x="664" y="345" on="0"/>
        <pt x="673" y="405" on="1"/>
        <pt x="673" y="700" on="1"/>
        <pt x="692" y="700" on="1"/>
        <pt x="692" y="146" on="1"/>
        <pt x="692" y="19" on="0"/>
      </contour>
      <contour>
        <pt x="97" y="568" on="1"/>
        <pt x="78" y="568" on="1"/>
        <pt x="133" y="696" on="1"/>
        <pt x="138" y="709" on="0"/>
        <pt x="148" y="709" on="1"/>
        <pt x="165" y="709" on="0"/>
        <pt x="165" y="695" on="1"/>
        <pt x="165" y="689" on="0"/>
        <pt x="160" y="681" on="1"/>
      </contour>
    </TTGlyph>
    <TTGlyph name="Upsilontonos_alt" xMin="78" yMin="0" xMax="686" yMax="709">
      <contour>
        <pt x="97" y="568" on="1"/>
        <pt x="78" y="568" on="1"/>
        <pt x="133" y="696" on="1"/>
        <pt x="138" y="709" on="0"/>
        <pt x="148" y="709" on="1"/>
        <pt x="152" y="709" on="0"/>
        <pt x="156" y="707" on="1"/>
        <pt x="172" y="700" on="0"/>
        <pt x="160" y="681" on="1"/>
      </contour>
      <contour>
        <pt x="458" y="0" on="1"/>
        <pt x="440" y="0" on="1"/>
        <pt x="440" y="342" on="1"/>
        <pt x="214" y="700" on="1"/>
        <pt x="237" y="700" on="1"/>
        <pt x="449" y="362" on="1"/>
        <pt x="663" y="700" on="1"/>
        <pt x="686" y="700" on="1"/>
        <pt x="458" y="342" on="1"/>
      </contour>
    </TTGlyph>
    <TTGlyph name="Uring" xMin="74" yMin="-7" xMax="495" yMax="883">
      <contour>
        <pt x="330" y="657" on="0"/>
        <pt x="238" y="657" on="0"/>
        <pt x="171" y="724" on="0"/>
        <pt x="171" y="816" on="0"/>
        <pt x="238" y="883" on="0"/>
        <pt x="330" y="883" on="0"/>
        <pt x="397" y="816" on="0"/>
        <pt x="397" y="724" on="0"/>
      </contour>
      <contour>
        <pt x="246" y="678" on="0"/>
        <pt x="322" y="678" on="0"/>
        <pt x="375" y="732" on="0"/>
        <pt x="375" y="808" on="0"/>
        <pt x="322" y="861" on="0"/>
        <pt x="246" y="861" on="0"/>
        <pt x="192" y="808" on="0"/>
        <pt x="192" y="732" on="0"/>
      </contour>
      <contour>
        <pt x="476" y="184" on="1"/>
        <pt x="476" y="701" on="1"/>
        <pt x="495" y="701" on="1"/>
        <pt x="495" y="186" on="1"/>
        <pt x="495" y="133" on="0"/>
        <pt x="458" y="55" on="0"/>
        <pt x="395" y="13" on="0"/>
        <pt x="325" y="-7" on="0"/>
        <pt x="245" y="-7" on="0"/>
        <pt x="174" y="13" on="0"/>
        <pt x="111" y="55" on="0"/>
        <pt x="74" y="133" on="0"/>
        <pt x="74" y="186" on="1"/>
        <pt x="74" y="701" on="1"/>
        <pt x="93" y="701" on="1"/>
        <pt x="93" y="184" on="1"/>
        <pt x="93" y="136" on="0"/>
        <pt x="129" y="66" on="0"/>
        <pt x="189" y="29" on="0"/>
        <pt x="253" y="12" on="0"/>
        <pt x="321" y="12" on="0"/>
        <pt x="383" y="29" on="0"/>
        <pt x="441" y="66" on="0"/>
        <pt x="476" y="137" on="0"/>
      </contour>
    </TTGlyph>
    <TTGlyph name="Utilde" xMin="74" yMin="-7" xMax="495" yMax="826">
      <contour>
        <pt x="219" y="826" on="1"/>
        <pt x="246" y="826" on="0"/>
        <pt x="311" y="794" on="1"/>
        <pt x="336" y="782" on="0"/>
        <pt x="400" y="782" on="0"/>
        <pt x="431" y="814" on="1"/>
        <pt x="441" y="797" on="1"/>
        <pt x="403" y="762" on="0"/>
        <pt x="359" y="762" on="1"/>
        <pt x="333" y="762" on="0"/>
        <pt x="283" y="785" on="0"/>
        <pt x="236" y="805" on="0"/>
        <pt x="215" y="805" on="1"/>
        <pt x="169" y="805" on="0"/>
        <pt x="131" y="761" on="1"/>
        <pt x="120" y="777" on="1"/>
        <pt x="167" y="826" on="0"/>
      </contour>
      <contour>
        <pt x="476" y="184" on="1"/>
        <pt x="476" y="701" on="1"/>
        <pt x="495" y="701" on="1"/>
        <pt x="495" y="186" on="1"/>
        <pt x="495" y="133" on="0"/>
        <pt x="458" y="55" on="0"/>
        <pt x="395" y="13" on="0"/>
        <pt x="325" y="-7" on="0"/>
        <pt x="245" y="-7" on="0"/>
        <pt x="174" y="13" on="0"/>
        <pt x="111" y="55" on="0"/>
        <pt x="74" y="133" on="0"/>
        <pt x="74" y="186" on="1"/>
        <pt x="74" y="701" on="1"/>
        <pt x="93" y="701" on="1"/>
        <pt x="93" y="184" on="1"/>
        <pt x="93" y="136" on="0"/>
        <pt x="129" y="66" on="0"/>
        <pt x="189" y="29" on="0"/>
        <pt x="253" y="12" on="0"/>
        <pt x="321" y="12" on="0"/>
        <pt x="383" y="29" on="0"/>
        <pt x="441" y="66" on="0"/>
        <pt x="476" y="137" on="0"/>
      </contour>
    </TTGlyph>
    <TTGlyph name="V" xMin="78" yMin="0" xMax="556" yMax="700">
      <contour>
        <pt x="329" y="0" on="1"/>
        <pt x="307" y="0" on="1"/>
        <pt x="78" y="700" on="1"/>
        <pt x="97" y="700" on="1"/>
        <pt x="317" y="27" on="1"/>
        <pt x="537" y="700" on="1"/>
        <pt x="556" y="700" on="1"/>
      </contour>
    </TTGlyph>
    <TTGlyph name="W" xMin="78" yMin="0" xMax="774" yMax="700">
      <contour>
        <pt x="593" y="0" on="1"/>
        <pt x="572" y="0" on="1"/>
        <pt x="427" y="653" on="1"/>
        <pt x="282" y="0" on="1"/>
        <pt x="261" y="0" on="1"/>
        <pt x="78" y="700" on="1"/>
        <pt x="99" y="700" on="1"/>
        <pt x="271" y="36" on="1"/>
        <pt x="417" y="700" on="1"/>
        <pt x="437" y="700" on="1"/>
        <pt x="583" y="35" on="1"/>
        <pt x="752" y="700" on="1"/>
        <pt x="774" y="700" on="1"/>
      </contour>
    </TTGlyph>
    <TTGlyph name="X" xMin="35" yMin="0" xMax="542" yMax="700">
      <contour>
        <pt x="542" y="3" on="1"/>
        <pt x="520" y="0" on="1"/>
        <pt x="289" y="346" on="1"/>
        <pt x="60" y="0" on="1"/>
        <pt x="35" y="0" on="1"/>
        <pt x="278" y="364" on="1"/>
        <pt x="54" y="700" on="1"/>
        <pt x="76" y="700" on="1"/>
        <pt x="289" y="382" on="1"/>
        <pt x="502" y="700" on="1"/>
        <pt x="526" y="700" on="1"/>
        <pt x="302" y="364" on="1"/>
      </contour>
    </TTGlyph>
    <TTGlyph name="Xi" xMin="78" yMin="0" xMax="587" yMax="700">
      <contour>
        <pt x="568" y="113" on="1"/>
        <pt x="587" y="106" on="1"/>
        <pt x="571" y="50" on="0"/>
        <pt x="501" y="0" on="0"/>
        <pt x="442" y="0" on="1"/>
        <pt x="117" y="0" on="1"/>
        <pt x="125" y="19" on="1"/>
        <pt x="442" y="19" on="1"/>
        <pt x="502" y="19" on="0"/>
        <pt x="553" y="68" on="0"/>
      </contour>
      <contour>
        <pt x="539" y="680" on="1"/>
        <pt x="223" y="680" on="1"/>
        <pt x="163" y="680" on="0"/>
        <pt x="111" y="632" on="0"/>
        <pt x="96" y="588" on="1"/>
        <pt x="78" y="595" on="1"/>
        <pt x="94" y="651" on="0"/>
        <pt x="164" y="700" on="0"/>
        <pt x="223" y="700" on="1"/>
        <pt x="548" y="700" on="1"/>
      </contour>
      <contour>
        <pt x="469" y="394" on="1"/>
        <pt x="205" y="394" on="1"/>
        <pt x="205" y="413" on="1"/>
        <pt x="469" y="413" on="1"/>
      </contour>
    </TTGlyph>
    <TTGlyph name="Y" xMin="60" yMin="-7" xMax="503" yMax="700">
      <contour>
        <pt x="399" y="-7" on="1"/>
        <pt x="393" y="11" on="1"/>
        <pt x="402" y="11" on="0"/>
        <pt x="419" y="21" on="0"/>
        <pt x="437" y="30" on="0"/>
        <pt x="447" y="39" on="0"/>
        <pt x="462" y="55" on="0"/>
        <pt x="471" y="74" on="0"/>
        <pt x="476" y="86" on="1"/>
        <pt x="484" y="110" on="0"/>
        <pt x="484" y="152" on="1"/>
        <pt x="484" y="342" on="1"/>
        <pt x="454" y="289" on="0"/>
        <pt x="340" y="245" on="0"/>
        <pt x="289" y="245" on="1"/>
        <pt x="183" y="245" on="0"/>
        <pt x="60" y="350" on="0"/>
        <pt x="60" y="453" on="1"/>
        <pt x="60" y="700" on="1"/>
        <pt x="79" y="700" on="1"/>
        <pt x="79" y="458" on="1"/>
        <pt x="79" y="365" on="0"/>
        <pt x="183" y="264" on="0"/>
        <pt x="289" y="264" on="1"/>
        <pt x="369" y="264" on="0"/>
        <pt x="475" y="345" on="0"/>
        <pt x="484" y="405" on="1"/>
        <pt x="484" y="700" on="1"/>
        <pt x="503" y="700" on="1"/>
        <pt x="503" y="146" on="1"/>
        <pt x="503" y="19" on="0"/>
      </contour>
    </TTGlyph>
    <TTGlyph name="Y_alt" xMin="49" yMin="0" xMax="521" yMax="700">
      <contour>
        <pt x="293" y="0" on="1"/>
        <pt x="275" y="0" on="1"/>
        <pt x="275" y="342" on="1"/>
        <pt x="49" y="700" on="1"/>
        <pt x="72" y="700" on="1"/>
        <pt x="284" y="362" on="1"/>
        <pt x="498" y="700" on="1"/>
        <pt x="521" y="700" on="1"/>
        <pt x="293" y="342" on="1"/>
      </contour>
    </TTGlyph>
    <TTGlyph name="Yacute" xMin="60" yMin="-7" xMax="503" yMax="872">
      <contour>
        <pt x="281" y="731" on="1"/>
        <pt x="262" y="731" on="1"/>
        <pt x="317" y="859" on="1"/>
        <pt x="322" y="872" on="0"/>
        <pt x="332" y="872" on="1"/>
        <pt x="336" y="872" on="0"/>
        <pt x="340" y="870" on="1"/>
        <pt x="356" y="863" on="0"/>
        <pt x="344" y="844" on="1"/>
      </contour>
      <contour>
        <pt x="399" y="-7" on="1"/>
        <pt x="393" y="11" on="1"/>
        <pt x="402" y="11" on="0"/>
        <pt x="419" y="21" on="0"/>
        <pt x="437" y="30" on="0"/>
        <pt x="447" y="39" on="0"/>
        <pt x="462" y="55" on="0"/>
        <pt x="471" y="74" on="0"/>
        <pt x="476" y="86" on="1"/>
        <pt x="484" y="110" on="0"/>
        <pt x="484" y="152" on="1"/>
        <pt x="484" y="342" on="1"/>
        <pt x="454" y="289" on="0"/>
        <pt x="340" y="245" on="0"/>
        <pt x="289" y="245" on="1"/>
        <pt x="183" y="245" on="0"/>
        <pt x="60" y="350" on="0"/>
        <pt x="60" y="453" on="1"/>
        <pt x="60" y="700" on="1"/>
        <pt x="79" y="700" on="1"/>
        <pt x="79" y="458" on="1"/>
        <pt x="79" y="365" on="0"/>
        <pt x="183" y="264" on="0"/>
        <pt x="289" y="264" on="1"/>
        <pt x="369" y="264" on="0"/>
        <pt x="475" y="345" on="0"/>
        <pt x="484" y="405" on="1"/>
        <pt x="484" y="700" on="1"/>
        <pt x="503" y="700" on="1"/>
        <pt x="503" y="146" on="1"/>
        <pt x="503" y="19" on="0"/>
      </contour>
    </TTGlyph>
    <TTGlyph name="Yacute_alt" xMin="3" yMin="0" xMax="475" yMax="872">
      <contour>
        <pt x="247" y="0" on="1"/>
        <pt x="229" y="0" on="1"/>
        <pt x="229" y="342" on="1"/>
        <pt x="3" y="700" on="1"/>
        <pt x="26" y="700" on="1"/>
        <pt x="238" y="362" on="1"/>
        <pt x="452" y="700" on="1"/>
        <pt x="475" y="700" on="1"/>
        <pt x="247" y="342" on="1"/>
      </contour>
      <contour>
        <pt x="236" y="731" on="1"/>
        <pt x="217" y="731" on="1"/>
        <pt x="272" y="859" on="1"/>
        <pt x="277" y="872" on="0"/>
        <pt x="287" y="872" on="1"/>
        <pt x="304" y="872" on="0"/>
        <pt x="304" y="858" on="1"/>
        <pt x="304" y="852" on="0"/>
        <pt x="299" y="844" on="1"/>
      </contour>
    </TTGlyph>
    <TTGlyph name="Ydieresis" xMin="60" yMin="-7" xMax="503" yMax="700">
      <contour>
        <pt x="399" y="-7" on="1"/>
        <pt x="393" y="11" on="1"/>
        <pt x="402" y="11" on="0"/>
        <pt x="419" y="21" on="0"/>
        <pt x="437" y="30" on="0"/>
        <pt x="447" y="39" on="0"/>
        <pt x="462" y="55" on="0"/>
        <pt x="471" y="74" on="0"/>
        <pt x="476" y="86" on="1"/>
        <pt x="484" y="110" on="0"/>
        <pt x="484" y="152" on="1"/>
        <pt x="484" y="342" on="1"/>
        <pt x="454" y="289" on="0"/>
        <pt x="340" y="245" on="0"/>
        <pt x="289" y="245" on="1"/>
        <pt x="183" y="245" on="0"/>
        <pt x="60" y="350" on="0"/>
        <pt x="60" y="453" on="1"/>
        <pt x="60" y="700" on="1"/>
        <pt x="79" y="700" on="1"/>
        <pt x="79" y="458" on="1"/>
        <pt x="79" y="365" on="0"/>
        <pt x="183" y="264" on="0"/>
        <pt x="289" y="264" on="1"/>
        <pt x="369" y="264" on="0"/>
        <pt x="475" y="345" on="0"/>
        <pt x="484" y="405" on="1"/>
        <pt x="484" y="700" on="1"/>
        <pt x="503" y="700" on="1"/>
        <pt x="503" y="146" on="1"/>
        <pt x="503" y="19" on="0"/>
      </contour>
    </TTGlyph>
    <TTGlyph name="Ydieresis_alt" xMin="8" yMin="0" xMax="480" yMax="700">
      <contour>
        <pt x="252" y="0" on="1"/>
        <pt x="234" y="0" on="1"/>
        <pt x="234" y="342" on="1"/>
        <pt x="8" y="700" on="1"/>
        <pt x="31" y="700" on="1"/>
        <pt x="243" y="362" on="1"/>
        <pt x="457" y="700" on="1"/>
        <pt x="480" y="700" on="1"/>
        <pt x="252" y="342" on="1"/>
      </contour>
    </TTGlyph>
    <TTGlyph name="Z" xMin="31" yMin="0" xMax="518" yMax="700">
      <contour>
        <pt x="518" y="0" on="1"/>
        <pt x="31" y="0" on="1"/>
        <pt x="31" y="19" on="1"/>
        <pt x="488" y="681" on="1"/>
        <pt x="45" y="681" on="1"/>
        <pt x="44" y="700" on="1"/>
        <pt x="512" y="700" on="1"/>
        <pt x="512" y="681" on="1"/>
        <pt x="55" y="19" on="1"/>
        <pt x="518" y="19" on="1"/>
      </contour>
    </TTGlyph>
    <TTGlyph name="Zacute" xMin="31" yMin="0" xMax="518" yMax="926">
      <contour>
        <pt x="304" y="785" on="1"/>
        <pt x="285" y="785" on="1"/>
        <pt x="340" y="913" on="1"/>
        <pt x="345" y="926" on="0"/>
        <pt x="355" y="926" on="1"/>
        <pt x="359" y="926" on="0"/>
        <pt x="363" y="924" on="1"/>
        <pt x="379" y="917" on="0"/>
        <pt x="367" y="898" on="1"/>
      </contour>
      <contour>
        <pt x="518" y="0" on="1"/>
        <pt x="31" y="0" on="1"/>
        <pt x="31" y="19" on="1"/>
        <pt x="488" y="681" on="1"/>
        <pt x="45" y="681" on="1"/>
        <pt x="44" y="700" on="1"/>
        <pt x="512" y="700" on="1"/>
        <pt x="512" y="681" on="1"/>
        <pt x="55" y="19" on="1"/>
        <pt x="518" y="19" on="1"/>
      </contour>
    </TTGlyph>
    <TTGlyph name="Zcaron" xMin="31" yMin="0" xMax="518" yMax="940">
      <contour>
        <pt x="444" y="925" on="1"/>
        <pt x="302" y="784" on="1"/>
        <pt x="154" y="925" on="1"/>
        <pt x="169" y="940" on="1"/>
        <pt x="301" y="814" on="1"/>
        <pt x="429" y="940" on="1"/>
      </contour>
      <contour>
        <pt x="518" y="0" on="1"/>
        <pt x="31" y="0" on="1"/>
        <pt x="31" y="19" on="1"/>
        <pt x="488" y="681" on="1"/>
        <pt x="45" y="681" on="1"/>
        <pt x="44" y="700" on="1"/>
        <pt x="512" y="700" on="1"/>
        <pt x="512" y="681" on="1"/>
        <pt x="55" y="19" on="1"/>
        <pt x="518" y="19" on="1"/>
      </contour>
    </TTGlyph>
    <TTGlyph name="Zdotaccent" xMin="31" yMin="0" xMax="518" yMax="793">
      <contour>
        <pt x="301" y="766" on="0"/>
        <pt x="274" y="766" on="0"/>
        <pt x="274" y="793" on="0"/>
        <pt x="301" y="793" on="0"/>
      </contour>
      <contour>
        <pt x="518" y="0" on="1"/>
        <pt x="31" y="0" on="1"/>
        <pt x="31" y="19" on="1"/>
        <pt x="488" y="681" on="1"/>
        <pt x="45" y="681" on="1"/>
        <pt x="44" y="700" on="1"/>
        <pt x="512" y="700" on="1"/>
        <pt x="512" y="681" on="1"/>
        <pt x="55" y="19" on="1"/>
        <pt x="518" y="19" on="1"/>
      </contour>
    </TTGlyph>
    <TTGlyph name="Zeta" xMin="78" yMin="0" xMax="565" yMax="700">
      <contour>
        <pt x="565" y="0" on="1"/>
        <pt x="78" y="0" on="1"/>
        <pt x="78" y="19" on="1"/>
        <pt x="535" y="681" on="1"/>
        <pt x="92" y="681" on="1"/>
        <pt x="91" y="700" on="1"/>
        <pt x="559" y="700" on="1"/>
        <pt x="559" y="681" on="1"/>
        <pt x="102" y="19" on="1"/>
        <pt x="565" y="19" on="1"/>
      </contour>
    </TTGlyph>
    <TTGlyph name="_196" xMin="78" yMin="0" xMax="583" yMax="700">
      <contour>
        <pt x="556" y="19" on="1"/>
        <pt x="328" y="674" on="1"/>
        <pt x="105" y="19" on="1"/>
      </contour>
      <contour>
        <pt x="583" y="0" on="1"/>
        <pt x="78" y="0" on="1"/>
        <pt x="318" y="700" on="1"/>
        <pt x="337" y="700" on="1"/>
      </contour>
    </TTGlyph>
    <TTGlyph name="a" xMin="37" yMin="-10" xMax="422" yMax="509">
      <contour>
        <pt x="99" y="45" on="0"/>
        <pt x="163" y="14" on="0"/>
        <pt x="244" y="7" on="0"/>
        <pt x="323" y="7" on="0"/>
        <pt x="403" y="18" on="1"/>
        <pt x="403" y="323" on="1"/>
        <pt x="339" y="369" on="0"/>
        <pt x="242" y="381" on="1"/>
        <pt x="220" y="384" on="0"/>
        <pt x="175" y="384" on="0"/>
        <pt x="152" y="380" on="1"/>
        <pt x="111" y="372" on="0"/>
        <pt x="56" y="305" on="0"/>
        <pt x="56" y="249" on="1"/>
        <pt x="56" y="162" on="1"/>
        <pt x="56" y="112" on="0"/>
      </contour>
      <contour>
        <pt x="200" y="402" on="1"/>
        <pt x="316" y="402" on="0"/>
        <pt x="403" y="346" on="1"/>
        <pt x="403" y="490" on="0"/>
        <pt x="224" y="490" on="1"/>
        <pt x="218" y="490" on="0"/>
        <pt x="212" y="490" on="1"/>
        <pt x="214" y="509" on="1"/>
        <pt x="295" y="509" on="0"/>
        <pt x="334" y="490" on="1"/>
        <pt x="355" y="479" on="0"/>
        <pt x="387" y="457" on="0"/>
        <pt x="405" y="421" on="0"/>
        <pt x="417" y="394" on="0"/>
        <pt x="419" y="371" on="1"/>
        <pt x="422" y="336" on="0"/>
        <pt x="422" y="298" on="1"/>
        <pt x="422" y="0" on="1"/>
        <pt x="318" y="-10" on="0"/>
        <pt x="256" y="-10" on="1"/>
        <pt x="37" y="-10" on="0"/>
        <pt x="37" y="169" on="1"/>
        <pt x="37" y="252" on="1"/>
        <pt x="37" y="348" on="0"/>
        <pt x="110" y="384" on="1"/>
        <pt x="147" y="402" on="0"/>
      </contour>
    </TTGlyph>
    <TTGlyph name="aacute" xMin="78" yMin="-10" xMax="463" yMax="679">
      <contour>
        <pt x="277" y="538" on="1"/>
        <pt x="258" y="538" on="1"/>
        <pt x="313" y="666" on="1"/>
        <pt x="318" y="679" on="0"/>
        <pt x="328" y="679" on="1"/>
        <pt x="332" y="679" on="0"/>
        <pt x="336" y="677" on="1"/>
        <pt x="352" y="670" on="0"/>
        <pt x="340" y="651" on="1"/>
      </contour>
      <contour>
        <pt x="140" y="45" on="0"/>
        <pt x="204" y="14" on="0"/>
        <pt x="285" y="7" on="0"/>
        <pt x="364" y="7" on="0"/>
        <pt x="444" y="18" on="1"/>
        <pt x="444" y="323" on="1"/>
        <pt x="380" y="369" on="0"/>
        <pt x="282" y="381" on="1"/>
        <pt x="261" y="384" on="0"/>
        <pt x="216" y="384" on="0"/>
        <pt x="193" y="380" on="1"/>
        <pt x="152" y="372" on="0"/>
        <pt x="97" y="305" on="0"/>
        <pt x="97" y="249" on="1"/>
        <pt x="97" y="162" on="1"/>
        <pt x="97" y="112" on="0"/>
      </contour>
      <contour>
        <pt x="241" y="402" on="1"/>
        <pt x="357" y="402" on="0"/>
        <pt x="444" y="346" on="1"/>
        <pt x="444" y="490" on="0"/>
        <pt x="265" y="490" on="1"/>
        <pt x="259" y="490" on="0"/>
        <pt x="253" y="490" on="1"/>
        <pt x="255" y="509" on="1"/>
        <pt x="336" y="509" on="0"/>
        <pt x="375" y="490" on="1"/>
        <pt x="396" y="479" on="0"/>
        <pt x="428" y="457" on="0"/>
        <pt x="446" y="421" on="0"/>
        <pt x="458" y="394" on="0"/>
        <pt x="460" y="371" on="1"/>
        <pt x="463" y="336" on="0"/>
        <pt x="463" y="298" on="1"/>
        <pt x="463" y="0" on="1"/>
        <pt x="359" y="-10" on="0"/>
        <pt x="297" y="-10" on="1"/>
        <pt x="78" y="-10" on="0"/>
        <pt x="78" y="169" on="1"/>
        <pt x="78" y="252" on="1"/>
        <pt x="78" y="348" on="0"/>
        <pt x="151" y="384" on="1"/>
        <pt x="188" y="402" on="0"/>
      </contour>
    </TTGlyph>
    <TTGlyph name="abreve" xMin="78" yMin="-10" xMax="463" yMax="656">
      <contour>
        <pt x="422" y="656" on="1"/>
        <pt x="422" y="651" on="1"/>
        <pt x="422" y="604" on="0"/>
        <pt x="356" y="538" on="0"/>
        <pt x="262" y="538" on="0"/>
        <pt x="196" y="604" on="0"/>
        <pt x="196" y="651" on="1"/>
        <pt x="196" y="656" on="1"/>
        <pt x="217" y="656" on="1"/>
        <pt x="217" y="651" on="1"/>
        <pt x="217" y="618" on="0"/>
        <pt x="267" y="558" on="0"/>
        <pt x="349" y="558" on="0"/>
        <pt x="401" y="619" on="0"/>
        <pt x="401" y="651" on="1"/>
        <pt x="401" y="656" on="1"/>
      </contour>
      <contour>
        <pt x="140" y="45" on="0"/>
        <pt x="204" y="14" on="0"/>
        <pt x="285" y="7" on="0"/>
        <pt x="364" y="7" on="0"/>
        <pt x="444" y="18" on="1"/>
        <pt x="444" y="323" on="1"/>
        <pt x="380" y="369" on="0"/>
        <pt x="282" y="381" on="1"/>
        <pt x="261" y="384" on="0"/>
        <pt x="216" y="384" on="0"/>
        <pt x="193" y="380" on="1"/>
        <pt x="152" y="372" on="0"/>
        <pt x="97" y="305" on="0"/>
        <pt x="97" y="249" on="1"/>
        <pt x="97" y="162" on="1"/>
        <pt x="97" y="112" on="0"/>
      </contour>
      <contour>
        <pt x="241" y="402" on="1"/>
        <pt x="357" y="402" on="0"/>
        <pt x="444" y="346" on="1"/>
        <pt x="444" y="490" on="0"/>
        <pt x="265" y="490" on="1"/>
        <pt x="259" y="490" on="0"/>
        <pt x="253" y="490" on="1"/>
        <pt x="255" y="509" on="1"/>
        <pt x="336" y="509" on="0"/>
        <pt x="375" y="490" on="1"/>
        <pt x="396" y="479" on="0"/>
        <pt x="428" y="457" on="0"/>
        <pt x="446" y="421" on="0"/>
        <pt x="458" y="394" on="0"/>
        <pt x="460" y="371" on="1"/>
        <pt x="463" y="336" on="0"/>
        <pt x="463" y="298" on="1"/>
        <pt x="463" y="0" on="1"/>
        <pt x="359" y="-10" on="0"/>
        <pt x="297" y="-10" on="1"/>
        <pt x="78" y="-10" on="0"/>
        <pt x="78" y="169" on="1"/>
        <pt x="78" y="252" on="1"/>
        <pt x="78" y="348" on="0"/>
        <pt x="151" y="384" on="1"/>
        <pt x="188" y="402" on="0"/>
      </contour>
    </TTGlyph>
    <TTGlyph name="acircumflex" xMin="78" yMin="-10" xMax="463" yMax="720">
      <contour>
        <pt x="419" y="579" on="1"/>
        <pt x="402" y="563" on="1"/>
        <pt x="276" y="690" on="1"/>
        <pt x="145" y="563" on="1"/>
        <pt x="129" y="579" on="1"/>
        <pt x="277" y="720" on="1"/>
      </contour>
      <contour>
        <pt x="140" y="45" on="0"/>
        <pt x="204" y="14" on="0"/>
        <pt x="285" y="7" on="0"/>
        <pt x="364" y="7" on="0"/>
        <pt x="444" y="18" on="1"/>
        <pt x="444" y="323" on="1"/>
        <pt x="380" y="369" on="0"/>
        <pt x="282" y="381" on="1"/>
        <pt x="261" y="384" on="0"/>
        <pt x="216" y="384" on="0"/>
        <pt x="193" y="380" on="1"/>
        <pt x="152" y="372" on="0"/>
        <pt x="97" y="305" on="0"/>
        <pt x="97" y="249" on="1"/>
        <pt x="97" y="162" on="1"/>
        <pt x="97" y="112" on="0"/>
      </contour>
      <contour>
        <pt x="241" y="402" on="1"/>
        <pt x="357" y="402" on="0"/>
        <pt x="444" y="346" on="1"/>
        <pt x="444" y="490" on="0"/>
        <pt x="265" y="490" on="1"/>
        <pt x="259" y="490" on="0"/>
        <pt x="253" y="490" on="1"/>
        <pt x="255" y="509" on="1"/>
        <pt x="336" y="509" on="0"/>
        <pt x="375" y="490" on="1"/>
        <pt x="396" y="479" on="0"/>
        <pt x="428" y="457" on="0"/>
        <pt x="446" y="421" on="0"/>
        <pt x="458" y="394" on="0"/>
        <pt x="460" y="371" on="1"/>
        <pt x="463" y="336" on="0"/>
        <pt x="463" y="298" on="1"/>
        <pt x="463" y="0" on="1"/>
        <pt x="359" y="-10" on="0"/>
        <pt x="297" y="-10" on="1"/>
        <pt x="78" y="-10" on="0"/>
        <pt x="78" y="169" on="1"/>
        <pt x="78" y="252" on="1"/>
        <pt x="78" y="348" on="0"/>
        <pt x="151" y="384" on="1"/>
        <pt x="188" y="402" on="0"/>
      </contour>
    </TTGlyph>
    <TTGlyph name="acute" xMin="46" yMin="588" xMax="133" yMax="729">
      <contour>
        <pt x="65" y="588" on="1"/>
        <pt x="46" y="588" on="1"/>
        <pt x="101" y="716" on="1"/>
        <pt x="106" y="729" on="0"/>
        <pt x="116" y="729" on="1"/>
        <pt x="133" y="729" on="0"/>
        <pt x="133" y="715" on="1"/>
        <pt x="133" y="709" on="0"/>
        <pt x="128" y="701" on="1"/>
      </contour>
    </TTGlyph>
    <TTGlyph name="adieresis" xMin="78" yMin="-10" xMax="463" yMax="509">
      <contour>
        <pt x="140" y="45" on="0"/>
        <pt x="204" y="14" on="0"/>
        <pt x="285" y="7" on="0"/>
        <pt x="364" y="7" on="0"/>
        <pt x="444" y="18" on="1"/>
        <pt x="444" y="323" on="1"/>
        <pt x="380" y="369" on="0"/>
        <pt x="282" y="381" on="1"/>
        <pt x="261" y="384" on="0"/>
        <pt x="216" y="384" on="0"/>
        <pt x="193" y="380" on="1"/>
        <pt x="152" y="372" on="0"/>
        <pt x="97" y="305" on="0"/>
        <pt x="97" y="249" on="1"/>
        <pt x="97" y="162" on="1"/>
        <pt x="97" y="112" on="0"/>
      </contour>
      <contour>
        <pt x="241" y="402" on="1"/>
        <pt x="357" y="402" on="0"/>
        <pt x="444" y="346" on="1"/>
        <pt x="444" y="490" on="0"/>
        <pt x="265" y="490" on="1"/>
        <pt x="259" y="490" on="0"/>
        <pt x="253" y="490" on="1"/>
        <pt x="255" y="509" on="1"/>
        <pt x="336" y="509" on="0"/>
        <pt x="375" y="490" on="1"/>
        <pt x="396" y="479" on="0"/>
        <pt x="428" y="457" on="0"/>
        <pt x="446" y="421" on="0"/>
        <pt x="458" y="394" on="0"/>
        <pt x="460" y="371" on="1"/>
        <pt x="463" y="336" on="0"/>
        <pt x="463" y="298" on="1"/>
        <pt x="463" y="0" on="1"/>
        <pt x="359" y="-10" on="0"/>
        <pt x="297" y="-10" on="1"/>
        <pt x="78" y="-10" on="0"/>
        <pt x="78" y="169" on="1"/>
        <pt x="78" y="252" on="1"/>
        <pt x="78" y="348" on="0"/>
        <pt x="151" y="384" on="1"/>
        <pt x="188" y="402" on="0"/>
      </contour>
    </TTGlyph>
    <TTGlyph name="ae" xMin="78" yMin="-12" xMax="806" yMax="510">
      <contour>
        <pt x="787" y="266" on="1"/>
        <pt x="787" y="343" on="1"/>
        <pt x="787" y="422" on="0"/>
        <pt x="694" y="491" on="0"/>
        <pt x="562" y="491" on="0"/>
        <pt x="465" y="418" on="0"/>
        <pt x="465" y="340" on="1"/>
        <pt x="465" y="248" on="1"/>
      </contour>
      <contour>
        <pt x="140" y="45" on="0"/>
        <pt x="204" y="14" on="0"/>
        <pt x="285" y="7" on="0"/>
        <pt x="364" y="7" on="0"/>
        <pt x="444" y="18" on="1"/>
        <pt x="444" y="323" on="1"/>
        <pt x="380" y="369" on="0"/>
        <pt x="282" y="381" on="1"/>
        <pt x="261" y="384" on="0"/>
        <pt x="216" y="384" on="0"/>
        <pt x="193" y="380" on="1"/>
        <pt x="152" y="372" on="0"/>
        <pt x="97" y="305" on="0"/>
        <pt x="97" y="249" on="1"/>
        <pt x="97" y="162" on="1"/>
        <pt x="97" y="112" on="0"/>
      </contour>
      <contour>
        <pt x="608" y="4" on="1"/>
        <pt x="687" y="4" on="0"/>
        <pt x="772" y="52" on="1"/>
        <pt x="781" y="35" on="1"/>
        <pt x="704" y="-12" on="0"/>
        <pt x="500" y="-12" on="0"/>
        <pt x="463" y="58" on="1"/>
        <pt x="463" y="0" on="1"/>
        <pt x="359" y="-10" on="0"/>
        <pt x="297" y="-10" on="1"/>
        <pt x="78" y="-10" on="0"/>
        <pt x="78" y="169" on="1"/>
        <pt x="78" y="252" on="1"/>
        <pt x="78" y="348" on="0"/>
        <pt x="151" y="384" on="1"/>
        <pt x="188" y="402" on="0"/>
        <pt x="241" y="402" on="1"/>
        <pt x="357" y="402" on="0"/>
        <pt x="444" y="346" on="1"/>
        <pt x="444" y="490" on="0"/>
        <pt x="265" y="490" on="1"/>
        <pt x="259" y="490" on="0"/>
        <pt x="253" y="490" on="1"/>
        <pt x="255" y="509" on="1"/>
        <pt x="425" y="509" on="0"/>
        <pt x="454" y="398" on="1"/>
        <pt x="471" y="452" on="0"/>
        <pt x="564" y="510" on="0"/>
        <pt x="713" y="510" on="0"/>
        <pt x="806" y="421" on="0"/>
        <pt x="806" y="342" on="1"/>
        <pt x="806" y="247" on="1"/>
        <pt x="465" y="230" on="1"/>
        <pt x="465" y="132" on="1"/>
        <pt x="465" y="66" on="0"/>
        <pt x="551" y="4" on="0"/>
      </contour>
    </TTGlyph>
    <TTGlyph name="agrave" xMin="78" yMin="-10" xMax="463" yMax="679">
      <contour>
        <pt x="292" y="538" on="1"/>
        <pt x="273" y="538" on="1"/>
        <pt x="210" y="651" on="1"/>
        <pt x="198" y="670" on="0"/>
        <pt x="214" y="677" on="1"/>
        <pt x="218" y="679" on="0"/>
        <pt x="222" y="679" on="1"/>
        <pt x="232" y="679" on="0"/>
        <pt x="237" y="666" on="1"/>
      </contour>
      <contour>
        <pt x="140" y="45" on="0"/>
        <pt x="204" y="14" on="0"/>
        <pt x="285" y="7" on="0"/>
        <pt x="364" y="7" on="0"/>
        <pt x="444" y="18" on="1"/>
        <pt x="444" y="323" on="1"/>
        <pt x="380" y="369" on="0"/>
        <pt x="282" y="381" on="1"/>
        <pt x="261" y="384" on="0"/>
        <pt x="216" y="384" on="0"/>
        <pt x="193" y="380" on="1"/>
        <pt x="152" y="372" on="0"/>
        <pt x="97" y="305" on="0"/>
        <pt x="97" y="249" on="1"/>
        <pt x="97" y="162" on="1"/>
        <pt x="97" y="112" on="0"/>
      </contour>
      <contour>
        <pt x="241" y="402" on="1"/>
        <pt x="357" y="402" on="0"/>
        <pt x="444" y="346" on="1"/>
        <pt x="444" y="490" on="0"/>
        <pt x="265" y="490" on="1"/>
        <pt x="259" y="490" on="0"/>
        <pt x="253" y="490" on="1"/>
        <pt x="255" y="509" on="1"/>
        <pt x="336" y="509" on="0"/>
        <pt x="375" y="490" on="1"/>
        <pt x="396" y="479" on="0"/>
        <pt x="428" y="457" on="0"/>
        <pt x="446" y="421" on="0"/>
        <pt x="458" y="394" on="0"/>
        <pt x="460" y="371" on="1"/>
        <pt x="463" y="336" on="0"/>
        <pt x="463" y="298" on="1"/>
        <pt x="463" y="0" on="1"/>
        <pt x="359" y="-10" on="0"/>
        <pt x="297" y="-10" on="1"/>
        <pt x="78" y="-10" on="0"/>
        <pt x="78" y="169" on="1"/>
        <pt x="78" y="252" on="1"/>
        <pt x="78" y="348" on="0"/>
        <pt x="151" y="384" on="1"/>
        <pt x="188" y="402" on="0"/>
      </contour>
    </TTGlyph>
    <TTGlyph name="alpha" xMin="78" yMin="-5" xMax="463" yMax="508">
      <contour>
        <pt x="424" y="434" on="1"/>
        <pt x="323" y="489" on="0"/>
        <pt x="229" y="489" on="1"/>
        <pt x="163" y="489" on="0"/>
        <pt x="97" y="416" on="0"/>
        <pt x="97" y="351" on="1"/>
        <pt x="97" y="162" on="1"/>
        <pt x="97" y="89" on="0"/>
        <pt x="181" y="17" on="0"/>
        <pt x="254" y="14" on="1"/>
        <pt x="268" y="14" on="0"/>
        <pt x="346" y="14" on="0"/>
        <pt x="424" y="22" on="1"/>
      </contour>
      <contour>
        <pt x="234" y="508" on="1"/>
        <pt x="325" y="508" on="0"/>
        <pt x="425" y="454" on="1"/>
        <pt x="433" y="493" on="1"/>
        <pt x="450" y="486" on="1"/>
        <pt x="443" y="455" on="0"/>
        <pt x="443" y="423" on="1"/>
        <pt x="443" y="22" on="1"/>
        <pt x="450" y="20" on="0"/>
        <pt x="463" y="13" on="1"/>
        <pt x="457" y="1" on="1"/>
        <pt x="453" y="5" on="0"/>
        <pt x="433" y="5" on="0"/>
        <pt x="410" y="2" on="1"/>
        <pt x="335" y="-5" on="0"/>
        <pt x="268" y="-5" on="0"/>
        <pt x="240" y="-3" on="0"/>
        <pt x="182" y="5" on="0"/>
        <pt x="150" y="22" on="0"/>
        <pt x="111" y="48" on="0"/>
        <pt x="102" y="66" on="1"/>
        <pt x="78" y="112" on="0"/>
        <pt x="78" y="169" on="1"/>
        <pt x="78" y="354" on="1"/>
        <pt x="78" y="411" on="0"/>
        <pt x="124" y="483" on="0"/>
        <pt x="193" y="508" on="0"/>
      </contour>
    </TTGlyph>
    <TTGlyph name="alphatonos" xMin="78" yMin="-5" xMax="463" yMax="679">
      <contour>
        <pt x="256" y="538" on="1"/>
        <pt x="237" y="538" on="1"/>
        <pt x="292" y="666" on="1"/>
        <pt x="297" y="679" on="0"/>
        <pt x="307" y="679" on="1"/>
        <pt x="311" y="679" on="0"/>
        <pt x="315" y="677" on="1"/>
        <pt x="331" y="670" on="0"/>
        <pt x="319" y="651" on="1"/>
      </contour>
      <contour>
        <pt x="424" y="434" on="1"/>
        <pt x="323" y="489" on="0"/>
        <pt x="229" y="489" on="1"/>
        <pt x="163" y="489" on="0"/>
        <pt x="97" y="416" on="0"/>
        <pt x="97" y="351" on="1"/>
        <pt x="97" y="162" on="1"/>
        <pt x="97" y="89" on="0"/>
        <pt x="181" y="17" on="0"/>
        <pt x="254" y="14" on="1"/>
        <pt x="268" y="14" on="0"/>
        <pt x="346" y="14" on="0"/>
        <pt x="424" y="22" on="1"/>
      </contour>
      <contour>
        <pt x="234" y="508" on="1"/>
        <pt x="325" y="508" on="0"/>
        <pt x="425" y="454" on="1"/>
        <pt x="433" y="493" on="1"/>
        <pt x="450" y="486" on="1"/>
        <pt x="443" y="455" on="0"/>
        <pt x="443" y="423" on="1"/>
        <pt x="443" y="22" on="1"/>
        <pt x="450" y="20" on="0"/>
        <pt x="463" y="13" on="1"/>
        <pt x="457" y="1" on="1"/>
        <pt x="453" y="5" on="0"/>
        <pt x="433" y="5" on="0"/>
        <pt x="410" y="2" on="1"/>
        <pt x="335" y="-5" on="0"/>
        <pt x="268" y="-5" on="0"/>
        <pt x="240" y="-3" on="0"/>
        <pt x="182" y="5" on="0"/>
        <pt x="150" y="22" on="0"/>
        <pt x="111" y="48" on="0"/>
        <pt x="102" y="66" on="1"/>
        <pt x="78" y="112" on="0"/>
        <pt x="78" y="169" on="1"/>
        <pt x="78" y="354" on="1"/>
        <pt x="78" y="411" on="0"/>
        <pt x="124" y="483" on="0"/>
        <pt x="193" y="508" on="0"/>
      </contour>
    </TTGlyph>
    <TTGlyph name="amacron" xMin="78" yMin="-10" xMax="463" yMax="596">
      <contour>
        <pt x="386" y="577" on="1"/>
        <pt x="169" y="577" on="1"/>
        <pt x="169" y="596" on="1"/>
        <pt x="386" y="596" on="1"/>
      </contour>
      <contour>
        <pt x="140" y="45" on="0"/>
        <pt x="204" y="14" on="0"/>
        <pt x="285" y="7" on="0"/>
        <pt x="364" y="7" on="0"/>
        <pt x="444" y="18" on="1"/>
        <pt x="444" y="323" on="1"/>
        <pt x="380" y="369" on="0"/>
        <pt x="282" y="381" on="1"/>
        <pt x="261" y="384" on="0"/>
        <pt x="216" y="384" on="0"/>
        <pt x="193" y="380" on="1"/>
        <pt x="152" y="372" on="0"/>
        <pt x="97" y="305" on="0"/>
        <pt x="97" y="249" on="1"/>
        <pt x="97" y="162" on="1"/>
        <pt x="97" y="112" on="0"/>
      </contour>
      <contour>
        <pt x="241" y="402" on="1"/>
        <pt x="357" y="402" on="0"/>
        <pt x="444" y="346" on="1"/>
        <pt x="444" y="490" on="0"/>
        <pt x="265" y="490" on="1"/>
        <pt x="259" y="490" on="0"/>
        <pt x="253" y="490" on="1"/>
        <pt x="255" y="509" on="1"/>
        <pt x="336" y="509" on="0"/>
        <pt x="375" y="490" on="1"/>
        <pt x="396" y="479" on="0"/>
        <pt x="428" y="457" on="0"/>
        <pt x="446" y="421" on="0"/>
        <pt x="458" y="394" on="0"/>
        <pt x="460" y="371" on="1"/>
        <pt x="463" y="336" on="0"/>
        <pt x="463" y="298" on="1"/>
        <pt x="463" y="0" on="1"/>
        <pt x="359" y="-10" on="0"/>
        <pt x="297" y="-10" on="1"/>
        <pt x="78" y="-10" on="0"/>
        <pt x="78" y="169" on="1"/>
        <pt x="78" y="252" on="1"/>
        <pt x="78" y="348" on="0"/>
        <pt x="151" y="384" on="1"/>
        <pt x="188" y="402" on="0"/>
      </contour>
    </TTGlyph>
    <TTGlyph name="ampersand" xMin="35" yMin="-11" xMax="509" yMax="710">
      <contour>
        <pt x="413" y="204" on="1"/>
        <pt x="413" y="460" on="1"/>
        <pt x="284" y="431" on="0"/>
        <pt x="201" y="392" on="0"/>
        <pt x="132" y="350" on="0"/>
        <pt x="111" y="326" on="1"/>
        <pt x="54" y="261" on="0"/>
        <pt x="54" y="115" on="0"/>
        <pt x="133" y="7" on="0"/>
        <pt x="303" y="7" on="0"/>
        <pt x="413" y="133" on="0"/>
      </contour>
      <contour>
        <pt x="488" y="7" on="1"/>
        <pt x="482" y="-11" on="1"/>
        <pt x="413" y="11" on="0"/>
        <pt x="413" y="113" on="1"/>
        <pt x="370" y="45" on="0"/>
        <pt x="275" y="-11" on="0"/>
        <pt x="213" y="-11" on="1"/>
        <pt x="123" y="-11" on="0"/>
        <pt x="76" y="52" on="1"/>
        <pt x="35" y="107" on="0"/>
        <pt x="35" y="179" on="1"/>
        <pt x="35" y="242" on="0"/>
        <pt x="83" y="333" on="0"/>
        <pt x="154" y="389" on="0"/>
        <pt x="211" y="420" on="0"/>
        <pt x="252" y="438" on="1"/>
        <pt x="214" y="443" on="0"/>
        <pt x="187" y="474" on="1"/>
        <pt x="155" y="511" on="0"/>
        <pt x="155" y="615" on="0"/>
        <pt x="185" y="654" on="1"/>
        <pt x="228" y="710" on="0"/>
        <pt x="311" y="710" on="1"/>
        <pt x="344" y="710" on="0"/>
        <pt x="381" y="699" on="1"/>
        <pt x="371" y="682" on="1"/>
        <pt x="341" y="692" on="0"/>
        <pt x="267" y="692" on="0"/>
        <pt x="228" y="665" on="1"/>
        <pt x="175" y="628" on="0"/>
        <pt x="175" y="570" on="1"/>
        <pt x="175" y="560" on="0"/>
        <pt x="177" y="549" on="1"/>
        <pt x="187" y="487" on="0"/>
        <pt x="228" y="466" on="1"/>
        <pt x="255" y="454" on="0"/>
        <pt x="301" y="454" on="0"/>
        <pt x="319" y="458" on="1"/>
        <pt x="413" y="480" on="1"/>
        <pt x="413" y="609" on="1"/>
        <pt x="432" y="609" on="1"/>
        <pt x="432" y="484" on="1"/>
        <pt x="505" y="500" on="1"/>
        <pt x="509" y="481" on="1"/>
        <pt x="432" y="464" on="1"/>
        <pt x="432" y="122" on="1"/>
        <pt x="432" y="26" on="0"/>
      </contour>
    </TTGlyph>
    <TTGlyph name="aogonek" xMin="37" yMin="-213" xMax="489" yMax="509">
      <contour>
        <pt x="99" y="45" on="0"/>
        <pt x="163" y="14" on="0"/>
        <pt x="244" y="7" on="0"/>
        <pt x="323" y="7" on="0"/>
        <pt x="403" y="18" on="1"/>
        <pt x="403" y="323" on="1"/>
        <pt x="339" y="369" on="0"/>
        <pt x="242" y="381" on="1"/>
        <pt x="220" y="384" on="0"/>
        <pt x="175" y="384" on="0"/>
        <pt x="152" y="380" on="1"/>
        <pt x="111" y="372" on="0"/>
        <pt x="56" y="305" on="0"/>
        <pt x="56" y="249" on="1"/>
        <pt x="56" y="162" on="1"/>
        <pt x="56" y="112" on="0"/>
      </contour>
      <contour>
        <pt x="200" y="402" on="1"/>
        <pt x="316" y="402" on="0"/>
        <pt x="403" y="346" on="1"/>
        <pt x="403" y="490" on="0"/>
        <pt x="224" y="490" on="1"/>
        <pt x="218" y="490" on="0"/>
        <pt x="212" y="490" on="1"/>
        <pt x="214" y="509" on="1"/>
        <pt x="295" y="509" on="0"/>
        <pt x="334" y="490" on="1"/>
        <pt x="355" y="479" on="0"/>
        <pt x="387" y="457" on="0"/>
        <pt x="405" y="421" on="0"/>
        <pt x="417" y="394" on="0"/>
        <pt x="419" y="371" on="1"/>
        <pt x="422" y="336" on="0"/>
        <pt x="422" y="298" on="1"/>
        <pt x="422" y="0" on="1"/>
        <pt x="420" y="0" on="1"/>
        <pt x="320" y="-68" on="0"/>
        <pt x="320" y="-130" on="1"/>
        <pt x="320" y="-157" on="0"/>
        <pt x="363" y="-193" on="0"/>
        <pt x="393" y="-193" on="1"/>
        <pt x="444" y="-193" on="0"/>
        <pt x="473" y="-147" on="1"/>
        <pt x="489" y="-163" on="1"/>
        <pt x="457" y="-213" on="0"/>
        <pt x="393" y="-213" on="1"/>
        <pt x="368" y="-213" on="0"/>
        <pt x="344" y="-202" on="1"/>
        <pt x="300" y="-181" on="0"/>
        <pt x="300" y="-66" on="0"/>
        <pt x="391" y="-3" on="1"/>
        <pt x="249" y="-17" on="0"/>
        <pt x="186" y="-5" on="1"/>
        <pt x="112" y="8" on="0"/>
        <pt x="79" y="44" on="1"/>
        <pt x="37" y="90" on="0"/>
        <pt x="37" y="169" on="1"/>
        <pt x="37" y="252" on="1"/>
        <pt x="37" y="348" on="0"/>
        <pt x="110" y="384" on="1"/>
        <pt x="147" y="402" on="0"/>
      </contour>
    </TTGlyph>
    <TTGlyph name="aring" xMin="78" yMin="-10" xMax="463" yMax="716">
      <contour>
        <pt x="223" y="511" on="0"/>
        <pt x="299" y="511" on="0"/>
        <pt x="352" y="565" on="0"/>
        <pt x="352" y="641" on="0"/>
        <pt x="299" y="694" on="0"/>
        <pt x="223" y="694" on="0"/>
        <pt x="169" y="641" on="0"/>
        <pt x="169" y="565" on="0"/>
      </contour>
      <contour>
        <pt x="140" y="45" on="0"/>
        <pt x="204" y="14" on="0"/>
        <pt x="285" y="7" on="0"/>
        <pt x="364" y="7" on="0"/>
        <pt x="444" y="18" on="1"/>
        <pt x="444" y="323" on="1"/>
        <pt x="380" y="369" on="0"/>
        <pt x="282" y="381" on="1"/>
        <pt x="261" y="384" on="0"/>
        <pt x="216" y="384" on="0"/>
        <pt x="193" y="380" on="1"/>
        <pt x="152" y="372" on="0"/>
        <pt x="97" y="305" on="0"/>
        <pt x="97" y="249" on="1"/>
        <pt x="97" y="162" on="1"/>
        <pt x="97" y="112" on="0"/>
      </contour>
      <contour>
        <pt x="261" y="490" on="1"/>
        <pt x="253" y="490" on="1"/>
        <pt x="209" y="494" on="0"/>
        <pt x="148" y="559" on="0"/>
        <pt x="148" y="650" on="0"/>
        <pt x="214" y="716" on="0"/>
        <pt x="308" y="716" on="0"/>
        <pt x="374" y="650" on="0"/>
        <pt x="374" y="603" on="1"/>
        <pt x="374" y="537" on="0"/>
        <pt x="317" y="505" on="1"/>
        <pt x="359" y="499" on="0"/>
        <pt x="417" y="466" on="0"/>
        <pt x="446" y="431" on="0"/>
        <pt x="461" y="370" on="0"/>
        <pt x="463" y="333" on="0"/>
        <pt x="463" y="298" on="1"/>
        <pt x="463" y="0" on="1"/>
        <pt x="359" y="-10" on="0"/>
        <pt x="297" y="-10" on="1"/>
        <pt x="78" y="-10" on="0"/>
        <pt x="78" y="169" on="1"/>
        <pt x="78" y="252" on="1"/>
        <pt x="78" y="348" on="0"/>
        <pt x="151" y="384" on="1"/>
        <pt x="188" y="402" on="0"/>
        <pt x="241" y="402" on="1"/>
        <pt x="357" y="402" on="0"/>
        <pt x="444" y="346" on="1"/>
        <pt x="444" y="403" on="0"/>
        <pt x="409" y="444" on="1"/>
        <pt x="369" y="490" on="0"/>
      </contour>
    </TTGlyph>
    <TTGlyph name="asciicircum" xMin="78" yMin="742" xMax="368" yMax="899">
      <contour>
        <pt x="353" y="742" on="1"/>
        <pt x="225" y="870" on="1"/>
        <pt x="92" y="743" on="1"/>
        <pt x="78" y="758" on="1"/>
        <pt x="226" y="899" on="1"/>
        <pt x="368" y="758" on="1"/>
      </contour>
    </TTGlyph>
    <TTGlyph name="asciitilde" xMin="78" yMin="308" xMax="469" yMax="375">
      <contour>
        <pt x="189" y="375" on="1"/>
        <pt x="214" y="375" on="0"/>
        <pt x="278" y="355" on="0"/>
        <pt x="349" y="330" on="0"/>
        <pt x="429" y="330" on="0"/>
        <pt x="459" y="362" on="1"/>
        <pt x="469" y="344" on="1"/>
        <pt x="432" y="310" on="0"/>
        <pt x="380" y="310" on="1"/>
        <pt x="347" y="310" on="0"/>
        <pt x="277" y="334" on="0"/>
        <pt x="215" y="354" on="0"/>
        <pt x="190" y="354" on="1"/>
        <pt x="131" y="354" on="0"/>
        <pt x="90" y="308" on="1"/>
        <pt x="78" y="325" on="1"/>
        <pt x="123" y="375" on="0"/>
      </contour>
    </TTGlyph>
    <TTGlyph name="asterisk" xMin="30" yMin="428" xMax="321" yMax="700">
      <contour>
        <pt x="273" y="441" on="1"/>
        <pt x="256" y="428" on="1"/>
        <pt x="175" y="537" on="1"/>
        <pt x="98" y="428" on="1"/>
        <pt x="82" y="439" on="1"/>
        <pt x="158" y="547" on="1"/>
        <pt x="30" y="594" on="1"/>
        <pt x="37" y="613" on="1"/>
        <pt x="164" y="563" on="1"/>
        <pt x="163" y="700" on="1"/>
        <pt x="185" y="700" on="1"/>
        <pt x="184" y="563" on="1"/>
        <pt x="314" y="613" on="1"/>
        <pt x="321" y="594" on="1"/>
        <pt x="190" y="547" on="1"/>
      </contour>
    </TTGlyph>
    <TTGlyph name="at" xMin="30" yMin="-66" xMax="689" yMax="580">
      <contour>
        <pt x="518" y="108" on="1"/>
        <pt x="518" y="383" on="1"/>
        <pt x="407" y="438" on="0"/>
        <pt x="308" y="438" on="1"/>
        <pt x="284" y="438" on="0"/>
        <pt x="262" y="434" on="1"/>
        <pt x="224" y="426" on="0"/>
        <pt x="172" y="360" on="0"/>
        <pt x="172" y="302" on="1"/>
        <pt x="172" y="207" on="1"/>
        <pt x="172" y="150" on="0"/>
        <pt x="202" y="117" on="1"/>
        <pt x="240" y="74" on="0"/>
        <pt x="414" y="74" on="0"/>
      </contour>
      <contour>
        <pt x="326" y="54" on="1"/>
        <pt x="164" y="54" on="0"/>
        <pt x="153" y="204" on="1"/>
        <pt x="153" y="305" on="1"/>
        <pt x="153" y="416" on="0"/>
        <pt x="241" y="449" on="1"/>
        <pt x="270" y="460" on="0"/>
        <pt x="307" y="460" on="1"/>
        <pt x="392" y="460" on="0"/>
        <pt x="518" y="403" on="1"/>
        <pt x="519" y="473" on="0"/>
        <pt x="471" y="516" on="1"/>
        <pt x="421" y="561" on="0"/>
        <pt x="196" y="561" on="0"/>
        <pt x="49" y="450" on="0"/>
        <pt x="49" y="342" on="1"/>
        <pt x="49" y="190" on="1"/>
        <pt x="49" y="83" on="0"/>
        <pt x="200" y="-48" on="0"/>
        <pt x="326" y="-48" on="1"/>
        <pt x="467" y="-48" on="0"/>
        <pt x="637" y="73" on="0"/>
        <pt x="637" y="162" on="1"/>
        <pt x="637" y="372" on="1"/>
        <pt x="637" y="426" on="0"/>
        <pt x="652" y="470" on="0"/>
        <pt x="681" y="490" on="1"/>
        <pt x="689" y="473" on="1"/>
        <pt x="656" y="458" on="0"/>
        <pt x="656" y="403" on="1"/>
        <pt x="656" y="171" on="1"/>
        <pt x="656" y="108" on="0"/>
        <pt x="595" y="12" on="0"/>
        <pt x="545" y="-14" on="1"/>
        <pt x="445" y="-66" on="0"/>
        <pt x="202" y="-66" on="0"/>
        <pt x="30" y="66" on="0"/>
        <pt x="30" y="192" on="1"/>
        <pt x="30" y="339" on="1"/>
        <pt x="30" y="462" on="0"/>
        <pt x="119" y="526" on="1"/>
        <pt x="195" y="580" on="0"/>
        <pt x="315" y="580" on="1"/>
        <pt x="451" y="580" on="0"/>
        <pt x="506" y="506" on="1"/>
        <pt x="538" y="463" on="0"/>
        <pt x="538" y="396" on="1"/>
        <pt x="575" y="380" on="1"/>
        <pt x="575" y="359" on="1"/>
        <pt x="538" y="375" on="1"/>
        <pt x="538" y="91" on="1"/>
        <pt x="402" y="54" on="0"/>
      </contour>
    </TTGlyph>
    <TTGlyph name="atilde" xMin="78" yMin="-10" xMax="463" yMax="637">
      <contour>
        <pt x="212" y="637" on="1"/>
        <pt x="239" y="637" on="0"/>
        <pt x="304" y="605" on="1"/>
        <pt x="329" y="593" on="0"/>
        <pt x="393" y="593" on="0"/>
        <pt x="424" y="625" on="1"/>
        <pt x="434" y="608" on="1"/>
        <pt x="396" y="573" on="0"/>
        <pt x="352" y="573" on="1"/>
        <pt x="326" y="573" on="0"/>
        <pt x="276" y="596" on="0"/>
        <pt x="228" y="616" on="0"/>
        <pt x="208" y="616" on="1"/>
        <pt x="162" y="616" on="0"/>
        <pt x="124" y="572" on="1"/>
        <pt x="113" y="588" on="1"/>
        <pt x="160" y="637" on="0"/>
      </contour>
      <contour>
        <pt x="140" y="45" on="0"/>
        <pt x="204" y="14" on="0"/>
        <pt x="285" y="7" on="0"/>
        <pt x="364" y="7" on="0"/>
        <pt x="444" y="18" on="1"/>
        <pt x="444" y="323" on="1"/>
        <pt x="380" y="369" on="0"/>
        <pt x="282" y="381" on="1"/>
        <pt x="261" y="384" on="0"/>
        <pt x="216" y="384" on="0"/>
        <pt x="193" y="380" on="1"/>
        <pt x="152" y="372" on="0"/>
        <pt x="97" y="305" on="0"/>
        <pt x="97" y="249" on="1"/>
        <pt x="97" y="162" on="1"/>
        <pt x="97" y="112" on="0"/>
      </contour>
      <contour>
        <pt x="241" y="402" on="1"/>
        <pt x="357" y="402" on="0"/>
        <pt x="444" y="346" on="1"/>
        <pt x="444" y="490" on="0"/>
        <pt x="265" y="490" on="1"/>
        <pt x="259" y="490" on="0"/>
        <pt x="253" y="490" on="1"/>
        <pt x="255" y="509" on="1"/>
        <pt x="336" y="509" on="0"/>
        <pt x="375" y="490" on="1"/>
        <pt x="396" y="479" on="0"/>
        <pt x="428" y="457" on="0"/>
        <pt x="446" y="421" on="0"/>
        <pt x="458" y="394" on="0"/>
        <pt x="460" y="371" on="1"/>
        <pt x="463" y="336" on="0"/>
        <pt x="463" y="298" on="1"/>
        <pt x="463" y="0" on="1"/>
        <pt x="359" y="-10" on="0"/>
        <pt x="297" y="-10" on="1"/>
        <pt x="78" y="-10" on="0"/>
        <pt x="78" y="169" on="1"/>
        <pt x="78" y="252" on="1"/>
        <pt x="78" y="348" on="0"/>
        <pt x="151" y="384" on="1"/>
        <pt x="188" y="402" on="0"/>
      </contour>
    </TTGlyph>
    <TTGlyph name="b" xMin="78" yMin="-12" xMax="447" yMax="700">
      <contour>
        <pt x="220" y="7" on="1"/>
        <pt x="428" y="7" on="0"/>
        <pt x="428" y="156" on="1"/>
        <pt x="428" y="343" on="1"/>
        <pt x="428" y="410" on="0"/>
        <pt x="352" y="484" on="0"/>
        <pt x="296" y="489" on="1"/>
        <pt x="277" y="491" on="0"/>
        <pt x="257" y="491" on="1"/>
        <pt x="165" y="491" on="0"/>
        <pt x="97" y="457" on="1"/>
        <pt x="97" y="21" on="1"/>
        <pt x="161" y="7" on="0"/>
      </contour>
      <contour>
        <pt x="97" y="477" on="1"/>
        <pt x="164" y="509" on="0"/>
        <pt x="320" y="509" on="0"/>
        <pt x="362" y="490" on="1"/>
        <pt x="447" y="451" on="0"/>
        <pt x="447" y="346" on="1"/>
        <pt x="447" y="157" on="1"/>
        <pt x="447" y="58" on="0"/>
        <pt x="369" y="18" on="1"/>
        <pt x="310" y="-12" on="0"/>
        <pt x="164" y="-12" on="0"/>
        <pt x="78" y="0" on="1"/>
        <pt x="78" y="700" on="1"/>
        <pt x="97" y="700" on="1"/>
      </contour>
    </TTGlyph>
    <TTGlyph name="backslash" xMin="78" yMin="-114" xMax="422" yMax="817">
      <contour>
        <pt x="422" y="-114" on="1"/>
        <pt x="402" y="-114" on="1"/>
        <pt x="78" y="817" on="1"/>
        <pt x="98" y="817" on="1"/>
      </contour>
    </TTGlyph>
    <TTGlyph name="bar" xMin="78" yMin="-114" xMax="96" yMax="817">
      <contour>
        <pt x="96" y="-114" on="1"/>
        <pt x="78" y="-114" on="1"/>
        <pt x="78" y="817" on="1"/>
        <pt x="96" y="817" on="1"/>
      </contour>
    </TTGlyph>
    <TTGlyph name="beta" xMin="78" yMin="-161" xMax="448" yMax="701">
      <contour>
        <pt x="97" y="531" on="1"/>
        <pt x="97" y="463" on="1"/>
        <pt x="126" y="478" on="0"/>
        <pt x="243" y="504" on="0"/>
        <pt x="246" y="505" on="1"/>
        <pt x="273" y="512" on="0"/>
        <pt x="290" y="532" on="1"/>
        <pt x="311" y="557" on="0"/>
        <pt x="311" y="609" on="0"/>
        <pt x="298" y="650" on="0"/>
        <pt x="252" y="682" on="0"/>
        <pt x="218" y="682" on="1"/>
        <pt x="97" y="682" on="0"/>
      </contour>
      <contour>
        <pt x="97" y="12" on="1"/>
        <pt x="155" y="-1" on="0"/>
        <pt x="214" y="-1" on="1"/>
        <pt x="308" y="8" on="1"/>
        <pt x="361" y="19" on="0"/>
        <pt x="429" y="91" on="0"/>
        <pt x="429" y="149" on="1"/>
        <pt x="429" y="327" on="1"/>
        <pt x="429" y="385" on="0"/>
        <pt x="376" y="457" on="0"/>
        <pt x="300" y="479" on="0"/>
        <pt x="257" y="479" on="1"/>
        <pt x="167" y="479" on="0"/>
        <pt x="97" y="443" on="1"/>
      </contour>
      <contour>
        <pt x="399" y="25" on="0"/>
        <pt x="326" y="-8" on="0"/>
        <pt x="242" y="-19" on="0"/>
        <pt x="161" y="-19" on="0"/>
        <pt x="97" y="-9" on="1"/>
        <pt x="97" y="-161" on="1"/>
        <pt x="78" y="-161" on="1"/>
        <pt x="78" y="537" on="1"/>
        <pt x="78" y="614" on="0"/>
        <pt x="147" y="700" on="0"/>
        <pt x="218" y="701" on="1"/>
        <pt x="262" y="701" on="0"/>
        <pt x="292" y="676" on="1"/>
        <pt x="333" y="643" on="0"/>
        <pt x="333" y="594" on="1"/>
        <pt x="333" y="573" on="0"/>
        <pt x="311" y="516" on="0"/>
        <pt x="277" y="498" on="1"/>
        <pt x="354" y="496" on="0"/>
        <pt x="448" y="401" on="0"/>
        <pt x="448" y="330" on="1"/>
        <pt x="448" y="146" on="1"/>
        <pt x="448" y="95" on="0"/>
      </contour>
    </TTGlyph>
    <TTGlyph name="braceleft" xMin="78" yMin="-116" xMax="266" yMax="822">
      <contour>
        <pt x="266" y="-99" on="1"/>
        <pt x="258" y="-116" on="1"/>
        <pt x="193" y="-79" on="0"/>
        <pt x="152" y="6" on="0"/>
        <pt x="152" y="101" on="1"/>
        <pt x="152" y="247" on="1"/>
        <pt x="152" y="266" on="0"/>
        <pt x="120" y="315" on="0"/>
        <pt x="99" y="335" on="0"/>
        <pt x="78" y="354" on="1"/>
        <pt x="102" y="373" on="0"/>
        <pt x="150" y="435" on="0"/>
        <pt x="150" y="462" on="1"/>
        <pt x="150" y="620" on="1"/>
        <pt x="150" y="703" on="0"/>
        <pt x="192" y="785" on="0"/>
        <pt x="256" y="822" on="1"/>
        <pt x="263" y="805" on="1"/>
        <pt x="243" y="795" on="0"/>
        <pt x="224" y="778" on="0"/>
        <pt x="199" y="757" on="0"/>
        <pt x="189" y="736" on="0"/>
        <pt x="182" y="720" on="1"/>
        <pt x="169" y="692" on="0"/>
        <pt x="169" y="641" on="1"/>
        <pt x="169" y="456" on="1"/>
        <pt x="169" y="419" on="0"/>
        <pt x="104" y="354" on="1"/>
        <pt x="116" y="342" on="0"/>
        <pt x="134" y="324" on="0"/>
        <pt x="153" y="302" on="0"/>
        <pt x="158" y="294" on="1"/>
        <pt x="171" y="271" on="0"/>
        <pt x="171" y="253" on="1"/>
        <pt x="171" y="76" on="1"/>
        <pt x="171" y="6" on="0"/>
        <pt x="212" y="-70" on="0"/>
      </contour>
    </TTGlyph>
    <TTGlyph name="braceright" xMin="78" yMin="-116" xMax="266" yMax="822">
      <contour>
        <pt x="86" y="-116" on="1"/>
        <pt x="78" y="-99" on="1"/>
        <pt x="132" y="-70" on="0"/>
        <pt x="173" y="6" on="0"/>
        <pt x="173" y="76" on="1"/>
        <pt x="173" y="253" on="1"/>
        <pt x="173" y="287" on="0"/>
        <pt x="215" y="329" on="1"/>
        <pt x="240" y="354" on="1"/>
        <pt x="175" y="419" on="0"/>
        <pt x="175" y="456" on="1"/>
        <pt x="175" y="641" on="1"/>
        <pt x="175" y="692" on="0"/>
        <pt x="155" y="736" on="0"/>
        <pt x="145" y="757" on="0"/>
        <pt x="120" y="778" on="0"/>
        <pt x="116" y="782" on="1"/>
        <pt x="101" y="795" on="0"/>
        <pt x="81" y="805" on="1"/>
        <pt x="88" y="822" on="1"/>
        <pt x="152" y="785" on="0"/>
        <pt x="194" y="703" on="0"/>
        <pt x="194" y="620" on="1"/>
        <pt x="194" y="462" on="1"/>
        <pt x="194" y="435" on="0"/>
        <pt x="242" y="373" on="0"/>
        <pt x="266" y="354" on="1"/>
        <pt x="245" y="335" on="0"/>
        <pt x="224" y="315" on="0"/>
        <pt x="192" y="266" on="0"/>
        <pt x="192" y="247" on="1"/>
        <pt x="192" y="101" on="1"/>
        <pt x="192" y="6" on="0"/>
        <pt x="151" y="-79" on="0"/>
      </contour>
    </TTGlyph>
    <TTGlyph name="bracketleft" xMin="78" yMin="-114" xMax="239" yMax="817">
      <contour>
        <pt x="239" y="-114" on="1"/>
        <pt x="78" y="-114" on="1"/>
        <pt x="78" y="817" on="1"/>
        <pt x="239" y="817" on="1"/>
        <pt x="239" y="800" on="1"/>
        <pt x="97" y="799" on="1"/>
        <pt x="97" y="-95" on="1"/>
        <pt x="239" y="-96" on="1"/>
      </contour>
    </TTGlyph>
    <TTGlyph name="bracketright" xMin="78" yMin="-114" xMax="239" yMax="817">
      <contour>
        <pt x="239" y="-114" on="1"/>
        <pt x="78" y="-114" on="1"/>
        <pt x="78" y="-96" on="1"/>
        <pt x="220" y="-95" on="1"/>
        <pt x="220" y="799" on="1"/>
        <pt x="78" y="800" on="1"/>
        <pt x="78" y="817" on="1"/>
        <pt x="239" y="817" on="1"/>
      </contour>
    </TTGlyph>
    <TTGlyph name="breve" xMin="46" yMin="582" xMax="272" yMax="700">
      <contour>
        <pt x="272" y="700" on="1"/>
        <pt x="272" y="695" on="1"/>
        <pt x="272" y="648" on="0"/>
        <pt x="206" y="582" on="0"/>
        <pt x="112" y="582" on="0"/>
        <pt x="46" y="648" on="0"/>
        <pt x="46" y="695" on="1"/>
        <pt x="46" y="700" on="1"/>
        <pt x="67" y="700" on="1"/>
        <pt x="67" y="695" on="1"/>
        <pt x="67" y="662" on="0"/>
        <pt x="117" y="602" on="0"/>
        <pt x="199" y="602" on="0"/>
        <pt x="251" y="663" on="0"/>
        <pt x="251" y="695" on="1"/>
        <pt x="251" y="700" on="1"/>
      </contour>
    </TTGlyph>
    <TTGlyph name="bullet" xMin="78" yMin="158" xMax="435" yMax="515">
      <contour>
        <pt x="330" y="158" on="0"/>
        <pt x="182" y="158" on="0"/>
        <pt x="78" y="263" on="0"/>
        <pt x="78" y="411" on="0"/>
        <pt x="182" y="515" on="0"/>
        <pt x="330" y="515" on="0"/>
        <pt x="435" y="411" on="0"/>
        <pt x="435" y="263" on="0"/>
      </contour>
    </TTGlyph>
    <TTGlyph name="c" xMin="36" yMin="-11" xMax="358" yMax="510">
      <contour>
        <pt x="54" y="109" on="0"/>
        <pt x="108" y="33" on="0"/>
        <pt x="193" y="8" on="0"/>
        <pt x="293" y="8" on="0"/>
        <pt x="353" y="25" on="1"/>
        <pt x="358" y="6" on="1"/>
        <pt x="294" y="-11" on="0"/>
        <pt x="190" y="-11" on="0"/>
        <pt x="140" y="5" on="1"/>
        <pt x="36" y="39" on="0"/>
        <pt x="36" y="180" on="1"/>
        <pt x="36" y="308" on="1"/>
        <pt x="36" y="379" on="0"/>
        <pt x="64" y="427" on="1"/>
        <pt x="112" y="510" on="0"/>
        <pt x="222" y="510" on="1"/>
        <pt x="288" y="510" on="0"/>
        <pt x="356" y="478" on="1"/>
        <pt x="349" y="458" on="1"/>
        <pt x="288" y="490" on="0"/>
        <pt x="223" y="490" on="1"/>
        <pt x="186" y="490" on="0"/>
        <pt x="110" y="463" on="0"/>
        <pt x="55" y="377" on="0"/>
        <pt x="55" y="314" on="1"/>
        <pt x="55" y="169" on="1"/>
      </contour>
    </TTGlyph>
</ttFont>
